<?xml version="1.0" encoding="utf-8"?>
<!-- Generator: Adobe Illustrator 16.0.0, SVG Export Plug-In . SVG Version: 6.00 Build 0)  -->
<!DOCTYPE svg PUBLIC "-//W3C//DTD SVG 1.1//EN" "http://www.w3.org/Graphics/SVG/1.1/DTD/svg11.dtd">
<svg version="1.1" id="Layer_1" xmlns="http://www.w3.org/2000/svg" xmlns:xlink="http://www.w3.org/1999/xlink" x="0px" y="0px"
	 width="465.252px" height="277.622px" viewBox="65.987 128.727 465.252 277.622"
	 enable-background="new 65.987 128.727 465.252 277.622" xml:space="preserve">
<rect x="65.987" y="185.351" fill="#F1F1F1" width="219.699" height="152.215"/>
<rect x="82.301" y="203.412" fill="#CCCCCC" width="186.83" height="8.871"/>
<rect x="82.301" y="290.292" fill="#2F80ED" width="186.83" height="29.215"/>
<rect x="82.301" y="217.367" fill="#CCCCCC" width="96.396" height="8.871"/>
<rect x="82.301" y="234.361" fill="#CCCCCC" width="186.83" height="47.271"/>
<path fill="#6E6E6E" d="M167.596,149.935c0.488,0,0.916,0.104,1.284,0.312c0.376,0.2,0.664,0.484,0.864,0.852
	c0.208,0.368,0.312,0.792,0.312,1.272s-0.104,0.9-0.312,1.26c-0.208,0.36-0.504,0.64-0.888,0.84c-0.376,0.2-0.812,0.3-1.308,0.3
	h-2.111c-0.032,0-0.048,0.016-0.048,0.048v3.408c0,0.08-0.04,0.12-0.12,0.12h-0.912c-0.08,0-0.12-0.04-0.12-0.12v-8.172
	c0-0.08,0.04-0.12,0.12-0.12H167.596z M167.44,153.835c0.44,0,0.792-0.132,1.056-0.396c0.272-0.264,0.408-0.612,0.408-1.044
	c0-0.44-0.136-0.792-0.408-1.056c-0.264-0.272-0.616-0.408-1.056-0.408h-2.003c-0.032,0-0.048,0.016-0.048,0.048v2.808
	c0,0.032,0.016,0.048,0.048,0.048H167.44z M173.463,152.143c0.488,0,0.912,0.088,1.272,0.264c0.368,0.168,0.648,0.408,0.84,0.72
	c0.2,0.304,0.3,0.652,0.3,1.044v4.056c0,0.08-0.04,0.12-0.12,0.12h-0.912c-0.08,0-0.12-0.04-0.12-0.12v-0.432
	c0-0.04-0.02-0.048-0.06-0.024c-0.208,0.216-0.464,0.384-0.768,0.504c-0.296,0.112-0.628,0.168-0.996,0.168
	c-0.592,0-1.084-0.148-1.476-0.444c-0.384-0.304-0.576-0.76-0.576-1.368c0-0.624,0.216-1.112,0.648-1.464
	c0.44-0.36,1.052-0.54,1.836-0.54h1.344c0.032,0,0.048-0.016,0.048-0.048v-0.324c0-0.352-0.104-0.624-0.312-0.816
	c-0.2-0.2-0.508-0.3-0.924-0.3c-0.336,0-0.612,0.068-0.828,0.204c-0.208,0.128-0.336,0.304-0.384,0.528
	c-0.024,0.08-0.072,0.116-0.144,0.108l-0.972-0.132c-0.08-0.016-0.116-0.048-0.108-0.096c0.064-0.472,0.316-0.856,0.756-1.152
	C172.247,152.295,172.799,152.143,173.463,152.143z M173.151,157.471c0.424,0,0.792-0.112,1.104-0.336
	c0.312-0.224,0.468-0.508,0.468-0.852v-0.708c0-0.032-0.016-0.048-0.048-0.048h-1.128c-0.472,0-0.848,0.092-1.128,0.276
	c-0.28,0.184-0.42,0.44-0.42,0.768c0,0.296,0.104,0.52,0.312,0.672C172.527,157.395,172.807,157.471,173.151,157.471z
	 M178.933,158.347c-0.072,0-0.12-0.032-0.144-0.096l-1.956-5.88l-0.012-0.048c0-0.056,0.036-0.084,0.108-0.084h1.008
	c0.072,0,0.12,0.032,0.144,0.096l1.32,4.344c0.008,0.016,0.02,0.024,0.036,0.024s0.028-0.008,0.036-0.024l1.308-4.344
	c0.024-0.064,0.072-0.096,0.144-0.096l1.008,0.012c0.088,0,0.12,0.044,0.096,0.132l-1.944,5.868
	c-0.024,0.064-0.072,0.096-0.144,0.096H178.933z M187.894,154.531c0.032,0.328,0.044,0.696,0.036,1.104c0,0.08-0.04,0.12-0.12,0.12
	h-3.828c-0.032,0-0.048,0.016-0.048,0.048c0,0.272,0.024,0.48,0.072,0.624c0.088,0.32,0.264,0.572,0.528,0.756
	c0.272,0.176,0.612,0.264,1.02,0.264c0.592,0,1.048-0.244,1.368-0.732c0.04-0.08,0.092-0.092,0.156-0.036l0.684,0.456
	c0.056,0.048,0.068,0.1,0.036,0.156c-0.224,0.36-0.544,0.644-0.96,0.852c-0.408,0.208-0.872,0.312-1.392,0.312
	c-0.584,0-1.076-0.128-1.476-0.384c-0.4-0.256-0.7-0.62-0.9-1.092c-0.192-0.472-0.288-1.044-0.288-1.716
	c0-0.584,0.044-1.028,0.132-1.332c0.144-0.552,0.432-0.988,0.864-1.308c0.432-0.32,0.956-0.48,1.572-0.48
	c0.808,0,1.412,0.204,1.812,0.612C187.562,153.155,187.806,153.747,187.894,154.531z M185.35,153.139
	c-0.344,0-0.628,0.088-0.852,0.264c-0.224,0.168-0.376,0.396-0.456,0.684c-0.056,0.176-0.092,0.4-0.108,0.672
	c0,0.032,0.016,0.048,0.048,0.048h2.748c0.032,0,0.048-0.016,0.048-0.048c-0.016-0.264-0.04-0.46-0.072-0.588
	c-0.08-0.312-0.24-0.56-0.48-0.744C185.994,153.235,185.702,153.139,185.35,153.139z M184.822,151.471
	c-0.048,0-0.084-0.012-0.108-0.036c-0.016-0.032-0.012-0.068,0.012-0.108l0.708-1.296c0.024-0.056,0.072-0.084,0.144-0.084h0.804
	c0.048,0,0.076,0.016,0.084,0.048c0.016,0.024,0.012,0.056-0.012,0.096l-0.852,1.296c-0.04,0.056-0.088,0.084-0.144,0.084H184.822z"
	/>
<path opacity="0.5" fill="#6E6E6E" enable-background="new    " d="M158.563,169.875c0.16,0.392,0.24,0.844,0.24,1.356
	c0,0.424-0.064,0.816-0.192,1.176c-0.176,0.496-0.468,0.88-0.876,1.152c-0.408,0.264-0.9,0.396-1.476,0.396s-1.076-0.148-1.5-0.444
	c-0.416-0.296-0.708-0.696-0.876-1.2c-0.088-0.224-0.14-0.544-0.156-0.96c0-0.08,0.04-0.12,0.12-0.12h0.924
	c0.08,0,0.12,0.04,0.12,0.12c0.016,0.288,0.048,0.5,0.096,0.636c0.08,0.296,0.228,0.532,0.444,0.708
	c0.224,0.176,0.5,0.264,0.828,0.264c0.608,0,1.016-0.276,1.224-0.828c0.104-0.24,0.156-0.552,0.156-0.936
	c0-0.408-0.064-0.772-0.192-1.092c-0.224-0.496-0.624-0.744-1.2-0.744c-0.136,0-0.308,0.06-0.516,0.18
	c-0.032,0.016-0.056,0.024-0.072,0.024c-0.04,0-0.072-0.02-0.096-0.06l-0.456-0.624c-0.016-0.032-0.024-0.06-0.024-0.084
	s0.012-0.052,0.036-0.084l2.052-2.196c0.024-0.04,0.016-0.06-0.024-0.06h-3.192c-0.08,0-0.12-0.04-0.12-0.12v-0.756
	c0-0.08,0.04-0.12,0.12-0.12h4.656c0.08,0,0.12,0.04,0.12,0.12v0.864c0,0.04-0.02,0.088-0.06,0.144l-1.824,1.992
	c-0.016,0.016-0.02,0.032-0.012,0.048c0.008,0.008,0.024,0.016,0.048,0.024c0.408,0.04,0.752,0.168,1.032,0.384
	C158.195,169.243,158.411,169.523,158.563,169.875z M162.876,173.979c-0.808,0-1.452-0.228-1.932-0.684
	c-0.472-0.464-0.708-1.084-0.708-1.86v-3.552c0-0.776,0.236-1.392,0.708-1.848c0.48-0.456,1.124-0.684,1.932-0.684
	c0.808,0,1.452,0.228,1.932,0.684c0.488,0.456,0.732,1.072,0.732,1.848v3.552c0,0.776-0.244,1.396-0.732,1.86
	C164.328,173.751,163.684,173.979,162.876,173.979z M162.876,172.983c0.464,0,0.832-0.132,1.104-0.396
	c0.272-0.272,0.408-0.632,0.408-1.08v-3.672c0-0.448-0.136-0.804-0.408-1.068c-0.272-0.272-0.64-0.408-1.104-0.408
	c-0.448,0-0.808,0.136-1.08,0.408c-0.272,0.264-0.408,0.62-0.408,1.068v3.672c0,0.448,0.136,0.808,0.408,1.08
	C162.068,172.851,162.428,172.983,162.876,172.983z M169.673,173.979c-0.808,0-1.452-0.228-1.932-0.684
	c-0.472-0.464-0.708-1.084-0.708-1.86v-3.552c0-0.776,0.236-1.392,0.708-1.848c0.48-0.456,1.124-0.684,1.932-0.684
	s1.452,0.228,1.932,0.684c0.488,0.456,0.732,1.072,0.732,1.848v3.552c0,0.776-0.244,1.396-0.732,1.86
	C171.125,173.751,170.481,173.979,169.673,173.979z M169.673,172.983c0.464,0,0.832-0.132,1.104-0.396
	c0.272-0.272,0.408-0.632,0.408-1.08v-3.672c0-0.448-0.136-0.804-0.408-1.068c-0.272-0.272-0.64-0.408-1.104-0.408
	c-0.448,0-0.808,0.136-1.08,0.408c-0.272,0.264-0.408,0.62-0.408,1.068v3.672c0,0.448,0.136,0.808,0.408,1.08
	C168.865,172.851,169.225,172.983,169.673,172.983z M173.494,173.859c-0.048,0-0.08-0.012-0.096-0.036
	c-0.016-0.032-0.012-0.068,0.012-0.108l1.992-2.868c0.016-0.024,0.016-0.048,0-0.072l-1.992-2.88l-0.024-0.06
	c0-0.056,0.036-0.084,0.108-0.084h0.972c0.064,0,0.112,0.024,0.144,0.072l1.404,2.052c0.008,0.008,0.02,0.012,0.036,0.012
	s0.028-0.004,0.036-0.012l1.392-2.052c0.032-0.048,0.08-0.072,0.144-0.072h1.044c0.048,0,0.08,0.016,0.096,0.048
	c0.016,0.024,0.012,0.056-0.012,0.096l-1.992,2.88c-0.008,0.024-0.008,0.048,0,0.072l1.992,2.868l0.024,0.06
	c0,0.056-0.036,0.084-0.108,0.084h-0.984c-0.064,0-0.112-0.024-0.144-0.072l-1.392-2.052c-0.008-0.016-0.02-0.024-0.036-0.024
	s-0.028,0.008-0.036,0.024l-1.404,2.052c-0.032,0.048-0.08,0.072-0.144,0.072H173.494z M181.222,172.803
	c-0.008,0.016-0.008,0.032,0,0.048c0.008,0.008,0.02,0.012,0.036,0.012h3.612c0.08,0,0.12,0.04,0.12,0.12v0.756
	c0,0.08-0.04,0.12-0.12,0.12h-5.028c-0.08,0-0.12-0.04-0.12-0.12v-0.732c0-0.056,0.02-0.104,0.06-0.144
	c0.272-0.313,0.896-1.044,1.872-2.196l0.828-0.996c0.744-0.888,1.116-1.576,1.116-2.064c0-0.376-0.128-0.676-0.384-0.9
	c-0.248-0.232-0.58-0.348-0.996-0.348s-0.748,0.116-0.996,0.348c-0.248,0.232-0.368,0.536-0.36,0.912v0.36
	c0,0.08-0.04,0.12-0.12,0.12h-0.924c-0.08,0-0.12-0.04-0.12-0.12v-0.516c0.016-0.416,0.132-0.784,0.348-1.104
	c0.224-0.32,0.524-0.564,0.9-0.732c0.376-0.176,0.8-0.264,1.272-0.264c0.512,0,0.96,0.096,1.344,0.288
	c0.384,0.192,0.68,0.456,0.888,0.792s0.312,0.716,0.312,1.14c0,0.664-0.36,1.448-1.08,2.352c-0.32,0.408-0.7,0.868-1.14,1.38
	C182.102,171.819,181.662,172.315,181.222,172.803z M191.218,170.139c0.088,0.352,0.132,0.716,0.132,1.092s-0.048,0.724-0.144,1.044
	c-0.152,0.512-0.444,0.92-0.876,1.224c-0.424,0.296-0.932,0.444-1.524,0.444c-0.584,0-1.084-0.144-1.5-0.432
	c-0.416-0.288-0.708-0.68-0.876-1.176c-0.08-0.224-0.124-0.42-0.132-0.588v-0.024c0-0.064,0.036-0.096,0.108-0.096h0.948
	c0.072,0,0.112,0.036,0.12,0.108c0.008,0.056,0.028,0.14,0.06,0.252c0.088,0.296,0.24,0.532,0.456,0.708
	c0.224,0.168,0.492,0.252,0.804,0.252c0.328,0,0.604-0.088,0.828-0.264c0.232-0.184,0.388-0.436,0.468-0.756
	c0.056-0.168,0.084-0.4,0.084-0.696c0-0.264-0.024-0.508-0.072-0.732c-0.056-0.304-0.2-0.536-0.432-0.696
	c-0.224-0.168-0.504-0.252-0.84-0.252c-0.312,0-0.592,0.072-0.84,0.216c-0.248,0.136-0.408,0.32-0.48,0.552
	c-0.024,0.072-0.068,0.108-0.132,0.108h-0.96c-0.08,0-0.12-0.04-0.12-0.12v-4.728c0-0.08,0.04-0.12,0.12-0.12h4.488
	c0.08,0,0.12,0.04,0.12,0.12v0.756c0,0.08-0.04,0.12-0.12,0.12h-3.408c-0.032,0-0.048,0.016-0.048,0.048l-0.012,2.508
	c0,0.048,0.02,0.06,0.06,0.036c0.192-0.168,0.412-0.292,0.66-0.372c0.256-0.088,0.524-0.132,0.804-0.132c0.56,0,1.04,0.14,1.44,0.42
	C190.81,169.243,191.082,169.635,191.218,170.139z M195.267,173.979c-0.808,0-1.452-0.228-1.932-0.684
	c-0.472-0.464-0.708-1.084-0.708-1.86v-3.552c0-0.776,0.236-1.392,0.708-1.848c0.48-0.456,1.124-0.684,1.932-0.684
	c0.808,0,1.452,0.228,1.932,0.684c0.488,0.456,0.732,1.072,0.732,1.848v3.552c0,0.776-0.244,1.396-0.732,1.86
	C196.719,173.751,196.075,173.979,195.267,173.979z M195.267,172.983c0.464,0,0.832-0.132,1.104-0.396
	c0.272-0.272,0.408-0.632,0.408-1.08v-3.672c0-0.448-0.136-0.804-0.408-1.068c-0.272-0.272-0.64-0.408-1.104-0.408
	c-0.448,0-0.808,0.136-1.08,0.408c-0.272,0.264-0.408,0.62-0.408,1.068v3.672c0,0.448,0.136,0.808,0.408,1.08
	C194.459,172.851,194.819,172.983,195.267,172.983z"/>
<rect x="309.39" y="165.593" fill="#F1F1F1" width="41.523" height="172.612"/>
<rect x="316.759" y="174.707" fill="#CCCCCC" width="26.771" height="5.309"/>
<rect x="316.759" y="184.256" fill="#CCCCCC" width="26.771" height="5.309"/>
<rect x="316.759" y="193.806" fill="#CCCCCC" width="26.771" height="5.309"/>
<rect x="316.759" y="203.356" fill="#CCCCCC" width="26.771" height="5.309"/>
<rect x="316.759" y="212.906" fill="#CCCCCC" width="14.989" height="5.309"/>
<rect x="316.338" y="223.357" fill="#2F80ED" width="26.651" height="14.278"/>
<rect x="316.759" y="242.779" fill="#CCCCCC" width="26.23" height="83.575"/>
<path fill="#6E6E6E" d="M304.331,137.613c-0.616,0-1.152-0.096-1.608-0.288c-0.448-0.192-0.796-0.464-1.044-0.816
	c-0.24-0.352-0.36-0.764-0.36-1.236v-0.348c0-0.08,0.04-0.12,0.12-0.12h0.876c0.08,0,0.12,0.04,0.12,0.12v0.288
	c0,0.408,0.176,0.744,0.528,1.008c0.352,0.264,0.836,0.396,1.452,0.396c0.552,0,0.968-0.116,1.248-0.348
	c0.28-0.232,0.42-0.536,0.42-0.912c0-0.248-0.072-0.46-0.216-0.636c-0.144-0.176-0.356-0.336-0.636-0.479
	c-0.272-0.152-0.672-0.332-1.2-0.54c-0.584-0.224-1.048-0.428-1.392-0.612c-0.336-0.184-0.616-0.424-0.84-0.72
	c-0.224-0.304-0.336-0.684-0.336-1.14c0-0.688,0.244-1.228,0.732-1.62c0.496-0.392,1.164-0.588,2.004-0.588
	c0.592,0,1.112,0.1,1.56,0.3c0.448,0.2,0.792,0.48,1.032,0.84c0.248,0.36,0.372,0.776,0.372,1.248v0.24c0,0.08-0.04,0.12-0.12,0.12
	h-0.9c-0.08,0-0.12-0.04-0.12-0.12v-0.18c0-0.416-0.168-0.76-0.504-1.032c-0.328-0.28-0.784-0.42-1.368-0.42
	c-0.496,0-0.88,0.104-1.152,0.312c-0.272,0.2-0.408,0.492-0.408,0.876c0,0.264,0.068,0.48,0.204,0.648
	c0.136,0.168,0.336,0.32,0.6,0.456c0.272,0.128,0.684,0.296,1.236,0.504c0.568,0.224,1.028,0.432,1.38,0.624
	c0.352,0.184,0.644,0.432,0.876,0.744c0.232,0.304,0.348,0.684,0.348,1.14c0,0.704-0.26,1.264-0.779,1.68
	C305.943,137.409,305.235,137.613,304.331,137.613z M308.77,137.517c-0.08,0-0.12-0.04-0.12-0.12v-8.16c0-0.08,0.04-0.12,0.12-0.12
	h0.912c0.08,0,0.12,0.04,0.12,0.12v4.62c0,0.016,0.008,0.028,0.023,0.036c0.017,0.008,0.028,0.004,0.036-0.012l2.22-2.412
	c0.032-0.04,0.08-0.06,0.145-0.06h1.067c0.049,0,0.076,0.016,0.084,0.048c0.017,0.024,0.009,0.056-0.023,0.096l-1.548,1.788
	c-0.017,0.032-0.021,0.056-0.013,0.072l1.836,3.96l0.013,0.048c0,0.064-0.036,0.096-0.108,0.096h-0.96
	c-0.063,0-0.107-0.032-0.132-0.096l-1.428-3.264c-0.017-0.04-0.036-0.044-0.061-0.012l-1.128,1.248
	c-0.016,0.032-0.023,0.052-0.023,0.06v1.944c0,0.08-0.04,0.12-0.12,0.12H308.77z M314.61,139.905c-0.057,0-0.084-0.04-0.084-0.12
	v-0.708c0-0.08,0.023-0.12,0.071-0.12h0.072c0.32-0.008,0.572-0.048,0.756-0.12c0.185-0.072,0.336-0.208,0.456-0.408
	c0.12-0.192,0.236-0.484,0.349-0.876c0.008-0.008,0.008-0.02,0-0.036c0-0.024,0-0.036,0-0.036l-2.005-5.94l-0.012-0.048
	c0-0.056,0.036-0.084,0.108-0.084h0.972c0.072,0,0.12,0.032,0.145,0.096l1.355,4.524c0.008,0.016,0.021,0.024,0.036,0.024
	s0.028-0.008,0.036-0.024l1.344-4.524c0.024-0.064,0.072-0.096,0.144-0.096h0.948c0.088,0,0.12,0.044,0.097,0.132l-2.185,6.396
	c-0.184,0.552-0.368,0.96-0.552,1.224c-0.185,0.272-0.424,0.464-0.72,0.576c-0.296,0.112-0.712,0.168-1.248,0.168H314.61z
	 M322.258,137.589c-0.479,0-0.903-0.072-1.271-0.216c-0.36-0.144-0.64-0.34-0.84-0.588c-0.2-0.256-0.3-0.536-0.3-0.84v-0.132
	c0-0.08,0.04-0.12,0.12-0.12h0.863c0.08,0,0.12,0.028,0.12,0.084v0.096c0,0.224,0.12,0.42,0.36,0.588
	c0.248,0.168,0.56,0.252,0.936,0.252c0.36,0,0.652-0.076,0.876-0.228c0.225-0.16,0.336-0.36,0.336-0.6
	c0-0.232-0.104-0.404-0.312-0.516c-0.208-0.12-0.544-0.244-1.008-0.372c-0.456-0.128-0.841-0.256-1.152-0.384
	c-0.304-0.136-0.564-0.324-0.78-0.564c-0.208-0.248-0.312-0.564-0.312-0.948c0-0.536,0.208-0.96,0.624-1.272
	c0.424-0.32,0.983-0.48,1.68-0.48c0.464,0,0.872,0.076,1.224,0.228c0.36,0.144,0.637,0.348,0.828,0.612
	c0.192,0.264,0.288,0.56,0.288,0.888v0.036c0,0.08-0.04,0.12-0.12,0.12h-0.84c-0.08,0-0.12-0.028-0.12-0.084v-0.072
	c0-0.232-0.115-0.424-0.348-0.576c-0.224-0.16-0.532-0.24-0.924-0.24c-0.353,0-0.641,0.068-0.864,0.204
	c-0.216,0.136-0.324,0.32-0.324,0.552s0.104,0.408,0.313,0.528c0.216,0.12,0.56,0.248,1.032,0.384
	c0.464,0.128,0.848,0.256,1.151,0.384c0.313,0.12,0.576,0.304,0.792,0.552c0.216,0.24,0.324,0.556,0.324,0.948
	c0,0.544-0.216,0.976-0.648,1.296C323.538,137.429,322.971,137.589,322.258,137.589z M328.406,137.613
	c-0.608,0-1.128-0.152-1.561-0.456c-0.432-0.313-0.728-0.732-0.888-1.26c-0.12-0.368-0.18-0.852-0.18-1.452
	c0-0.552,0.06-1.036,0.18-1.452c0.16-0.512,0.456-0.92,0.888-1.224c0.44-0.304,0.96-0.456,1.561-0.456
	c0.6,0,1.124,0.152,1.571,0.456c0.448,0.304,0.74,0.688,0.876,1.152c0.049,0.128,0.08,0.26,0.097,0.396
	c0,0.064-0.036,0.104-0.108,0.12l-0.899,0.132h-0.024c-0.056,0-0.096-0.036-0.12-0.108l-0.036-0.192
	c-0.063-0.272-0.22-0.5-0.468-0.684s-0.548-0.276-0.9-0.276c-0.344,0-0.636,0.092-0.876,0.276c-0.239,0.184-0.396,0.428-0.468,0.732
	c-0.072,0.288-0.107,0.668-0.107,1.14c0,0.464,0.035,0.84,0.107,1.128c0.08,0.32,0.236,0.572,0.468,0.756
	c0.24,0.184,0.532,0.276,0.876,0.276c0.353,0,0.652-0.092,0.9-0.276c0.256-0.184,0.416-0.424,0.48-0.72
	c0.008-0.008,0.008-0.016,0-0.024c0-0.016,0.004-0.028,0.012-0.036v-0.048c0.023-0.063,0.067-0.088,0.132-0.072l0.9,0.144
	c0.063,0.016,0.096,0.048,0.096,0.096v0.048c0,0.072-0.021,0.16-0.061,0.264c-0.136,0.488-0.428,0.88-0.876,1.176
	C329.53,137.465,329.006,137.613,328.406,137.613z M334.95,131.349c0.256,0,0.488,0.052,0.696,0.156
	c0.056,0.024,0.076,0.072,0.06,0.144l-0.191,0.9c-0.008,0.072-0.057,0.096-0.145,0.072c-0.136-0.056-0.296-0.084-0.479-0.084
	l-0.168,0.012c-0.376,0.016-0.688,0.148-0.937,0.396c-0.239,0.24-0.359,0.556-0.359,0.948v3.504c0,0.08-0.04,0.12-0.12,0.12h-0.912
	c-0.08,0-0.12-0.04-0.12-0.12v-5.868c0-0.08,0.04-0.12,0.12-0.12h0.912c0.08,0,0.12,0.04,0.12,0.12v0.636
	c0,0.024,0.004,0.04,0.012,0.048c0.016,0,0.028-0.008,0.036-0.024C333.834,131.629,334.326,131.349,334.95,131.349z
	 M338.912,131.313c0.488,0,0.912,0.088,1.272,0.264c0.368,0.168,0.648,0.408,0.84,0.72c0.2,0.304,0.3,0.652,0.3,1.044v4.056
	c0,0.08-0.04,0.12-0.119,0.12h-0.912c-0.08,0-0.12-0.04-0.12-0.12v-0.432c0-0.04-0.021-0.048-0.061-0.024
	c-0.208,0.216-0.464,0.384-0.768,0.504c-0.296,0.112-0.628,0.168-0.996,0.168c-0.592,0-1.084-0.148-1.476-0.444
	c-0.385-0.304-0.576-0.76-0.576-1.368c0-0.624,0.216-1.112,0.647-1.464c0.44-0.36,1.053-0.54,1.836-0.54h1.345
	c0.031,0,0.048-0.016,0.048-0.048v-0.324c0-0.352-0.104-0.624-0.313-0.816c-0.2-0.2-0.508-0.3-0.924-0.3
	c-0.336,0-0.612,0.068-0.828,0.204c-0.208,0.128-0.336,0.304-0.384,0.528c-0.024,0.08-0.072,0.116-0.144,0.108l-0.973-0.132
	c-0.08-0.016-0.116-0.048-0.107-0.096c0.063-0.472,0.315-0.856,0.756-1.152C337.696,131.465,338.249,131.313,338.912,131.313z
	 M338.601,136.641c0.424,0,0.792-0.112,1.104-0.336c0.312-0.224,0.468-0.508,0.468-0.852v-0.708c0-0.032-0.017-0.048-0.048-0.048
	h-1.128c-0.473,0-0.849,0.092-1.129,0.276c-0.279,0.184-0.42,0.44-0.42,0.768c0,0.296,0.104,0.52,0.313,0.672
	C337.977,136.565,338.257,136.641,338.601,136.641z M347.836,132.945c0.152,0.432,0.228,0.944,0.228,1.536
	c0,0.56-0.063,1.044-0.191,1.452c-0.168,0.536-0.444,0.952-0.828,1.248c-0.384,0.288-0.876,0.432-1.477,0.432
	c-0.271,0-0.531-0.052-0.779-0.156c-0.24-0.112-0.448-0.268-0.624-0.468c-0.017-0.016-0.032-0.02-0.048-0.012
	c-0.009,0.008-0.013,0.02-0.013,0.036v2.676c0,0.08-0.04,0.12-0.12,0.12h-0.911c-0.08,0-0.12-0.04-0.12-0.12v-8.16
	c0-0.08,0.04-0.12,0.12-0.12h0.911c0.08,0,0.12,0.04,0.12,0.12v0.396c0,0.016,0.004,0.028,0.013,0.036
	c0.016,0.008,0.031,0.004,0.048-0.012c0.176-0.2,0.384-0.356,0.624-0.468c0.239-0.112,0.5-0.168,0.779-0.168
	c0.576,0,1.053,0.144,1.429,0.432C347.38,132.025,347.66,132.425,347.836,132.945z M346.516,136.041
	c0.256-0.384,0.384-0.912,0.384-1.584c0-0.616-0.1-1.112-0.3-1.488c-0.231-0.44-0.611-0.66-1.14-0.66
	c-0.464,0-0.816,0.216-1.056,0.648c-0.192,0.344-0.288,0.848-0.288,1.512c0,0.672,0.104,1.184,0.312,1.536
	c0.232,0.408,0.572,0.612,1.021,0.612C345.928,136.617,346.284,136.425,346.516,136.041z M354.445,133.701
	c0.031,0.328,0.044,0.696,0.035,1.104c0,0.08-0.039,0.12-0.119,0.12h-3.828c-0.032,0-0.048,0.016-0.048,0.048
	c0,0.272,0.023,0.48,0.071,0.624c0.088,0.32,0.265,0.572,0.528,0.756c0.271,0.176,0.612,0.264,1.02,0.264
	c0.593,0,1.049-0.244,1.368-0.732c0.04-0.08,0.092-0.092,0.156-0.036l0.684,0.456c0.057,0.048,0.068,0.1,0.036,0.156
	c-0.224,0.36-0.544,0.644-0.96,0.852c-0.408,0.208-0.872,0.312-1.392,0.312c-0.584,0-1.076-0.128-1.477-0.384
	c-0.399-0.256-0.699-0.62-0.899-1.092c-0.192-0.472-0.288-1.044-0.288-1.716c0-0.584,0.044-1.028,0.132-1.332
	c0.145-0.552,0.432-0.988,0.864-1.308c0.432-0.32,0.956-0.48,1.572-0.48c0.808,0,1.411,0.204,1.812,0.612
	C354.113,132.325,354.356,132.917,354.445,133.701z M351.901,132.309c-0.345,0-0.629,0.088-0.853,0.264
	c-0.224,0.168-0.376,0.396-0.456,0.684c-0.056,0.176-0.092,0.4-0.107,0.672c0,0.032,0.016,0.048,0.048,0.048h2.748
	c0.031,0,0.048-0.016,0.048-0.048c-0.017-0.264-0.04-0.46-0.072-0.588c-0.08-0.312-0.24-0.56-0.479-0.744
	C352.545,132.405,352.253,132.309,351.901,132.309z M358.61,131.349c0.256,0,0.488,0.052,0.696,0.156
	c0.056,0.024,0.076,0.072,0.06,0.144l-0.191,0.9c-0.009,0.072-0.057,0.096-0.145,0.072c-0.136-0.056-0.296-0.084-0.479-0.084
	l-0.168,0.012c-0.376,0.016-0.688,0.148-0.937,0.396c-0.24,0.24-0.359,0.556-0.359,0.948v3.504c0,0.08-0.04,0.12-0.12,0.12h-0.912
	c-0.08,0-0.12-0.04-0.12-0.12v-5.868c0-0.08,0.04-0.12,0.12-0.12h0.912c0.08,0,0.12,0.04,0.12,0.12v0.636
	c0,0.024,0.004,0.04,0.012,0.048c0.016,0,0.028-0.008,0.036-0.024C357.494,131.629,357.986,131.349,358.61,131.349z"/>
<path opacity="0.5" fill="#6E6E6E" enable-background="new    " d="M310.487,145.982c0.048-0.024,0.1-0.036,0.155-0.036h0.948
	c0.08,0,0.12,0.04,0.12,0.12v8.16c0,0.08-0.04,0.12-0.12,0.12h-0.912c-0.08,0-0.12-0.04-0.12-0.12v-7.044
	c0-0.016-0.008-0.028-0.023-0.036c-0.008-0.008-0.021-0.008-0.036,0l-1.26,0.432c-0.017,0.008-0.036,0.012-0.061,0.012
	c-0.048,0-0.076-0.032-0.084-0.096l-0.048-0.684c0-0.08,0.024-0.128,0.072-0.144L310.487,145.982z M314.813,153.29
	c-0.008,0.016-0.008,0.032,0,0.048c0.008,0.008,0.021,0.012,0.036,0.012h3.612c0.08,0,0.12,0.04,0.12,0.12v0.756
	c0,0.08-0.04,0.12-0.12,0.12h-5.028c-0.08,0-0.12-0.04-0.12-0.12v-0.732c0-0.056,0.021-0.104,0.061-0.144
	c0.271-0.312,0.896-1.044,1.872-2.196l0.827-0.996c0.744-0.888,1.116-1.576,1.116-2.064c0-0.376-0.128-0.676-0.384-0.9
	c-0.248-0.232-0.58-0.348-0.996-0.348s-0.748,0.116-0.996,0.348s-0.368,0.536-0.359,0.912v0.36c0,0.08-0.04,0.12-0.12,0.12h-0.924
	c-0.08,0-0.12-0.04-0.12-0.12v-0.516c0.016-0.416,0.132-0.784,0.348-1.104c0.224-0.32,0.524-0.564,0.9-0.732
	c0.376-0.176,0.8-0.264,1.271-0.264c0.512,0,0.96,0.096,1.344,0.288c0.385,0.192,0.681,0.456,0.889,0.792
	c0.208,0.336,0.312,0.716,0.312,1.14c0,0.664-0.359,1.448-1.08,2.352c-0.319,0.408-0.7,0.868-1.14,1.38
	C315.693,152.306,315.254,152.802,314.813,153.29z M322.577,154.466c-0.809,0-1.452-0.228-1.933-0.684
	c-0.472-0.464-0.707-1.084-0.707-1.86v-3.552c0-0.776,0.235-1.392,0.707-1.848c0.48-0.456,1.124-0.684,1.933-0.684
	c0.808,0,1.452,0.228,1.932,0.684c0.488,0.456,0.732,1.072,0.732,1.848v3.552c0,0.776-0.244,1.396-0.732,1.86
	C324.029,154.238,323.385,154.466,322.577,154.466z M322.577,153.47c0.464,0,0.832-0.132,1.104-0.396
	c0.272-0.272,0.408-0.632,0.408-1.08v-3.672c0-0.448-0.136-0.804-0.408-1.068c-0.271-0.272-0.64-0.408-1.104-0.408
	c-0.448,0-0.809,0.136-1.08,0.408c-0.272,0.264-0.408,0.62-0.408,1.068v3.672c0,0.448,0.136,0.808,0.408,1.08
	C321.769,153.338,322.129,153.47,322.577,153.47z M326.397,154.346c-0.048,0-0.079-0.012-0.096-0.036
	c-0.016-0.032-0.012-0.068,0.012-0.108l1.992-2.868c0.017-0.024,0.017-0.048,0-0.072l-1.992-2.88l-0.023-0.06
	c0-0.056,0.036-0.084,0.107-0.084h0.973c0.063,0,0.111,0.024,0.144,0.072l1.404,2.052c0.008,0.008,0.02,0.012,0.036,0.012
	c0.016,0,0.027-0.004,0.036-0.012l1.392-2.052c0.032-0.048,0.08-0.072,0.145-0.072h1.044c0.048,0,0.08,0.016,0.096,0.048
	c0.016,0.024,0.012,0.056-0.012,0.096l-1.992,2.88c-0.008,0.024-0.008,0.048,0,0.072l1.992,2.868l0.023,0.06
	c0,0.056-0.036,0.084-0.107,0.084h-0.984c-0.064,0-0.112-0.024-0.145-0.072l-1.392-2.052c-0.008-0.016-0.02-0.024-0.036-0.024
	c-0.016,0-0.027,0.008-0.036,0.024l-1.403,2.052c-0.032,0.048-0.08,0.072-0.145,0.072H326.397z M337.391,150.206
	c0.224,0.424,0.336,0.932,0.336,1.524c0,0.488-0.08,0.916-0.24,1.284c-0.185,0.456-0.472,0.808-0.864,1.056
	c-0.384,0.24-0.852,0.36-1.404,0.36c-0.592,0-1.096-0.136-1.512-0.408c-0.408-0.272-0.696-0.656-0.864-1.152
	c-0.119-0.336-0.18-0.724-0.18-1.164v-3.696c0-0.656,0.229-1.18,0.684-1.572c0.456-0.392,1.053-0.588,1.788-0.588
	c0.473,0,0.889,0.088,1.248,0.264c0.368,0.176,0.652,0.424,0.853,0.744c0.2,0.312,0.3,0.672,0.3,1.08v0.24
	c0,0.08-0.04,0.12-0.12,0.12h-0.912c-0.08,0-0.12-0.04-0.12-0.12v-0.108c0-0.36-0.115-0.652-0.348-0.876
	c-0.232-0.224-0.532-0.336-0.9-0.336c-0.392,0-0.712,0.116-0.96,0.348c-0.239,0.232-0.359,0.54-0.359,0.924v1.512
	c0,0.016,0.004,0.028,0.012,0.036c0.016,0,0.032-0.008,0.048-0.024c0.344-0.384,0.844-0.576,1.5-0.576
	C336.318,149.078,336.99,149.454,337.391,150.206z M336.395,152.654c0.12-0.256,0.18-0.564,0.18-0.924
	c0-0.408-0.072-0.736-0.216-0.984c-0.232-0.464-0.624-0.696-1.176-0.696c-0.28,0-0.521,0.064-0.721,0.192
	c-0.2,0.12-0.352,0.296-0.456,0.528c-0.128,0.264-0.191,0.604-0.191,1.02c0,0.336,0.052,0.62,0.155,0.852
	c0.104,0.256,0.261,0.452,0.469,0.588c0.208,0.128,0.46,0.192,0.756,0.192C335.778,153.422,336.178,153.166,336.395,152.654z
	 M341.644,154.466c-0.809,0-1.452-0.228-1.933-0.684c-0.472-0.464-0.708-1.084-0.708-1.86v-3.552c0-0.776,0.236-1.392,0.708-1.848
	c0.48-0.456,1.124-0.684,1.933-0.684c0.808,0,1.452,0.228,1.932,0.684c0.488,0.456,0.732,1.072,0.732,1.848v3.552
	c0,0.776-0.244,1.396-0.732,1.86C343.096,154.238,342.451,154.466,341.644,154.466z M341.644,153.47
	c0.464,0,0.832-0.132,1.104-0.396c0.272-0.272,0.408-0.632,0.408-1.08v-3.672c0-0.448-0.136-0.804-0.408-1.068
	c-0.271-0.272-0.64-0.408-1.104-0.408c-0.448,0-0.809,0.136-1.08,0.408c-0.272,0.264-0.408,0.62-0.408,1.068v3.672
	c0,0.448,0.136,0.808,0.408,1.08C340.835,153.338,341.195,153.47,341.644,153.47z M348.44,154.466c-0.809,0-1.452-0.228-1.933-0.684
	c-0.472-0.464-0.707-1.084-0.707-1.86v-3.552c0-0.776,0.235-1.392,0.707-1.848c0.48-0.456,1.124-0.684,1.933-0.684
	c0.808,0,1.452,0.228,1.932,0.684c0.488,0.456,0.732,1.072,0.732,1.848v3.552c0,0.776-0.244,1.396-0.732,1.86
	C349.893,154.238,349.248,154.466,348.44,154.466z M348.44,153.47c0.464,0,0.832-0.132,1.104-0.396
	c0.272-0.272,0.408-0.632,0.408-1.08v-3.672c0-0.448-0.136-0.804-0.408-1.068c-0.271-0.272-0.64-0.408-1.104-0.408
	c-0.448,0-0.809,0.136-1.08,0.408c-0.272,0.264-0.408,0.62-0.408,1.068v3.672c0,0.448,0.136,0.808,0.408,1.08
	C347.632,153.338,347.992,153.47,348.44,153.47z"/>
<rect x="384.096" y="164.955" fill="#F1F1F1" width="61.521" height="172.611"/>
<rect x="391.705" y="171.739" fill="#CCCCCC" width="46.14" height="5.381"/>
<rect x="391.704" y="181.42" fill="#CCCCCC" width="46.14" height="5.381"/>
<rect x="391.704" y="191.101" fill="#CCCCCC" width="46.14" height="5.381"/>
<rect x="391.704" y="200.782" fill="#CCCCCC" width="46.14" height="5.381"/>
<rect x="391.704" y="210.463" fill="#CCCCCC" width="25.834" height="5.382"/>
<rect x="390.979" y="221.059" fill="#2F80ED" width="45.933" height="14.474"/>
<rect x="391.704" y="240.747" fill="#CCCCCC" width="45.207" height="90.277"/>
<path fill="#6E6E6E" d="M384.161,128.799c0.04-0.048,0.088-0.072,0.145-0.072h0.911c0.08,0,0.12,0.04,0.12,0.12v8.16
	c0,0.08-0.04,0.12-0.12,0.12h-0.911c-0.08,0-0.12-0.04-0.12-0.12v-6.144c0-0.024-0.009-0.04-0.024-0.048
	c-0.016-0.008-0.028,0-0.036,0.024l-1.716,2.616c-0.032,0.048-0.08,0.072-0.144,0.072h-0.456c-0.057,0-0.104-0.024-0.145-0.072
	l-1.728-2.592c-0.008-0.024-0.021-0.032-0.036-0.024c-0.017,0.008-0.024,0.024-0.024,0.048v6.12c0,0.08-0.04,0.12-0.12,0.12h-0.911
	c-0.08,0-0.12-0.04-0.12-0.12v-8.16c0-0.08,0.04-0.12,0.12-0.12h0.911c0.064,0,0.112,0.024,0.145,0.072l2.1,3.144
	c0.008,0.008,0.021,0.012,0.036,0.012s0.028-0.004,0.036-0.012L384.161,128.799z M392.104,133.311
	c0.032,0.328,0.044,0.696,0.036,1.104c0,0.08-0.04,0.12-0.12,0.12h-3.828c-0.032,0-0.048,0.016-0.048,0.048
	c0,0.272,0.023,0.48,0.071,0.624c0.089,0.32,0.265,0.572,0.528,0.756c0.272,0.176,0.612,0.264,1.021,0.264
	c0.592,0,1.048-0.244,1.367-0.732c0.04-0.08,0.093-0.092,0.156-0.036l0.685,0.456c0.056,0.048,0.067,0.1,0.036,0.156
	c-0.225,0.36-0.545,0.644-0.961,0.852c-0.407,0.208-0.871,0.312-1.392,0.312c-0.584,0-1.076-0.128-1.476-0.384
	c-0.4-0.256-0.7-0.62-0.9-1.092c-0.192-0.472-0.288-1.044-0.288-1.716c0-0.584,0.044-1.028,0.132-1.332
	c0.145-0.552,0.433-0.988,0.864-1.308c0.432-0.32,0.956-0.48,1.572-0.48c0.808,0,1.412,0.204,1.812,0.612
	C391.771,131.935,392.016,132.527,392.104,133.311z M389.56,131.919c-0.345,0-0.628,0.088-0.853,0.264
	c-0.224,0.168-0.376,0.396-0.456,0.684c-0.056,0.176-0.092,0.4-0.107,0.672c0,0.032,0.016,0.048,0.048,0.048h2.748
	c0.032,0,0.048-0.016,0.048-0.048c-0.016-0.264-0.04-0.46-0.072-0.588c-0.08-0.312-0.239-0.56-0.479-0.744
	C390.203,132.015,389.911,131.919,389.56,131.919z M389.031,130.251c-0.048,0-0.084-0.012-0.108-0.036
	c-0.016-0.032-0.012-0.068,0.013-0.108l0.708-1.296c0.023-0.056,0.071-0.084,0.144-0.084h0.805c0.048,0,0.075,0.016,0.084,0.048
	c0.016,0.024,0.012,0.056-0.013,0.096l-0.852,1.296c-0.04,0.056-0.088,0.084-0.145,0.084H389.031z M397.36,131.139
	c0-0.08,0.04-0.12,0.12-0.12h0.912c0.08,0,0.12,0.04,0.12,0.12v5.676c0,0.968-0.276,1.66-0.828,2.076
	c-0.544,0.416-1.276,0.624-2.196,0.624c-0.128,0-0.328-0.008-0.6-0.024c-0.08-0.008-0.12-0.052-0.12-0.132l0.036-0.828
	c0-0.032,0.012-0.06,0.036-0.084c0.023-0.024,0.056-0.032,0.096-0.024c0.112,0.008,0.276,0.012,0.492,0.012
	c0.68,0,1.172-0.128,1.476-0.384c0.305-0.248,0.456-0.672,0.456-1.272v-0.216c0-0.016-0.008-0.028-0.023-0.036
	c-0.009-0.008-0.021-0.004-0.036,0.012c-0.336,0.392-0.828,0.588-1.477,0.588c-0.52,0-0.991-0.136-1.416-0.408
	c-0.416-0.271-0.703-0.672-0.863-1.2c-0.104-0.352-0.156-0.84-0.156-1.464c0-0.664,0.06-1.176,0.18-1.536
	c0.152-0.48,0.42-0.864,0.805-1.152c0.392-0.296,0.852-0.444,1.38-0.444c0.655,0,1.172,0.2,1.548,0.6
	c0.016,0.016,0.027,0.024,0.036,0.024c0.016-0.008,0.023-0.02,0.023-0.036V131.139z M397.289,135.171
	c0.023-0.128,0.039-0.264,0.048-0.408c0.016-0.144,0.023-0.384,0.023-0.72s-0.008-0.572-0.023-0.708
	c-0.009-0.144-0.028-0.28-0.061-0.408c-0.063-0.296-0.208-0.536-0.432-0.72c-0.224-0.192-0.504-0.288-0.84-0.288
	s-0.616,0.096-0.84,0.288c-0.225,0.184-0.385,0.424-0.48,0.72c-0.088,0.24-0.132,0.612-0.132,1.116c0,0.552,0.04,0.928,0.12,1.128
	c0.08,0.296,0.235,0.54,0.468,0.732c0.24,0.184,0.528,0.276,0.864,0.276c0.352,0,0.636-0.092,0.852-0.276
	C397.081,135.711,397.225,135.467,397.289,135.171z M402.353,130.923c0.487,0,0.912,0.088,1.271,0.264
	c0.368,0.168,0.648,0.408,0.84,0.72c0.2,0.304,0.301,0.652,0.301,1.044v4.056c0,0.08-0.04,0.12-0.12,0.12h-0.912
	c-0.08,0-0.12-0.04-0.12-0.12v-0.432c0-0.04-0.021-0.048-0.061-0.024c-0.208,0.216-0.464,0.384-0.768,0.504
	c-0.296,0.112-0.628,0.168-0.996,0.168c-0.592,0-1.084-0.148-1.476-0.444c-0.385-0.304-0.576-0.76-0.576-1.368
	c0-0.624,0.216-1.112,0.647-1.464c0.44-0.36,1.053-0.54,1.837-0.54h1.344c0.032,0,0.048-0.016,0.048-0.048v-0.324
	c0-0.352-0.104-0.624-0.313-0.816c-0.199-0.2-0.508-0.3-0.924-0.3c-0.336,0-0.611,0.068-0.828,0.204
	c-0.208,0.128-0.336,0.304-0.384,0.528c-0.023,0.08-0.072,0.116-0.144,0.108l-0.973-0.132c-0.08-0.016-0.115-0.048-0.107-0.096
	c0.063-0.472,0.315-0.856,0.756-1.152C401.136,131.075,401.688,130.923,402.353,130.923z M402.04,136.251
	c0.424,0,0.792-0.112,1.104-0.336c0.312-0.224,0.468-0.508,0.468-0.852v-0.708c0-0.032-0.016-0.048-0.048-0.048h-1.128
	c-0.473,0-0.849,0.092-1.128,0.276c-0.28,0.184-0.42,0.44-0.42,0.768c0,0.296,0.104,0.52,0.312,0.672
	C401.416,136.175,401.696,136.251,402.04,136.251z M408.468,137.199c-0.48,0-0.904-0.072-1.272-0.216
	c-0.36-0.144-0.64-0.34-0.84-0.588c-0.2-0.256-0.3-0.536-0.3-0.84v-0.132c0-0.08,0.04-0.12,0.12-0.12h0.863
	c0.08,0,0.12,0.028,0.12,0.084v0.096c0,0.224,0.12,0.42,0.36,0.588c0.248,0.168,0.56,0.252,0.936,0.252
	c0.36,0,0.652-0.076,0.876-0.228c0.225-0.16,0.336-0.36,0.336-0.6c0-0.232-0.104-0.404-0.312-0.516
	c-0.208-0.12-0.544-0.244-1.008-0.372c-0.456-0.128-0.84-0.256-1.152-0.384c-0.304-0.136-0.563-0.324-0.78-0.564
	c-0.208-0.248-0.312-0.564-0.312-0.948c0-0.536,0.208-0.96,0.624-1.272c0.424-0.32,0.983-0.48,1.68-0.48
	c0.464,0,0.872,0.076,1.225,0.228c0.359,0.144,0.636,0.348,0.827,0.612c0.192,0.264,0.288,0.56,0.288,0.888v0.036
	c0,0.08-0.04,0.12-0.12,0.12h-0.84c-0.08,0-0.12-0.028-0.12-0.084v-0.072c0-0.232-0.115-0.424-0.348-0.576
	c-0.224-0.16-0.532-0.24-0.924-0.24c-0.353,0-0.64,0.068-0.864,0.204c-0.216,0.136-0.324,0.32-0.324,0.552s0.104,0.408,0.313,0.528
	c0.216,0.12,0.56,0.248,1.032,0.384c0.464,0.128,0.848,0.256,1.151,0.384c0.313,0.12,0.576,0.304,0.792,0.552
	c0.216,0.24,0.324,0.556,0.324,0.948c0,0.544-0.216,0.976-0.647,1.296C409.747,137.039,409.18,137.199,408.468,137.199z
	 M412.287,137.127c-0.08,0-0.12-0.04-0.12-0.12v-8.16c0-0.08,0.04-0.12,0.12-0.12h0.912c0.08,0,0.12,0.04,0.12,0.12v4.62
	c0,0.016,0.008,0.028,0.023,0.036c0.017,0.008,0.028,0.004,0.036-0.012l2.221-2.412c0.031-0.04,0.079-0.06,0.144-0.06h1.068
	c0.048,0,0.075,0.016,0.084,0.048c0.016,0.024,0.008,0.056-0.024,0.096l-1.548,1.788c-0.017,0.032-0.021,0.056-0.012,0.072
	l1.836,3.96l0.012,0.048c0,0.064-0.036,0.096-0.108,0.096h-0.96c-0.063,0-0.107-0.032-0.132-0.096l-1.428-3.264
	c-0.017-0.04-0.036-0.044-0.061-0.012l-1.128,1.248c-0.016,0.032-0.023,0.052-0.023,0.06v1.944c0,0.08-0.04,0.12-0.12,0.12H412.287z
	 M418.128,139.515c-0.057,0-0.084-0.04-0.084-0.12v-0.708c0-0.08,0.023-0.12,0.071-0.12h0.072c0.32-0.008,0.572-0.048,0.756-0.12
	c0.185-0.072,0.336-0.208,0.456-0.408c0.12-0.192,0.236-0.484,0.349-0.876c0.008-0.008,0.008-0.02,0-0.036c0-0.024,0-0.036,0-0.036
	l-2.004-5.94l-0.013-0.048c0-0.056,0.036-0.084,0.108-0.084h0.972c0.072,0,0.12,0.032,0.145,0.096l1.355,4.524
	c0.008,0.016,0.021,0.024,0.036,0.024s0.028-0.008,0.036-0.024l1.344-4.524c0.024-0.064,0.072-0.096,0.145-0.096h0.947
	c0.089,0,0.12,0.044,0.097,0.132l-2.185,6.396c-0.184,0.552-0.368,0.96-0.552,1.224c-0.184,0.272-0.424,0.464-0.72,0.576
	c-0.296,0.112-0.712,0.168-1.248,0.168H418.128z M426.193,137.223c-0.608,0-1.128-0.152-1.561-0.456
	c-0.432-0.312-0.728-0.732-0.888-1.26c-0.12-0.368-0.18-0.852-0.18-1.452c0-0.552,0.06-1.036,0.18-1.452
	c0.16-0.512,0.456-0.92,0.888-1.224c0.44-0.304,0.96-0.456,1.561-0.456c0.6,0,1.124,0.152,1.572,0.456
	c0.447,0.304,0.739,0.688,0.876,1.152c0.048,0.128,0.08,0.26,0.096,0.396c0,0.064-0.036,0.104-0.108,0.12l-0.899,0.132h-0.024
	c-0.056,0-0.096-0.036-0.12-0.108l-0.036-0.192c-0.063-0.272-0.22-0.5-0.468-0.684s-0.548-0.276-0.899-0.276
	c-0.345,0-0.637,0.092-0.876,0.276c-0.24,0.184-0.396,0.428-0.469,0.732c-0.071,0.288-0.107,0.668-0.107,1.14
	c0,0.464,0.036,0.84,0.107,1.128c0.08,0.32,0.236,0.572,0.469,0.756c0.239,0.184,0.531,0.276,0.876,0.276
	c0.352,0,0.651-0.092,0.899-0.276c0.256-0.184,0.416-0.424,0.48-0.72c0.008-0.008,0.008-0.016,0-0.024
	c0-0.016,0.004-0.028,0.012-0.036v-0.048c0.024-0.064,0.068-0.088,0.132-0.072l0.9,0.144c0.063,0.016,0.096,0.048,0.096,0.096v0.048
	c0,0.072-0.02,0.16-0.06,0.264c-0.137,0.488-0.429,0.88-0.876,1.176C427.317,137.075,426.793,137.223,426.193,137.223z
	 M432.737,130.959c0.256,0,0.488,0.052,0.696,0.156c0.056,0.024,0.076,0.072,0.06,0.144l-0.191,0.9
	c-0.008,0.072-0.056,0.096-0.145,0.072c-0.136-0.056-0.296-0.084-0.479-0.084l-0.168,0.012c-0.376,0.016-0.688,0.148-0.937,0.396
	c-0.239,0.24-0.359,0.556-0.359,0.948v3.504c0,0.08-0.04,0.12-0.12,0.12h-0.912c-0.08,0-0.12-0.04-0.12-0.12v-5.868
	c0-0.08,0.04-0.12,0.12-0.12h0.912c0.08,0,0.12,0.04,0.12,0.12v0.636c0,0.024,0.004,0.04,0.012,0.048
	c0.016,0,0.028-0.008,0.036-0.024C431.622,131.239,432.113,130.959,432.737,130.959z M436.7,130.923
	c0.487,0,0.912,0.088,1.271,0.264c0.368,0.168,0.648,0.408,0.84,0.72c0.2,0.304,0.301,0.652,0.301,1.044v4.056
	c0,0.08-0.04,0.12-0.12,0.12h-0.912c-0.08,0-0.12-0.04-0.12-0.12v-0.432c0-0.04-0.021-0.048-0.06-0.024
	c-0.209,0.216-0.465,0.384-0.769,0.504c-0.296,0.112-0.628,0.168-0.996,0.168c-0.592,0-1.084-0.148-1.476-0.444
	c-0.384-0.304-0.576-0.76-0.576-1.368c0-0.624,0.216-1.112,0.647-1.464c0.44-0.36,1.053-0.54,1.837-0.54h1.344
	c0.032,0,0.048-0.016,0.048-0.048v-0.324c0-0.352-0.104-0.624-0.313-0.816c-0.199-0.2-0.508-0.3-0.924-0.3
	c-0.336,0-0.611,0.068-0.828,0.204c-0.208,0.128-0.336,0.304-0.384,0.528c-0.023,0.08-0.072,0.116-0.144,0.108l-0.973-0.132
	c-0.079-0.016-0.115-0.048-0.107-0.096c0.063-0.472,0.315-0.856,0.756-1.152C435.484,131.075,436.036,130.923,436.7,130.923z
	 M436.388,136.251c0.424,0,0.792-0.112,1.104-0.336c0.312-0.224,0.468-0.508,0.468-0.852v-0.708c0-0.032-0.016-0.048-0.048-0.048
	h-1.128c-0.473,0-0.849,0.092-1.128,0.276c-0.28,0.184-0.42,0.44-0.42,0.768c0,0.296,0.104,0.52,0.312,0.672
	C435.764,136.175,436.044,136.251,436.388,136.251z M445.623,132.555c0.152,0.432,0.229,0.944,0.229,1.536
	c0,0.56-0.064,1.044-0.192,1.452c-0.168,0.536-0.444,0.952-0.828,1.248c-0.384,0.288-0.876,0.432-1.476,0.432
	c-0.272,0-0.532-0.052-0.78-0.156c-0.24-0.112-0.448-0.268-0.624-0.468c-0.016-0.016-0.032-0.02-0.048-0.012
	c-0.008,0.008-0.013,0.02-0.013,0.036v2.676c0,0.08-0.039,0.12-0.119,0.12h-0.912c-0.08,0-0.12-0.04-0.12-0.12v-8.16
	c0-0.08,0.04-0.12,0.12-0.12h0.912c0.08,0,0.119,0.04,0.119,0.12v0.396c0,0.016,0.005,0.028,0.013,0.036
	c0.016,0.008,0.032,0.004,0.048-0.012c0.176-0.2,0.384-0.356,0.624-0.468c0.24-0.112,0.5-0.168,0.78-0.168
	c0.575,0,1.052,0.144,1.428,0.432C445.167,131.635,445.447,132.035,445.623,132.555z M444.303,135.651
	c0.257-0.384,0.385-0.912,0.385-1.584c0-0.616-0.101-1.112-0.301-1.488c-0.231-0.44-0.611-0.66-1.14-0.66
	c-0.464,0-0.816,0.216-1.056,0.648c-0.192,0.344-0.288,0.848-0.288,1.512c0,0.672,0.104,1.184,0.312,1.536
	c0.232,0.408,0.572,0.612,1.021,0.612C443.715,136.227,444.071,136.035,444.303,135.651z M452.232,133.311
	c0.032,0.328,0.044,0.696,0.036,1.104c0,0.08-0.04,0.12-0.12,0.12h-3.828c-0.032,0-0.048,0.016-0.048,0.048
	c0,0.272,0.023,0.48,0.071,0.624c0.089,0.32,0.265,0.572,0.528,0.756c0.272,0.176,0.612,0.264,1.021,0.264
	c0.592,0,1.048-0.244,1.367-0.732c0.04-0.08,0.093-0.092,0.156-0.036l0.685,0.456c0.056,0.048,0.067,0.1,0.035,0.156
	c-0.224,0.36-0.544,0.644-0.96,0.852c-0.407,0.208-0.871,0.312-1.392,0.312c-0.584,0-1.076-0.128-1.476-0.384
	c-0.4-0.256-0.7-0.62-0.9-1.092c-0.192-0.472-0.288-1.044-0.288-1.716c0-0.584,0.044-1.028,0.132-1.332
	c0.145-0.552,0.433-0.988,0.864-1.308c0.432-0.32,0.956-0.48,1.572-0.48c0.808,0,1.412,0.204,1.812,0.612
	C451.9,131.935,452.145,132.527,452.232,133.311z M449.688,131.919c-0.345,0-0.628,0.088-0.853,0.264
	c-0.224,0.168-0.376,0.396-0.456,0.684c-0.056,0.176-0.092,0.4-0.107,0.672c0,0.032,0.016,0.048,0.048,0.048h2.748
	c0.032,0,0.048-0.016,0.048-0.048c-0.016-0.264-0.04-0.46-0.072-0.588c-0.08-0.312-0.239-0.56-0.479-0.744
	C450.332,132.015,450.04,131.919,449.688,131.919z M456.397,130.959c0.257,0,0.488,0.052,0.696,0.156
	c0.056,0.024,0.076,0.072,0.061,0.144l-0.192,0.9c-0.008,0.072-0.056,0.096-0.145,0.072c-0.136-0.056-0.296-0.084-0.479-0.084
	l-0.168,0.012c-0.376,0.016-0.688,0.148-0.937,0.396c-0.239,0.24-0.359,0.556-0.359,0.948v3.504c0,0.08-0.04,0.12-0.12,0.12h-0.912
	c-0.08,0-0.12-0.04-0.12-0.12v-5.868c0-0.08,0.04-0.12,0.12-0.12h0.912c0.08,0,0.12,0.04,0.12,0.12v0.636
	c0,0.024,0.004,0.04,0.012,0.048c0.016,0,0.028-0.008,0.036-0.024C455.282,131.239,455.773,130.959,456.397,130.959z"/>
<path opacity="0.5" fill="#6E6E6E" enable-background="new    " d="M395.317,143.818c0.048-0.024,0.1-0.036,0.156-0.036h0.948
	c0.079,0,0.119,0.04,0.119,0.12v8.16c0,0.08-0.04,0.12-0.119,0.12h-0.912c-0.08,0-0.12-0.04-0.12-0.12v-7.044
	c0-0.016-0.008-0.028-0.024-0.036c-0.008-0.008-0.02-0.008-0.036,0l-1.26,0.432c-0.016,0.008-0.036,0.012-0.06,0.012
	c-0.049,0-0.076-0.032-0.084-0.096l-0.049-0.684c0-0.08,0.024-0.128,0.072-0.144L395.317,143.818z M402.908,148.042
	c0.224,0.424,0.336,0.932,0.336,1.524c0,0.488-0.08,0.916-0.24,1.284c-0.184,0.456-0.472,0.808-0.864,1.056
	c-0.384,0.24-0.852,0.36-1.403,0.36c-0.592,0-1.097-0.136-1.513-0.408c-0.407-0.272-0.695-0.656-0.863-1.152
	c-0.12-0.336-0.181-0.724-0.181-1.164v-3.696c0-0.656,0.229-1.18,0.685-1.572s1.052-0.588,1.788-0.588
	c0.472,0,0.888,0.088,1.248,0.264c0.368,0.176,0.651,0.424,0.852,0.744c0.2,0.312,0.3,0.672,0.3,1.08v0.24
	c0,0.08-0.04,0.12-0.12,0.12h-0.911c-0.08,0-0.12-0.04-0.12-0.12v-0.108c0-0.36-0.116-0.652-0.349-0.876
	c-0.231-0.224-0.531-0.336-0.899-0.336c-0.393,0-0.712,0.116-0.96,0.348c-0.24,0.232-0.36,0.54-0.36,0.924v1.512
	c0,0.016,0.004,0.028,0.012,0.036c0.017,0,0.032-0.008,0.049-0.024c0.344-0.384,0.844-0.576,1.5-0.576
	C401.836,146.914,402.508,147.29,402.908,148.042z M401.912,150.49c0.12-0.256,0.18-0.564,0.18-0.924
	c0-0.408-0.071-0.736-0.216-0.984c-0.231-0.464-0.624-0.696-1.176-0.696c-0.28,0-0.521,0.064-0.72,0.192
	c-0.2,0.12-0.353,0.296-0.456,0.528c-0.128,0.264-0.192,0.604-0.192,1.02c0,0.336,0.052,0.62,0.156,0.852
	c0.104,0.256,0.26,0.452,0.468,0.588c0.208,0.128,0.46,0.192,0.756,0.192C401.296,151.258,401.696,151.002,401.912,150.49z
	 M407.161,152.302c-0.808,0-1.452-0.228-1.932-0.684c-0.472-0.464-0.708-1.084-0.708-1.86v-3.552c0-0.776,0.236-1.392,0.708-1.848
	c0.479-0.456,1.124-0.684,1.932-0.684c0.809,0,1.452,0.228,1.933,0.684c0.487,0.456,0.731,1.072,0.731,1.848v3.552
	c0,0.776-0.244,1.396-0.731,1.86C408.613,152.074,407.97,152.302,407.161,152.302z M407.161,151.306
	c0.464,0,0.832-0.132,1.104-0.396c0.271-0.272,0.408-0.632,0.408-1.08v-3.672c0-0.448-0.137-0.804-0.408-1.068
	c-0.272-0.272-0.641-0.408-1.104-0.408c-0.448,0-0.808,0.136-1.08,0.408c-0.271,0.264-0.407,0.62-0.407,1.068v3.672
	c0,0.448,0.136,0.808,0.407,1.08C406.354,151.174,406.713,151.306,407.161,151.306z M410.982,152.182
	c-0.048,0-0.08-0.012-0.097-0.036c-0.016-0.032-0.012-0.068,0.013-0.108l1.992-2.868c0.016-0.024,0.016-0.048,0-0.072l-1.992-2.88
	l-0.024-0.06c0-0.056,0.036-0.084,0.108-0.084h0.972c0.064,0,0.112,0.024,0.145,0.072l1.403,2.052
	c0.008,0.008,0.021,0.012,0.036,0.012c0.017,0,0.028-0.004,0.036-0.012l1.392-2.052c0.032-0.048,0.08-0.072,0.145-0.072h1.044
	c0.048,0,0.08,0.016,0.096,0.048c0.017,0.024,0.012,0.056-0.012,0.096l-1.992,2.88c-0.008,0.024-0.008,0.048,0,0.072l1.992,2.868
	l0.023,0.06c0,0.056-0.035,0.084-0.107,0.084h-0.984c-0.063,0-0.111-0.024-0.144-0.072l-1.393-2.052
	c-0.008-0.016-0.02-0.024-0.035-0.024c-0.017,0-0.028,0.008-0.036,0.024l-1.404,2.052c-0.032,0.048-0.08,0.072-0.144,0.072H410.982z
	 M421.975,148.042c0.224,0.424,0.336,0.932,0.336,1.524c0,0.488-0.08,0.916-0.24,1.284c-0.184,0.456-0.472,0.808-0.864,1.056
	c-0.384,0.24-0.852,0.36-1.403,0.36c-0.592,0-1.097-0.136-1.513-0.408c-0.407-0.272-0.695-0.656-0.863-1.152
	c-0.12-0.336-0.181-0.724-0.181-1.164v-3.696c0-0.656,0.229-1.18,0.685-1.572s1.052-0.588,1.788-0.588
	c0.472,0,0.888,0.088,1.248,0.264c0.368,0.176,0.651,0.424,0.852,0.744c0.2,0.312,0.3,0.672,0.3,1.08v0.24
	c0,0.08-0.04,0.12-0.12,0.12h-0.911c-0.08,0-0.12-0.04-0.12-0.12v-0.108c0-0.36-0.116-0.652-0.349-0.876
	c-0.231-0.224-0.531-0.336-0.899-0.336c-0.393,0-0.712,0.116-0.96,0.348c-0.24,0.232-0.36,0.54-0.36,0.924v1.512
	c0,0.016,0.004,0.028,0.012,0.036c0.017,0,0.032-0.008,0.049-0.024c0.344-0.384,0.844-0.576,1.5-0.576
	C420.902,146.914,421.574,147.29,421.975,148.042z M420.979,150.49c0.12-0.256,0.18-0.564,0.18-0.924
	c0-0.408-0.071-0.736-0.216-0.984c-0.231-0.464-0.624-0.696-1.176-0.696c-0.28,0-0.521,0.064-0.72,0.192
	c-0.2,0.12-0.353,0.296-0.456,0.528c-0.128,0.264-0.192,0.604-0.192,1.02c0,0.336,0.052,0.62,0.156,0.852
	c0.104,0.256,0.26,0.452,0.468,0.588c0.208,0.128,0.46,0.192,0.756,0.192C420.362,151.258,420.763,151.002,420.979,150.49z
	 M426.228,152.302c-0.808,0-1.452-0.228-1.932-0.684c-0.472-0.464-0.708-1.084-0.708-1.86v-3.552c0-0.776,0.236-1.392,0.708-1.848
	c0.479-0.456,1.124-0.684,1.932-0.684c0.809,0,1.452,0.228,1.933,0.684c0.487,0.456,0.731,1.072,0.731,1.848v3.552
	c0,0.776-0.244,1.396-0.731,1.86C427.68,152.074,427.036,152.302,426.228,152.302z M426.228,151.306
	c0.464,0,0.832-0.132,1.104-0.396c0.271-0.272,0.408-0.632,0.408-1.08v-3.672c0-0.448-0.137-0.804-0.408-1.068
	c-0.272-0.272-0.641-0.408-1.104-0.408c-0.448,0-0.808,0.136-1.08,0.408c-0.271,0.264-0.407,0.62-0.407,1.068v3.672
	c0,0.448,0.136,0.808,0.407,1.08C425.42,151.174,425.779,151.306,426.228,151.306z M433.024,152.302
	c-0.808,0-1.452-0.228-1.932-0.684c-0.472-0.464-0.708-1.084-0.708-1.86v-3.552c0-0.776,0.236-1.392,0.708-1.848
	c0.479-0.456,1.124-0.684,1.932-0.684c0.809,0,1.452,0.228,1.933,0.684c0.487,0.456,0.731,1.072,0.731,1.848v3.552
	c0,0.776-0.244,1.396-0.731,1.86C434.477,152.074,433.833,152.302,433.024,152.302z M433.024,151.306
	c0.464,0,0.832-0.132,1.104-0.396c0.271-0.272,0.407-0.632,0.407-1.08v-3.672c0-0.448-0.136-0.804-0.407-1.068
	c-0.272-0.272-0.641-0.408-1.104-0.408c-0.448,0-0.808,0.136-1.08,0.408c-0.271,0.264-0.408,0.62-0.408,1.068v3.672
	c0,0.448,0.137,0.808,0.408,1.08C432.217,151.174,432.576,151.306,433.024,151.306z"/>
<path fill="#6E6E6E" d="M464.396,371.255c0.039-0.048,0.088-0.071,0.144-0.071h0.912c0.08,0,0.12,0.039,0.12,0.119v8.16
	c0,0.08-0.04,0.12-0.12,0.12h-0.912c-0.08,0-0.12-0.04-0.12-0.12v-6.145c0-0.023-0.008-0.039-0.023-0.047
	c-0.017-0.008-0.028,0-0.036,0.023l-1.717,2.616c-0.031,0.048-0.079,0.071-0.144,0.071h-0.456c-0.056,0-0.104-0.023-0.144-0.071
	l-1.729-2.593c-0.008-0.023-0.02-0.031-0.036-0.023c-0.016,0.008-0.023,0.023-0.023,0.048v6.12c0,0.08-0.04,0.12-0.12,0.12h-0.912
	c-0.08,0-0.12-0.04-0.12-0.12v-8.16c0-0.08,0.04-0.119,0.12-0.119h0.912c0.063,0,0.111,0.023,0.144,0.071l2.101,3.144
	c0.008,0.009,0.02,0.013,0.036,0.013c0.016,0,0.027-0.004,0.035-0.013L464.396,371.255z M472.338,375.768
	c0.032,0.328,0.044,0.695,0.036,1.104c0,0.08-0.04,0.12-0.12,0.12h-3.828c-0.031,0-0.048,0.016-0.048,0.048
	c0,0.271,0.024,0.48,0.072,0.624c0.088,0.319,0.264,0.571,0.528,0.756c0.271,0.177,0.611,0.265,1.02,0.265
	c0.592,0,1.048-0.244,1.368-0.732c0.04-0.08,0.092-0.092,0.156-0.036l0.684,0.456c0.056,0.048,0.068,0.1,0.036,0.156
	c-0.224,0.359-0.544,0.644-0.96,0.852c-0.408,0.208-0.872,0.313-1.393,0.313c-0.584,0-1.075-0.129-1.476-0.385s-0.7-0.619-0.9-1.092
	c-0.191-0.472-0.287-1.044-0.287-1.716c0-0.584,0.044-1.028,0.132-1.332c0.144-0.552,0.432-0.987,0.863-1.308
	c0.433-0.32,0.956-0.48,1.572-0.48c0.809,0,1.412,0.204,1.813,0.612C472.006,374.391,472.25,374.982,472.338,375.768z
	 M469.794,374.375c-0.344,0-0.628,0.088-0.852,0.264c-0.225,0.168-0.376,0.396-0.456,0.685c-0.057,0.176-0.092,0.399-0.108,0.672
	c0,0.032,0.017,0.048,0.048,0.048h2.748c0.032,0,0.048-0.016,0.048-0.048c-0.016-0.265-0.04-0.46-0.071-0.588
	c-0.08-0.312-0.24-0.56-0.48-0.744C470.438,374.471,470.146,374.375,469.794,374.375z M469.266,372.707
	c-0.048,0-0.084-0.012-0.107-0.036c-0.016-0.032-0.012-0.067,0.012-0.108l0.708-1.295c0.024-0.057,0.072-0.084,0.145-0.084h0.804
	c0.048,0,0.076,0.016,0.084,0.047c0.016,0.024,0.012,0.057-0.012,0.097l-0.853,1.296c-0.04,0.057-0.088,0.084-0.144,0.084H469.266z
	 M477.596,373.596c0-0.08,0.04-0.121,0.12-0.121h0.911c0.08,0,0.12,0.041,0.12,0.121v5.676c0,0.968-0.275,1.66-0.828,2.076
	c-0.544,0.416-1.275,0.623-2.195,0.623c-0.128,0-0.328-0.008-0.601-0.023c-0.08-0.008-0.119-0.053-0.119-0.133l0.035-0.828
	c0-0.031,0.013-0.06,0.036-0.084c0.024-0.023,0.057-0.031,0.097-0.023c0.111,0.008,0.275,0.012,0.491,0.012
	c0.681,0,1.172-0.127,1.477-0.384c0.304-0.248,0.456-0.672,0.456-1.272v-0.215c0-0.017-0.008-0.028-0.024-0.037
	c-0.008-0.008-0.02-0.004-0.036,0.013c-0.336,0.392-0.828,0.588-1.476,0.588c-0.521,0-0.992-0.136-1.416-0.408
	c-0.416-0.272-0.704-0.672-0.864-1.2c-0.104-0.352-0.156-0.84-0.156-1.463c0-0.664,0.061-1.177,0.181-1.537
	c0.151-0.479,0.42-0.863,0.804-1.151c0.392-0.296,0.852-0.444,1.38-0.444c0.656,0,1.172,0.2,1.548,0.6
	c0.017,0.017,0.028,0.024,0.036,0.024c0.017-0.008,0.024-0.021,0.024-0.036V373.596z M477.523,377.627
	c0.024-0.128,0.04-0.264,0.048-0.408c0.017-0.144,0.024-0.384,0.024-0.72s-0.008-0.572-0.024-0.708
	c-0.008-0.145-0.028-0.279-0.06-0.408c-0.064-0.296-0.208-0.535-0.433-0.72c-0.224-0.192-0.504-0.288-0.84-0.288
	s-0.616,0.096-0.84,0.288c-0.224,0.185-0.384,0.424-0.48,0.72c-0.088,0.24-0.132,0.612-0.132,1.116c0,0.552,0.04,0.928,0.12,1.128
	c0.08,0.296,0.236,0.54,0.468,0.732c0.24,0.184,0.528,0.275,0.864,0.275c0.353,0,0.636-0.092,0.853-0.275
	C477.315,378.167,477.459,377.923,477.523,377.627z M482.587,373.379c0.488,0,0.912,0.088,1.272,0.264
	c0.368,0.168,0.647,0.408,0.84,0.721c0.2,0.304,0.3,0.652,0.3,1.044v4.056c0,0.08-0.04,0.12-0.12,0.12h-0.912
	c-0.08,0-0.12-0.04-0.12-0.12v-0.432c0-0.04-0.02-0.049-0.06-0.024c-0.208,0.216-0.464,0.384-0.768,0.505
	c-0.297,0.111-0.629,0.168-0.996,0.168c-0.593,0-1.084-0.148-1.477-0.445c-0.384-0.303-0.576-0.76-0.576-1.367
	c0-0.624,0.217-1.112,0.648-1.465c0.44-0.359,1.052-0.539,1.836-0.539h1.344c0.032,0,0.048-0.016,0.048-0.049v-0.323
	c0-0.353-0.104-0.624-0.312-0.816c-0.2-0.2-0.508-0.3-0.924-0.3c-0.336,0-0.612,0.068-0.828,0.204
	c-0.208,0.128-0.336,0.304-0.384,0.528c-0.024,0.08-0.072,0.115-0.145,0.107l-0.972-0.132c-0.08-0.017-0.116-0.048-0.108-0.097
	c0.064-0.471,0.316-0.855,0.756-1.151C481.371,373.531,481.923,373.379,482.587,373.379z M482.275,378.707
	c0.424,0,0.792-0.111,1.104-0.336c0.313-0.225,0.468-0.508,0.468-0.852v-0.709c0-0.031-0.016-0.047-0.048-0.047h-1.128
	c-0.472,0-0.848,0.092-1.128,0.275s-0.42,0.439-0.42,0.768c0,0.297,0.104,0.521,0.313,0.672
	C481.651,378.631,481.931,378.707,482.275,378.707z M491.486,375.059c0.128,0.408,0.192,0.893,0.192,1.453
	c0,0.6-0.076,1.111-0.229,1.535c-0.176,0.52-0.456,0.924-0.84,1.212c-0.376,0.28-0.853,0.421-1.428,0.421
	c-0.28,0-0.54-0.057-0.78-0.168c-0.24-0.113-0.448-0.269-0.624-0.469c-0.016-0.016-0.032-0.02-0.048-0.012
	c-0.008,0.008-0.012,0.02-0.012,0.035v0.396c0,0.08-0.04,0.12-0.12,0.12h-0.912c-0.08,0-0.12-0.04-0.12-0.12v-8.16
	c0-0.08,0.04-0.119,0.12-0.119h0.912c0.08,0,0.12,0.039,0.12,0.119v2.676c0,0.017,0.004,0.028,0.012,0.037
	c0.016,0.008,0.032,0.004,0.048-0.013c0.176-0.2,0.384-0.353,0.624-0.456c0.248-0.111,0.508-0.168,0.78-0.168
	c0.6,0,1.092,0.148,1.476,0.444S491.318,374.531,491.486,375.059z M490.214,378.023c0.2-0.377,0.301-0.873,0.301-1.488
	c0-0.656-0.128-1.184-0.385-1.584c-0.231-0.385-0.588-0.576-1.067-0.576c-0.448,0-0.788,0.204-1.021,0.611
	c-0.208,0.369-0.312,0.881-0.312,1.537s0.096,1.16,0.288,1.512c0.239,0.432,0.592,0.648,1.056,0.648
	C489.603,378.684,489.982,378.463,490.214,378.023z M495.419,373.379c0.488,0,0.912,0.088,1.272,0.264
	c0.368,0.168,0.647,0.408,0.84,0.721c0.2,0.304,0.3,0.652,0.3,1.044v4.056c0,0.08-0.04,0.12-0.12,0.12h-0.912
	c-0.08,0-0.12-0.04-0.12-0.12v-0.432c0-0.04-0.02-0.049-0.06-0.024c-0.208,0.216-0.464,0.384-0.768,0.505
	c-0.297,0.111-0.629,0.168-0.996,0.168c-0.593,0-1.084-0.148-1.477-0.445c-0.384-0.303-0.576-0.76-0.576-1.367
	c0-0.624,0.217-1.112,0.648-1.465c0.439-0.359,1.052-0.539,1.836-0.539h1.344c0.032,0,0.048-0.016,0.048-0.049v-0.323
	c0-0.353-0.104-0.624-0.312-0.816c-0.2-0.2-0.508-0.3-0.924-0.3c-0.336,0-0.612,0.068-0.828,0.204
	c-0.208,0.128-0.336,0.304-0.384,0.528c-0.024,0.08-0.072,0.115-0.145,0.107l-0.972-0.132c-0.08-0.017-0.116-0.048-0.108-0.097
	c0.064-0.471,0.316-0.855,0.756-1.151C494.203,373.531,494.755,373.379,495.419,373.379z M495.107,378.707
	c0.424,0,0.792-0.111,1.104-0.336c0.313-0.225,0.468-0.508,0.468-0.852v-0.709c0-0.031-0.016-0.047-0.048-0.047h-1.128
	c-0.472,0-0.848,0.092-1.128,0.275s-0.42,0.439-0.42,0.768c0,0.297,0.104,0.521,0.313,0.672
	C494.483,378.631,494.763,378.707,495.107,378.707z M502.11,373.391c0.656,0,1.176,0.192,1.56,0.576
	c0.385,0.376,0.576,0.889,0.576,1.536v3.96c0,0.08-0.04,0.12-0.12,0.12h-0.912c-0.079,0-0.119-0.04-0.119-0.12v-3.732
	c0-0.399-0.116-0.724-0.349-0.972c-0.231-0.247-0.54-0.372-0.924-0.372c-0.376,0-0.684,0.125-0.924,0.372
	c-0.24,0.248-0.36,0.568-0.36,0.96v3.744c0,0.08-0.04,0.12-0.12,0.12h-0.912c-0.079,0-0.119-0.04-0.119-0.12v-5.867
	c0-0.08,0.04-0.121,0.119-0.121h0.912c0.08,0,0.12,0.041,0.12,0.121v0.432c0,0.016,0.004,0.027,0.013,0.035
	c0.016,0.008,0.027,0.004,0.035-0.012C500.931,373.611,501.438,373.391,502.11,373.391z M508.614,373.391
	c0.656,0,1.176,0.192,1.56,0.576c0.385,0.376,0.576,0.889,0.576,1.536v3.96c0,0.08-0.04,0.12-0.12,0.12h-0.912
	c-0.079,0-0.119-0.04-0.119-0.12v-3.732c0-0.399-0.116-0.724-0.349-0.972c-0.231-0.247-0.54-0.372-0.924-0.372
	c-0.376,0-0.684,0.125-0.924,0.372c-0.24,0.248-0.36,0.568-0.36,0.96v3.744c0,0.08-0.04,0.12-0.12,0.12h-0.912
	c-0.079,0-0.119-0.04-0.119-0.12v-5.867c0-0.08,0.04-0.121,0.119-0.121h0.912c0.08,0,0.12,0.041,0.12,0.121v0.432
	c0,0.016,0.004,0.027,0.013,0.035c0.016,0.008,0.027,0.004,0.035-0.012C507.435,373.611,507.942,373.391,508.614,373.391z
	 M513.09,372.516c-0.224,0-0.408-0.072-0.552-0.217s-0.216-0.328-0.216-0.552s0.072-0.408,0.216-0.552
	c0.144-0.145,0.328-0.217,0.552-0.217c0.225,0,0.408,0.072,0.553,0.217c0.144,0.144,0.216,0.328,0.216,0.552
	s-0.072,0.407-0.216,0.552C513.498,372.443,513.314,372.516,513.09,372.516z M512.61,379.57c-0.08,0-0.12-0.039-0.12-0.119v-5.855
	c0-0.08,0.04-0.121,0.12-0.121h0.912c0.08,0,0.12,0.041,0.12,0.121v5.855c0,0.08-0.04,0.119-0.12,0.119H512.61z M520.396,375.768
	c0.032,0.328,0.044,0.695,0.036,1.104c0,0.08-0.04,0.12-0.12,0.12h-3.828c-0.031,0-0.048,0.016-0.048,0.048
	c0,0.271,0.024,0.48,0.072,0.624c0.088,0.319,0.264,0.571,0.528,0.756c0.271,0.177,0.611,0.265,1.02,0.265
	c0.592,0,1.048-0.244,1.368-0.732c0.04-0.08,0.092-0.092,0.156-0.036l0.684,0.456c0.056,0.048,0.068,0.1,0.036,0.156
	c-0.224,0.359-0.544,0.644-0.96,0.852c-0.408,0.208-0.872,0.313-1.392,0.313c-0.585,0-1.076-0.129-1.477-0.385s-0.7-0.619-0.9-1.092
	c-0.191-0.472-0.287-1.044-0.287-1.716c0-0.584,0.044-1.028,0.132-1.332c0.144-0.552,0.432-0.987,0.863-1.308
	c0.433-0.32,0.956-0.48,1.572-0.48c0.809,0,1.412,0.204,1.813,0.612C520.064,374.391,520.309,374.982,520.396,375.768z
	 M517.853,374.375c-0.344,0-0.628,0.088-0.852,0.264c-0.225,0.168-0.376,0.396-0.456,0.685c-0.057,0.176-0.092,0.399-0.108,0.672
	c0,0.032,0.017,0.048,0.048,0.048h2.748c0.032,0,0.048-0.016,0.048-0.048c-0.016-0.265-0.04-0.46-0.071-0.588
	c-0.08-0.312-0.24-0.56-0.48-0.744C518.497,374.471,518.205,374.375,517.853,374.375z M518.272,372.563
	c0.008,0.017,0.013,0.037,0.013,0.061s-0.013,0.044-0.036,0.061c-0.017,0.016-0.04,0.023-0.072,0.023h-0.648
	c-0.056,0-0.104-0.027-0.144-0.084l-0.84-1.296c-0.017-0.032-0.024-0.056-0.024-0.072c0-0.048,0.032-0.071,0.097-0.071h0.804
	c0.072,0,0.12,0.027,0.144,0.084L518.272,372.563z M524.574,373.415c0.256,0,0.488,0.052,0.695,0.155
	c0.057,0.025,0.076,0.072,0.061,0.145l-0.192,0.9c-0.008,0.072-0.056,0.096-0.144,0.072c-0.136-0.057-0.296-0.084-0.48-0.084
	l-0.168,0.012c-0.376,0.016-0.688,0.148-0.936,0.396c-0.24,0.239-0.36,0.555-0.36,0.947v3.504c0,0.08-0.04,0.12-0.12,0.12h-0.912
	c-0.08,0-0.119-0.04-0.119-0.12v-5.867c0-0.08,0.039-0.121,0.119-0.121h0.912c0.08,0,0.12,0.041,0.12,0.121v0.635
	c0,0.024,0.004,0.041,0.013,0.049c0.016,0,0.027-0.008,0.035-0.024C523.458,373.695,523.95,373.415,524.574,373.415z
	 M531.201,375.768c0.032,0.328,0.044,0.695,0.036,1.104c0,0.08-0.04,0.12-0.12,0.12h-3.828c-0.031,0-0.048,0.016-0.048,0.048
	c0,0.271,0.024,0.48,0.072,0.624c0.088,0.319,0.264,0.571,0.528,0.756c0.271,0.177,0.611,0.265,1.02,0.265
	c0.592,0,1.048-0.244,1.368-0.732c0.04-0.08,0.092-0.092,0.156-0.036l0.684,0.456c0.056,0.048,0.068,0.1,0.036,0.156
	c-0.224,0.359-0.544,0.644-0.96,0.852c-0.408,0.208-0.872,0.313-1.392,0.313c-0.584,0-1.076-0.129-1.477-0.385s-0.7-0.619-0.9-1.092
	c-0.191-0.472-0.287-1.044-0.287-1.716c0-0.584,0.044-1.028,0.132-1.332c0.144-0.552,0.432-0.987,0.863-1.308
	c0.433-0.32,0.956-0.48,1.572-0.48c0.809,0,1.412,0.204,1.813,0.612C530.869,374.391,531.113,374.982,531.201,375.768z
	 M528.657,374.375c-0.344,0-0.628,0.088-0.852,0.264c-0.225,0.168-0.376,0.396-0.456,0.685c-0.057,0.176-0.092,0.399-0.108,0.672
	c0,0.032,0.017,0.048,0.048,0.048h2.748c0.032,0,0.048-0.016,0.048-0.048c-0.016-0.265-0.04-0.46-0.071-0.588
	c-0.08-0.312-0.24-0.56-0.48-0.744C529.302,374.471,529.01,374.375,528.657,374.375z"/>
<path opacity="0.5" fill="#6E6E6E" enable-background="new    " d="M459.55,399.625c-0.04,0-0.072-0.012-0.096-0.036
	c-0.017-0.032-0.017-0.067,0-0.107l2.724-7.2c0.008-0.016,0.008-0.028,0-0.036c-0.008-0.017-0.02-0.024-0.036-0.024h-2.892
	c-0.032,0-0.048,0.016-0.048,0.049v0.563c0,0.08-0.04,0.12-0.12,0.12h-0.72c-0.08,0-0.12-0.04-0.12-0.12v-1.487
	c0-0.08,0.04-0.121,0.12-0.121h4.932c0.08,0,0.12,0.041,0.12,0.121v0.803c0,0.033-0.008,0.08-0.024,0.145l-2.712,7.236
	c-0.023,0.063-0.067,0.096-0.132,0.096H459.55z M465.795,398.569c-0.008,0.016-0.008,0.031,0,0.048
	c0.009,0.008,0.021,0.012,0.036,0.012h3.612c0.08,0,0.12,0.04,0.12,0.12v0.756c0,0.08-0.04,0.12-0.12,0.12h-5.028
	c-0.08,0-0.12-0.04-0.12-0.12v-0.731c0-0.057,0.021-0.104,0.061-0.145c0.271-0.312,0.896-1.044,1.872-2.196l0.828-0.995
	c0.744-0.889,1.115-1.576,1.115-2.064c0-0.376-0.128-0.676-0.384-0.9c-0.248-0.231-0.58-0.348-0.996-0.348s-0.748,0.116-0.996,0.348
	c-0.248,0.232-0.367,0.536-0.359,0.912v0.36c0,0.08-0.04,0.12-0.12,0.12h-0.924c-0.08,0-0.12-0.04-0.12-0.12v-0.517
	c0.016-0.416,0.132-0.783,0.348-1.104c0.225-0.32,0.524-0.564,0.9-0.732c0.376-0.176,0.8-0.264,1.271-0.264
	c0.513,0,0.96,0.096,1.345,0.288c0.384,0.192,0.68,0.456,0.888,0.792s0.312,0.716,0.312,1.141c0,0.664-0.359,1.447-1.08,2.352
	c-0.319,0.408-0.699,0.868-1.14,1.38C466.676,397.585,466.235,398.081,465.795,398.569z M475.623,396.037
	c0.168,0.336,0.252,0.736,0.252,1.2c0,0.512-0.112,0.96-0.336,1.344c-0.192,0.36-0.48,0.64-0.864,0.84
	c-0.376,0.2-0.82,0.3-1.332,0.3s-0.964-0.1-1.356-0.3c-0.392-0.208-0.688-0.504-0.888-0.888c-0.216-0.376-0.324-0.813-0.324-1.309
	c0-0.439,0.088-0.844,0.265-1.212c0.176-0.368,0.436-0.644,0.779-0.827c0.04-0.017,0.04-0.037,0-0.061
	c-0.256-0.191-0.447-0.393-0.575-0.6c-0.225-0.336-0.337-0.721-0.337-1.152c0-0.473,0.137-0.904,0.408-1.296
	c0.2-0.304,0.477-0.544,0.828-0.72c0.36-0.176,0.76-0.265,1.2-0.265c0.448,0,0.844,0.089,1.188,0.265
	c0.345,0.176,0.616,0.416,0.816,0.72c0.264,0.392,0.396,0.823,0.396,1.296c0,0.432-0.112,0.824-0.337,1.176
	c-0.144,0.225-0.332,0.416-0.563,0.576c-0.04,0.023-0.04,0.044,0,0.061C475.179,395.369,475.438,395.652,475.623,396.037z
	 M472.215,392.761c-0.112,0.208-0.168,0.412-0.168,0.612c0,0.32,0.076,0.588,0.228,0.804c0.216,0.36,0.568,0.54,1.057,0.54
	c0.479,0,0.836-0.184,1.067-0.552c0.137-0.192,0.204-0.46,0.204-0.804c0-0.225-0.052-0.428-0.156-0.612
	c-0.104-0.2-0.252-0.36-0.443-0.479c-0.192-0.121-0.42-0.181-0.685-0.181c-0.248,0-0.468,0.06-0.66,0.181
	C472.467,392.389,472.318,392.553,472.215,392.761z M474.435,398.173c0.185-0.256,0.276-0.6,0.276-1.032
	c0-0.384-0.068-0.699-0.204-0.947c-0.225-0.416-0.616-0.625-1.176-0.625c-0.544,0-0.929,0.197-1.152,0.589
	c-0.152,0.256-0.228,0.588-0.228,0.996c0,0.399,0.084,0.728,0.252,0.983c0.231,0.385,0.611,0.576,1.14,0.576
	C473.839,398.713,474.203,398.533,474.435,398.173z M476.911,399.625c-0.048,0-0.08-0.012-0.097-0.036
	c-0.016-0.032-0.012-0.067,0.013-0.107l1.991-2.868c0.017-0.024,0.017-0.048,0-0.072l-1.991-2.88l-0.024-0.06
	c0-0.057,0.036-0.084,0.108-0.084h0.972c0.064,0,0.112,0.023,0.144,0.071l1.404,2.052c0.008,0.008,0.021,0.012,0.036,0.012
	s0.028-0.004,0.036-0.012l1.392-2.052c0.032-0.048,0.08-0.071,0.145-0.071h1.044c0.048,0,0.08,0.016,0.096,0.047
	c0.016,0.024,0.012,0.057-0.012,0.097l-1.992,2.88c-0.008,0.024-0.008,0.048,0,0.072l1.992,2.868l0.023,0.06
	c0,0.056-0.036,0.084-0.107,0.084h-0.984c-0.063,0-0.112-0.024-0.144-0.072l-1.393-2.052c-0.008-0.016-0.02-0.024-0.036-0.024
	c-0.016,0-0.027,0.009-0.035,0.024l-1.404,2.052c-0.032,0.048-0.08,0.072-0.145,0.072H476.911z M487.927,392.701
	c0.12,0.336,0.181,0.724,0.181,1.164v3.695c0,0.656-0.229,1.181-0.685,1.572c-0.456,0.393-1.052,0.588-1.788,0.588
	c-0.472,0-0.892-0.088-1.26-0.264c-0.36-0.176-0.64-0.42-0.84-0.732c-0.2-0.319-0.3-0.684-0.3-1.092v-0.24
	c0-0.08,0.04-0.119,0.12-0.119h0.912c0.079,0,0.119,0.035,0.119,0.107v0.12c0,0.36,0.116,0.652,0.349,0.876
	c0.231,0.224,0.532,0.336,0.899,0.336c0.385,0,0.7-0.116,0.948-0.348c0.248-0.232,0.372-0.54,0.372-0.924v-1.512
	c0-0.017-0.008-0.029-0.024-0.037c-0.008-0.008-0.02-0.004-0.035,0.012c-0.345,0.393-0.845,0.589-1.5,0.589
	c-0.473,0-0.881-0.096-1.225-0.288c-0.336-0.192-0.6-0.473-0.792-0.84c-0.224-0.424-0.336-0.932-0.336-1.524
	c0-0.479,0.076-0.907,0.229-1.284c0.184-0.455,0.472-0.804,0.863-1.043c0.393-0.248,0.864-0.373,1.416-0.373
	c0.593,0,1.093,0.137,1.5,0.408C487.459,391.82,487.751,392.205,487.927,392.701z M486.763,394.801
	c0.128-0.264,0.192-0.604,0.192-1.02c0-0.336-0.052-0.62-0.156-0.852c-0.104-0.257-0.26-0.449-0.468-0.576
	c-0.208-0.137-0.46-0.205-0.756-0.205s-0.548,0.068-0.756,0.205c-0.2,0.127-0.349,0.315-0.444,0.563
	c-0.12,0.248-0.18,0.556-0.18,0.924c0,0.4,0.067,0.728,0.204,0.984c0.248,0.464,0.64,0.696,1.176,0.696
	C486.144,395.521,486.539,395.281,486.763,394.801z M492.18,399.745c-0.808,0-1.452-0.229-1.932-0.685
	c-0.473-0.464-0.708-1.084-0.708-1.859v-3.553c0-0.775,0.235-1.392,0.708-1.848c0.479-0.455,1.124-0.684,1.932-0.684
	c0.809,0,1.452,0.229,1.932,0.684c0.488,0.456,0.732,1.072,0.732,1.848v3.553c0,0.775-0.244,1.396-0.732,1.859
	C493.632,399.517,492.988,399.745,492.18,399.745z M492.18,398.749c0.464,0,0.832-0.132,1.104-0.396
	c0.271-0.271,0.407-0.632,0.407-1.079v-3.672c0-0.449-0.136-0.805-0.407-1.068c-0.272-0.272-0.641-0.408-1.104-0.408
	c-0.448,0-0.808,0.136-1.08,0.408c-0.271,0.264-0.408,0.619-0.408,1.068v3.672c0,0.447,0.137,0.808,0.408,1.079
	C491.372,398.617,491.731,398.749,492.18,398.749z"/>
<rect x="65.987" y="362.898" fill="#F1F1F1" width="379.013" height="43.45"/>
<rect x="76.672" y="373.074" fill="#CCCCCC" width="93.132" height="23.101"/>
<rect x="386.167" y="373.074" fill="#2F80ED" width="45.166" height="23.101"/>
<rect x="180.319" y="373.074" fill="#CCCCCC" width="195.722" height="8.589"/>
<rect x="180.319" y="387.585" fill="#CCCCCC" width="99.875" height="8.589"/>
</svg>
