<svg width="11" height="11" viewBox="0 0 11 11" fill="none" xmlns="http://www.w3.org/2000/svg">
<path d="M6.63059 5.31387C6.53653 5.21982 6.53653 5.07875 6.63059 4.9847L10.1575 1.45779C10.2515 1.36374 10.2986 1.22266 10.2986 1.12861C10.2986 1.03456 10.2515 0.893483 10.1575 0.799432L9.49914 0.141076C9.40509 0.0470254 9.26401 0 9.16996 0C9.02888 0 8.93483 0.0470254 8.84078 0.141076L5.31387 3.66798C5.21982 3.76203 5.07875 3.76203 4.9847 3.66798L1.45779 0.141076C1.36374 0.0470254 1.22266 0 1.12861 0C1.03456 0 0.893483 0.0470254 0.799432 0.141076L0.141076 0.799432C0.0470254 0.893483 0 1.03456 0 1.12861C0 1.22266 0.0470254 1.36374 0.141076 1.45779L3.66798 4.9847C3.76203 5.07875 3.76203 5.21982 3.66798 5.31387L0.141076 8.84078C0.0470254 8.93483 0 9.07591 0 9.16996C0 9.26401 0.0470254 9.40509 0.141076 9.49914L0.799432 10.1575C0.893483 10.2515 1.03456 10.2986 1.12861 10.2986C1.22266 10.2986 1.36374 10.2515 1.45779 10.1575L4.9847 6.63059C5.07875 6.53653 5.21982 6.53653 5.31387 6.63059L8.84078 10.1575C8.93483 10.2515 9.07591 10.2986 9.16996 10.2986C9.26401 10.2986 9.40509 10.2515 9.49914 10.1575L10.1575 9.49914C10.2515 9.40509 10.2986 9.26401 10.2986 9.16996C10.2986 9.07591 10.2515 8.93483 10.1575 8.84078L6.63059 5.31387Z" transform="translate(0.473633 0.194519)" fill="#8E54E9"/>
</svg>
