<?xml version="1.0" encoding="utf-8"?>
<!-- Generator: Adobe Illustrator 16.0.0, SVG Export Plug-In . SVG Version: 6.00 Build 0)  -->
<!DOCTYPE svg PUBLIC "-//W3C//DTD SVG 1.1//EN" "http://www.w3.org/Graphics/SVG/1.1/DTD/svg11.dtd">
<svg version="1.1" id="Layer_1" xmlns="http://www.w3.org/2000/svg" xmlns:xlink="http://www.w3.org/1999/xlink" x="0px" y="0px"
	 width="12.439px" height="12.851px" viewBox="0.608 0.436 12.439 12.851" enable-background="new 0.608 0.436 12.439 12.851"
	 xml:space="preserve">
<path fill="#273138" d="M5.798,6.861L0.737,1.801C0.651,1.715,0.608,1.616,0.608,1.504s0.043-0.21,0.128-0.296l0.644-0.644
	c0.085-0.086,0.185-0.129,0.296-0.129c0.112,0,0.21,0.043,0.296,0.129l6,6C8.06,6.651,8.103,6.75,8.103,6.861
	c0,0.111-0.043,0.21-0.129,0.296l-6,6.001c-0.086,0.086-0.185,0.128-0.296,0.128c-0.111,0-0.21-0.042-0.296-0.128l-0.644-0.645
	c-0.085-0.085-0.128-0.184-0.128-0.296c0-0.111,0.043-0.21,0.128-0.296L5.798,6.861z"/>
<path fill="#273138" d="M10.743,6.861L5.683,1.801C5.597,1.715,5.554,1.616,5.554,1.504s0.043-0.21,0.129-0.296l0.644-0.644
	c0.086-0.086,0.185-0.129,0.296-0.129c0.112,0,0.21,0.043,0.296,0.129l6.001,6c0.085,0.086,0.128,0.185,0.128,0.296
	c0,0.111-0.043,0.21-0.128,0.296l-6.001,6.001c-0.086,0.086-0.185,0.128-0.296,0.128c-0.111,0-0.21-0.042-0.296-0.128l-0.644-0.645
	c-0.086-0.085-0.129-0.184-0.129-0.296c0-0.111,0.043-0.21,0.129-0.296L10.743,6.861z"/>
</svg>
