<?xml version="1.0" encoding="utf-8"?>
<!-- Generator: Adobe Illustrator 16.0.0, SVG Export Plug-In . SVG Version: 6.00 Build 0)  -->
<!DOCTYPE svg PUBLIC "-//W3C//DTD SVG 1.1//EN" "http://www.w3.org/Graphics/SVG/1.1/DTD/svg11.dtd">
<svg version="1.1" id="Layer_1" xmlns="http://www.w3.org/2000/svg" xmlns:xlink="http://www.w3.org/1999/xlink" x="0px" y="0px"
	 width="12.798px" height="3.196px" viewBox="0.566 0.12 12.798 3.196" enable-background="new 0.566 0.12 12.798 3.196"
	 xml:space="preserve">
<path fill="#8E54E9" d="M2.272,3.316c-0.94,0-1.706-0.717-1.706-1.598c0-0.881,0.766-1.598,1.706-1.598
	c0.941,0,1.706,0.717,1.706,1.598C3.979,2.6,3.213,3.316,2.272,3.316z"/>
<path fill="#8E54E9" d="M11.658,3.316c-0.941,0-1.707-0.717-1.707-1.598c0-0.881,0.766-1.598,1.707-1.598
	c0.94,0,1.706,0.717,1.706,1.598C13.364,2.6,12.599,3.316,11.658,3.316z"/>
<path fill="#8E54E9" d="M6.966,3.316c-0.94,0-1.706-0.717-1.706-1.598c0-0.881,0.766-1.598,1.706-1.598s1.706,0.717,1.706,1.598
	C8.672,2.6,7.906,3.316,6.966,3.316z"/>
</svg>
