<?xml version="1.0" encoding="utf-8"?>
<!-- Generator: Adobe Illustrator 16.0.0, SVG Export Plug-In . SVG Version: 6.00 Build 0)  -->
<!DOCTYPE svg PUBLIC "-//W3C//DTD SVG 1.1//EN" "http://www.w3.org/Graphics/SVG/1.1/DTD/svg11.dtd">
<svg version="1.1" id="Layer_1" xmlns="http://www.w3.org/2000/svg" xmlns:xlink="http://www.w3.org/1999/xlink" x="0px" y="0px"
	 width="53.29px" height="36.595px" viewBox="0.233 0.256 53.29 36.595" enable-background="new 0.233 0.256 53.29 36.595"
	 xml:space="preserve">
<path fill="#FFFFFF" stroke="#9FA5AC" stroke-width="1.2" d="M3.233,0.856h47.291c1.324,0,2.399,1.075,2.399,2.4v30.594
	c0,1.325-1.075,2.4-2.399,2.4H3.233c-1.326,0-2.4-1.075-2.4-2.4V3.256C0.833,1.931,1.907,0.856,3.233,0.856z"/>
<rect x="4.844" y="5.725" fill="#DEE0E3" width="44.58" height="2.221"/>
<rect x="4.844" y="9.334" fill="#DEE0E3" width="28.439" height="2.221"/>
<rect x="4.844" y="12.944" fill="#DEE0E3" width="44.58" height="9.996"/>
<rect x="4.844" y="24.328" fill="#9FA5AC" width="44.58" height="6.108"/>
<path fill="#DEE0E3" d="M44.249,31.488l-3.416-3.419c-0.049-0.049-0.122-0.063-0.187-0.037c-0.063,0.026-0.105,0.089-0.105,0.158
	v4.734c0,0.065,0.037,0.125,0.097,0.153c0.059,0.029,0.128,0.021,0.18-0.02l0.867-0.678l0.757,1.363
	c0.031,0.057,0.09,0.088,0.149,0.088c0.026,0,0.052-0.006,0.077-0.018l1.024-0.514c0.042-0.021,0.073-0.058,0.087-0.102
	c0.014-0.045,0.008-0.094-0.014-0.135l-0.713-1.284h1.076c0.068,0,0.131-0.042,0.157-0.105S44.298,31.537,44.249,31.488z"/>
<path fill="#DEE0E3" d="M40.713,25.625c-0.095,0-0.172,0.076-0.172,0.171v1.026c0,0.094,0.077,0.17,0.172,0.17
	c0.094,0,0.17-0.076,0.17-0.17v-1.026C40.883,25.701,40.807,25.625,40.713,25.625z"/>
<path fill="#DEE0E3" d="M39.346,28.019h-1.024c-0.095,0-0.171,0.077-0.171,0.171c0,0.095,0.076,0.171,0.171,0.171h1.024
	c0.095,0,0.172-0.076,0.172-0.171C39.518,28.096,39.44,28.019,39.346,28.019z"/>
<path fill="#DEE0E3" d="M43.104,28.019h-1.024c-0.095,0-0.171,0.077-0.171,0.171c0,0.095,0.076,0.171,0.171,0.171h1.024
	c0.095,0,0.172-0.076,0.172-0.171C43.275,28.096,43.198,28.019,43.104,28.019z"/>
<path fill="#DEE0E3" d="M39.868,27.102l-0.726-0.725c-0.066-0.067-0.174-0.067-0.241,0c-0.066,0.066-0.066,0.175,0,0.241
	l0.726,0.726c0.033,0.033,0.076,0.05,0.121,0.05c0.043,0,0.087-0.017,0.12-0.05C39.935,27.277,39.935,27.168,39.868,27.102z"/>
<path fill="#DEE0E3" d="M39.868,29.036c-0.067-0.066-0.175-0.066-0.241,0l-0.726,0.726c-0.066,0.066-0.066,0.175,0,0.241
	c0.034,0.033,0.077,0.05,0.121,0.05s0.087-0.017,0.12-0.05l0.726-0.726C39.935,29.211,39.935,29.104,39.868,29.036z"/>
<path fill="#DEE0E3" d="M42.523,26.376c-0.066-0.067-0.174-0.067-0.241,0l-0.726,0.726c-0.066,0.066-0.066,0.175,0,0.242
	c0.034,0.033,0.078,0.049,0.121,0.049c0.044,0,0.088-0.016,0.121-0.049l0.725-0.726C42.59,26.551,42.59,26.443,42.523,26.376z"/>
</svg>
