<?xml version="1.0" encoding="utf-8"?>
<!-- Generator: Adobe Illustrator 16.0.0, SVG Export Plug-In . SVG Version: 6.00 Build 0)  -->
<!DOCTYPE svg PUBLIC "-//W3C//DTD SVG 1.1//EN" "http://www.w3.org/Graphics/SVG/1.1/DTD/svg11.dtd">
<svg version="1.1" id="Layer_1" xmlns="http://www.w3.org/2000/svg" xmlns:xlink="http://www.w3.org/1999/xlink" x="0px" y="0px"
	 width="202.507px" height="77.365px" viewBox="0.616 1.896 202.507 77.365" enable-background="new 0.616 1.896 202.507 77.365"
	 xml:space="preserve">
<path fill="#E2E6F0" d="M160.84,23.072h2.57c2.244,0,4.088-1.658,4.088-3.695v-6.793c0-2.037-1.844-3.695-4.088-3.695h-2.57
	c-2.244,0-4.089,1.658-4.089,3.695v6.793C156.751,21.414,158.596,23.072,160.84,23.072z M166.297,12.584v1.606h-3.571V9.982h0.685
	C165.002,9.982,166.297,11.158,166.297,12.584z M160.84,9.982h0.684v4.208h-3.57v-1.606C157.953,11.158,159.247,9.982,160.84,9.982z
	 M157.953,15.285h8.344v4.092c0,1.426-1.295,2.601-2.887,2.601h-2.57c-1.593,0-2.887-1.175-2.887-2.601V15.285z"/>
<path fill="#6C82B2" d="M60.019,16.081h2.57c2.244,0,4.089-1.658,4.089-3.695V5.592c0-2.037-1.845-3.695-4.089-3.695h-2.57
	c-2.244,0-4.089,1.658-4.089,3.695v6.793C55.93,14.422,57.775,16.081,60.019,16.081z M65.477,5.592v1.607h-3.572V2.991h0.684
	C64.182,2.991,65.477,4.166,65.477,5.592z M60.019,2.991h0.684v4.208h-3.571V5.592C57.132,4.166,58.426,2.991,60.019,2.991z
	 M57.132,8.293h8.345v4.092c0,1.426-1.295,2.601-2.888,2.601h-2.57c-1.593,0-2.887-1.175-2.887-2.601V8.293z"/>
<path fill="#3B5998" d="M196.464,78.284h2.569c2.244,0,4.09-1.658,4.09-3.695v-6.794c0-2.037-1.846-3.695-4.09-3.695h-2.569
	c-2.244,0-4.089,1.658-4.089,3.695v6.794C192.375,76.626,194.22,78.284,196.464,78.284z M201.922,67.795v1.607h-3.572v-4.208h0.684
	C200.627,65.194,201.922,66.369,201.922,67.795z M196.464,65.194h0.685v4.208h-3.572v-1.607
	C193.576,66.369,194.871,65.194,196.464,65.194z M193.576,70.496h8.346v4.093c0,1.426-1.295,2.601-2.889,2.601h-2.569
	c-1.593,0-2.888-1.175-2.888-2.601V70.496z"/>
<path fill="#BAC5DB" d="M4.705,79.262h2.569c2.244,0,4.089-1.658,4.089-3.695v-6.793c0-2.037-1.845-3.695-4.089-3.695H4.705
	c-2.244,0-4.089,1.658-4.089,3.695v6.793C0.616,77.604,2.461,79.262,4.705,79.262z M10.163,68.773v1.606H6.591v-4.208h0.684
	C8.867,66.172,10.163,67.348,10.163,68.773z M4.705,66.172h0.684v4.208H1.817v-1.606C1.817,67.348,3.112,66.172,4.705,66.172z
	 M1.817,71.475h8.345v4.092c0,1.426-1.295,2.602-2.888,2.602H4.705c-1.593,0-2.888-1.176-2.888-2.602V71.475z"/>
<path fill="#F5F7FA" d="M48.027,56.967h2.57c2.244,0,4.089-1.658,4.089-3.695v-6.794c0-2.037-1.845-3.695-4.089-3.695h-2.57
	c-2.244,0-4.089,1.658-4.089,3.695v6.794C43.938,55.309,45.783,56.967,48.027,56.967z M53.484,46.478v1.606h-3.572v-4.207h0.684
	C52.189,43.877,53.484,45.052,53.484,46.478z M48.027,43.877h0.684v4.207H45.14v-1.606C45.14,45.052,46.434,43.877,48.027,43.877z
	 M45.14,49.179h8.345v4.093c0,1.426-1.295,2.601-2.888,2.601h-2.57c-1.593,0-2.887-1.175-2.887-2.601V49.179z"/>
</svg>
