<?xml version="1.0" encoding="utf-8"?>
<!-- Generator: Adobe Illustrator 16.0.0, SVG Export Plug-In . SVG Version: 6.00 Build 0)  -->
<!DOCTYPE svg PUBLIC "-//W3C//DTD SVG 1.1//EN" "http://www.w3.org/Graphics/SVG/1.1/DTD/svg11.dtd">
<svg version="1.1" id="Layer_1" xmlns="http://www.w3.org/2000/svg" xmlns:xlink="http://www.w3.org/1999/xlink" x="0px" y="0px"
	 width="202.69px" height="77.76px" viewBox="0.285 0.37 202.69 77.76" enable-background="new 0.285 0.37 202.69 77.76"
	 xml:space="preserve">
<path fill="#BAC5DB" d="M7.899,75.905c-0.427,0.36-0.968,0.541-1.623,0.541c-0.722,0-1.303-0.22-1.744-0.661
	c-0.441-0.454-0.662-1.049-0.662-1.783v-1.283c0-0.053,0.027-0.08,0.08-0.08h3.587c0.12,0,0.201-0.053,0.241-0.16L8,71.777
	c0.041-0.147-0.013-0.221-0.16-0.221H3.952c-0.053,0-0.08-0.027-0.08-0.08v-1.063c0-0.053,0.027-0.08,0.08-0.08h4.269
	c0.12,0,0.2-0.053,0.241-0.16l0.22-0.701c0.04-0.147-0.013-0.221-0.16-0.221h-4.57c-0.053,0-0.08-0.027-0.08-0.08v-1.303
	c0-0.734,0.221-1.322,0.662-1.764c0.44-0.454,1.022-0.682,1.744-0.682c0.641,0,1.176,0.188,1.603,0.562
	c0.441,0.36,0.702,0.842,0.782,1.442c0.027,0.121,0.087,0.181,0.181,0.181h0.04l1.523-0.2c0.12-0.027,0.181-0.087,0.181-0.181v-0.04
	c-0.133-1.055-0.588-1.891-1.363-2.505c-0.761-0.614-1.744-0.922-2.946-0.922c-0.855,0-1.61,0.174-2.265,0.521
	c-0.655,0.334-1.162,0.822-1.523,1.463c-0.361,0.629-0.542,1.357-0.542,2.186v1.242c0,0.053-0.026,0.08-0.08,0.08H0.484
	c-0.133,0-0.2,0.066-0.2,0.2v0.682c0,0.134,0.067,0.2,0.2,0.2h1.383c0.054,0,0.08,0.027,0.08,0.08v1.063
	c0,0.053-0.026,0.08-0.08,0.08H0.484c-0.133,0-0.2,0.066-0.2,0.2v0.682c0,0.134,0.067,0.2,0.2,0.2h1.383
	c0.054,0,0.08,0.027,0.08,0.08v1.203c0,0.842,0.181,1.582,0.542,2.225c0.361,0.627,0.868,1.115,1.523,1.463
	c0.654,0.347,1.41,0.521,2.265,0.521c1.176,0,2.144-0.301,2.906-0.901c0.774-0.615,1.242-1.437,1.403-2.465
	c0.014-0.135-0.047-0.215-0.181-0.241l-1.502-0.261c-0.121-0.026-0.194,0.027-0.221,0.16C8.601,75.037,8.34,75.531,7.899,75.905z"/>
<path fill="#6C82B2" d="M63.57,12.515c-0.427,0.361-0.968,0.541-1.623,0.541c-0.722,0-1.303-0.22-1.744-0.661
	c-0.441-0.454-0.661-1.049-0.661-1.784V9.328c0-0.053,0.026-0.08,0.08-0.08h3.587c0.12,0,0.2-0.053,0.24-0.16l0.221-0.702
	c0.04-0.147-0.014-0.22-0.161-0.22h-3.888c-0.054,0-0.08-0.027-0.08-0.08V7.023c0-0.053,0.026-0.08,0.08-0.08h4.269
	c0.12,0,0.2-0.053,0.241-0.16l0.22-0.702c0.04-0.147-0.013-0.22-0.16-0.22h-4.569c-0.054,0-0.08-0.027-0.08-0.08V4.479
	c0-0.735,0.22-1.323,0.661-1.764c0.441-0.454,1.022-0.681,1.744-0.681c0.641,0,1.176,0.187,1.603,0.561
	c0.441,0.361,0.702,0.842,0.782,1.443c0.027,0.12,0.087,0.18,0.18,0.18h0.04l1.523-0.2c0.12-0.027,0.18-0.087,0.18-0.181v-0.04
	c-0.133-1.055-0.588-1.89-1.363-2.505c-0.761-0.615-1.744-0.922-2.946-0.922c-0.855,0-1.61,0.174-2.265,0.521
	c-0.655,0.334-1.162,0.822-1.523,1.463c-0.361,0.628-0.541,1.356-0.541,2.185v1.243c0,0.053-0.027,0.08-0.081,0.08h-1.383
	c-0.133,0-0.2,0.067-0.2,0.2v0.682c0,0.133,0.067,0.2,0.2,0.2h1.383c0.054,0,0.081,0.027,0.081,0.08v1.063
	c0,0.053-0.027,0.08-0.081,0.08h-1.383c-0.133,0-0.2,0.067-0.2,0.2v0.682c0,0.133,0.067,0.2,0.2,0.2h1.383
	c0.054,0,0.081,0.027,0.081,0.08v1.203c0,0.842,0.18,1.583,0.541,2.225c0.361,0.628,0.868,1.115,1.523,1.463
	c0.655,0.347,1.41,0.521,2.265,0.521c1.176,0,2.144-0.301,2.906-0.902c0.775-0.615,1.243-1.436,1.403-2.465
	c0.014-0.134-0.047-0.214-0.18-0.241l-1.503-0.26c-0.121-0.027-0.194,0.026-0.221,0.16C64.271,11.646,64.011,12.141,63.57,12.515z"
	/>
<path fill="#F5F7FA" d="M49.179,53.609c-0.427,0.361-0.968,0.541-1.623,0.541c-0.722,0-1.303-0.22-1.744-0.66
	c-0.441-0.455-0.661-1.049-0.661-1.784v-1.282c0-0.054,0.026-0.08,0.08-0.08h3.587c0.12,0,0.2-0.054,0.24-0.16l0.221-0.702
	c0.04-0.147-0.014-0.22-0.161-0.22h-3.888c-0.054,0-0.08-0.027-0.08-0.08v-1.063c0-0.054,0.026-0.08,0.08-0.08H49.5
	c0.12,0,0.2-0.054,0.241-0.16l0.22-0.702c0.04-0.147-0.013-0.22-0.16-0.22h-4.569c-0.054,0-0.08-0.027-0.08-0.08v-1.303
	c0-0.735,0.22-1.323,0.661-1.764c0.441-0.455,1.022-0.682,1.744-0.682c0.641,0,1.176,0.188,1.603,0.561
	c0.441,0.361,0.702,0.842,0.782,1.443c0.027,0.12,0.087,0.18,0.18,0.18h0.04l1.523-0.199c0.12-0.027,0.18-0.088,0.18-0.182v-0.039
	c-0.133-1.056-0.588-1.891-1.363-2.505c-0.761-0.615-1.744-0.922-2.946-0.922c-0.855,0-1.61,0.174-2.265,0.521
	c-0.655,0.334-1.162,0.822-1.523,1.463c-0.361,0.628-0.541,1.356-0.541,2.185v1.243c0,0.053-0.027,0.08-0.081,0.08h-1.383
	c-0.133,0-0.2,0.066-0.2,0.199v0.682c0,0.134,0.067,0.201,0.2,0.201h1.383c0.054,0,0.081,0.026,0.081,0.08v1.063
	c0,0.053-0.027,0.08-0.081,0.08h-1.383c-0.133,0-0.2,0.066-0.2,0.199v0.682c0,0.134,0.067,0.201,0.2,0.201h1.383
	c0.054,0,0.081,0.026,0.081,0.08v1.202c0,0.842,0.18,1.583,0.541,2.225c0.361,0.628,0.868,1.115,1.523,1.463
	c0.655,0.347,1.41,0.521,2.265,0.521c1.176,0,2.144-0.301,2.906-0.901c0.775-0.614,1.243-1.437,1.403-2.465
	c0.014-0.134-0.047-0.214-0.18-0.241l-1.503-0.26c-0.121-0.027-0.194,0.026-0.221,0.16C49.88,52.742,49.62,53.236,49.179,53.609z"/>
<path fill="#E2E6F0" d="M165.115,19.13c-0.428,0.361-0.969,0.541-1.623,0.541c-0.722,0-1.303-0.22-1.744-0.661
	c-0.44-0.454-0.66-1.049-0.66-1.784v-1.283c0-0.053,0.025-0.08,0.08-0.08h3.587c0.12,0,0.2-0.053,0.24-0.16l0.221-0.702
	c0.04-0.147-0.014-0.22-0.161-0.22h-3.887c-0.055,0-0.08-0.027-0.08-0.08v-1.063c0-0.053,0.025-0.08,0.08-0.08h4.268
	c0.121,0,0.201-0.053,0.241-0.16l0.22-0.702c0.041-0.147-0.013-0.22-0.16-0.22h-4.568c-0.055,0-0.08-0.027-0.08-0.08v-1.303
	c0-0.735,0.22-1.323,0.66-1.764c0.441-0.454,1.022-0.681,1.744-0.681c0.641,0,1.176,0.187,1.604,0.561
	c0.44,0.361,0.701,0.842,0.781,1.443c0.027,0.12,0.087,0.18,0.18,0.18h0.041l1.523-0.2c0.119-0.027,0.18-0.087,0.18-0.181v-0.04
	c-0.133-1.055-0.588-1.89-1.363-2.505c-0.761-0.615-1.743-0.922-2.945-0.922c-0.855,0-1.609,0.174-2.265,0.521
	c-0.655,0.334-1.162,0.822-1.522,1.463c-0.361,0.628-0.541,1.356-0.541,2.185v1.243c0,0.053-0.027,0.08-0.081,0.08H157.7
	c-0.134,0-0.2,0.067-0.2,0.2v0.682c0,0.133,0.066,0.2,0.2,0.2h1.383c0.054,0,0.081,0.027,0.081,0.08v1.063
	c0,0.053-0.027,0.08-0.081,0.08H157.7c-0.134,0-0.2,0.067-0.2,0.2v0.682c0,0.133,0.066,0.2,0.2,0.2h1.383
	c0.054,0,0.081,0.027,0.081,0.08v1.203c0,0.842,0.18,1.583,0.541,2.225c0.36,0.628,0.867,1.115,1.522,1.463
	c0.655,0.347,1.409,0.521,2.265,0.521c1.176,0,2.145-0.301,2.906-0.902c0.774-0.615,1.242-1.436,1.402-2.465
	c0.014-0.134-0.047-0.214-0.18-0.241l-1.504-0.26c-0.12-0.027-0.193,0.026-0.221,0.16C165.816,18.262,165.557,18.756,165.115,19.13z
	"/>
<path fill="#3B5998" d="M200.287,74.928c-0.428,0.361-0.969,0.541-1.623,0.541c-0.722,0-1.303-0.221-1.744-0.661
	c-0.44-0.454-0.66-1.049-0.66-1.784v-1.282c0-0.054,0.025-0.08,0.08-0.08h3.587c0.12,0,0.2-0.054,0.24-0.16l0.221-0.702
	c0.04-0.146-0.014-0.22-0.161-0.22h-3.887c-0.055,0-0.08-0.026-0.08-0.08v-1.063c0-0.054,0.025-0.08,0.08-0.08h4.268
	c0.121,0,0.201-0.054,0.241-0.16l0.22-0.702c0.041-0.146-0.013-0.22-0.16-0.22h-4.568c-0.055,0-0.08-0.026-0.08-0.08v-1.303
	c0-0.735,0.22-1.323,0.66-1.764c0.441-0.454,1.022-0.681,1.744-0.681c0.641,0,1.176,0.187,1.604,0.561
	c0.44,0.361,0.701,0.842,0.781,1.443c0.027,0.119,0.087,0.18,0.18,0.18h0.041l1.523-0.2c0.119-0.026,0.18-0.087,0.18-0.181v-0.04
	c-0.133-1.056-0.588-1.89-1.363-2.505c-0.761-0.615-1.743-0.922-2.945-0.922c-0.855,0-1.609,0.174-2.265,0.521
	c-0.655,0.334-1.162,0.821-1.522,1.463c-0.361,0.627-0.541,1.355-0.541,2.184v1.243c0,0.054-0.027,0.08-0.081,0.08h-1.383
	c-0.134,0-0.2,0.067-0.2,0.2v0.682c0,0.133,0.066,0.2,0.2,0.2h1.383c0.054,0,0.081,0.026,0.081,0.08v1.063
	c0,0.054-0.027,0.08-0.081,0.08h-1.383c-0.134,0-0.2,0.067-0.2,0.2v0.682c0,0.133,0.066,0.2,0.2,0.2h1.383
	c0.054,0,0.081,0.026,0.081,0.08v1.202c0,0.842,0.18,1.584,0.541,2.225c0.36,0.629,0.867,1.115,1.522,1.463s1.409,0.521,2.265,0.521
	c1.176,0,2.145-0.301,2.906-0.902c0.774-0.614,1.242-1.436,1.402-2.465c0.014-0.133-0.047-0.213-0.18-0.24l-1.504-0.26
	c-0.12-0.027-0.193,0.025-0.221,0.16C200.988,74.06,200.729,74.554,200.287,74.928z"/>
</svg>
