<svg width="29" height="30" viewBox="0 0 29 30" fill="none" xmlns="http://www.w3.org/2000/svg">
<path d="M27.5733 1.72291H21.8898V0.867381C21.8898 0.388442 21.5014 0 21.0224 0C20.5435 0 20.1551 0.388442 20.1551 0.867381V1.72291H15.0877V0.867381C15.0877 0.388442 14.6992 0 14.2203 0C13.7413 0 13.3529 0.388442 13.3529 0.867381V1.72291H8.50092V0.867381C8.50092 0.388442 8.11247 0 7.63353 0C7.15459 0 6.76615 0.388442 6.76615 0.867381V1.72291H0.867381C0.388442 1.72291 6.34186e-09 2.11135 6.34186e-09 2.59029V22.1891C6.34186e-09 22.668 0.388442 23.0564 0.867381 23.0564H6.19108C7.04415 26.7015 10.3191 29.4249 14.2203 29.4249C18.1215 29.4249 21.3964 26.7013 22.2495 23.0564H27.5732C28.0521 23.0564 28.4406 22.668 28.4406 22.1891V2.59029C28.4407 2.11135 28.0524 1.72291 27.5733 1.72291ZM6.76615 3.45767V4.24149C6.76615 4.72043 7.15459 5.10888 7.63353 5.10888C8.11247 5.10888 8.50092 4.72043 8.50092 4.24149V3.45767H13.3529V4.24149C13.3529 4.72043 13.7413 5.10888 14.2203 5.10888C14.6992 5.10888 15.0877 4.72043 15.0877 4.24149V3.45767H20.1551V4.24149C20.1551 4.72043 20.5435 5.10888 21.0224 5.10888C21.5014 5.10888 21.8898 4.72043 21.8898 4.24149V3.45767H26.7059V7.00468H1.73476V3.45767H6.76615ZM14.2203 27.6901C10.629 27.6901 7.70726 24.7684 7.70726 21.1771C7.70726 17.5859 10.629 14.6641 14.2203 14.6641C17.8115 14.6641 20.7333 17.5857 20.7333 21.1771C20.7333 24.7685 17.8117 27.6901 14.2203 27.6901ZM22.4645 21.3217C22.4653 21.2734 22.4681 21.2255 22.4681 21.1771C22.4681 16.6293 18.7681 12.9293 14.2203 12.9293C9.67246 12.9293 5.9725 16.6293 5.9725 21.1771C5.9725 21.2255 5.97539 21.2734 5.97611 21.3217H1.73462V8.73959H26.7058V21.3217H22.4645Z" transform="translate(0.511719 0.164246)" fill="#F2994A"/>
<path d="M1.73476 5.06348V0.867381C1.73476 0.388442 1.34632 -4.5882e-07 0.867382 -4.5882e-07C0.388443 -4.5882e-07 5.38231e-07 0.388442 5.38231e-07 0.867381V5.42287C5.38231e-07 5.65287 0.0913641 5.87347 0.253998 6.03625L2.24753 8.02993C2.41696 8.19921 2.63886 8.28393 2.86091 8.28393C3.08282 8.28393 3.30487 8.19921 3.4743 8.02993C3.81301 7.69121 3.81301 7.14202 3.4743 6.80331L1.73476 5.06348Z" transform="translate(13.8645 16.4967)" fill="#F2994A"/>
</svg>
