<?xml version="1.0" encoding="utf-8"?>
<!-- Generator: Adobe Illustrator 16.0.0, SVG Export Plug-In . SVG Version: 6.00 Build 0)  -->
<!DOCTYPE svg PUBLIC "-//W3C//DTD SVG 1.1//EN" "http://www.w3.org/Graphics/SVG/1.1/DTD/svg11.dtd">
<svg version="1.1" id="Layer_1" xmlns="http://www.w3.org/2000/svg" xmlns:xlink="http://www.w3.org/1999/xlink" x="0px" y="0px"
	 width="38.568px" height="39.598px" viewBox="59.898 32.739 38.568 39.598" enable-background="new 59.898 32.739 38.568 39.598"
	 xml:space="preserve">
<rect x="60.346" y="40.637" fill="#FFFFFF" width="37.406" height="30.742"/>
<path fill="#DEE0E3" d="M78.674,40.12l0.017-6.39l9.418-0.008l1.08,6.397H78.674z"/>
<path fill="#DEE0E3" d="M60.712,40.359l3.269-6.837l8.114-0.117l-1.343,6.954H60.712z"/>
<path fill="#DEE0E3" stroke="#9FA5AC" stroke-width="0.1" d="M69.728,40.42h-0.05v0.05v4.337c0,0.773,0.34,1.923,1.102,2.88
	c0.763,0.959,1.951,1.727,3.643,1.727c1.69,0,2.855-0.688,3.595-1.61c0.739-0.92,1.055-2.071,1.055-2.998V40.47v-0.05h-0.05H69.728z
	"/>
<path fill="#9FA5AC" stroke="#9FA5AC" stroke-width="0.1" d="M69.274,39.965h-0.05v0.05v4.792c0,0.88,0.378,2.129,1.201,3.164
	c0.838,1.053,2.15,1.898,3.999,1.898c1.83,0,3.124-0.752,3.949-1.78c0.812-1.01,1.155-2.265,1.155-3.282v-4.792v-0.05h-0.05H69.274z
	 M70.232,44.807v-3.833h8.288v3.833c0,0.815-0.282,1.839-0.933,2.649c-0.637,0.793-1.643,1.403-3.164,1.403
	c-1.502,0-2.538-0.673-3.21-1.518C70.526,46.478,70.232,45.448,70.232,44.807z"/>
<path fill="#DEE0E3" stroke="#9FA5AC" stroke-width="0.1" d="M88.456,40.611h-0.05v0.05v4.337c0,0.772,0.34,1.923,1.102,2.88
	c0.764,0.959,1.951,1.727,3.644,1.727c1.69,0,2.854-0.688,3.596-1.61c0.739-0.92,1.055-2.071,1.055-2.997v-4.337v-0.05h-0.05H88.456
	z"/>
<path fill="#9FA5AC" stroke="#9FA5AC" stroke-width="0.1" d="M87.865,44.757h-0.05v0.05c0,0.881,0.378,2.13,1.2,3.164
	c0.838,1.053,2.15,1.898,3.999,1.898c3.685,0,5.377-2.987,5.377-5.039v-0.05h-0.05h-0.908h-0.051v0.05
	c0,1.614-1.353,4.03-4.368,4.03c-1.502,0-2.538-0.673-3.21-1.518c-0.688-0.864-0.981-1.894-0.981-2.535v-0.05h-0.05H87.865z"/>
<path fill="#9FA5AC" stroke="#9FA5AC" stroke-width="0.1" d="M60.023,44.758h-0.05v0.05c0,0.877,0.364,2.125,1.176,3.161
	c0.827,1.055,2.129,1.9,3.978,1.9c1.83,0,3.124-0.752,3.949-1.78c0.812-1.01,1.155-2.265,1.155-3.282v-0.05h-0.05h-0.908h-0.05v0.05
	c0,0.816-0.282,1.84-0.933,2.65c-0.637,0.793-1.643,1.403-3.164,1.403c-1.501,0-2.524-0.672-3.185-1.515
	c-0.676-0.862-0.961-1.892-0.961-2.538v-0.05h-0.05H60.023z"/>
<path fill="#FFFFFF" stroke="#9FA5AC" stroke-width="0.1" d="M79.024,40.42h-0.05v0.05v4.337c0,0.773,0.34,1.923,1.102,2.88
	c0.764,0.959,1.951,1.727,3.643,1.727s2.855-0.688,3.596-1.61c0.739-0.92,1.055-2.071,1.055-2.998V40.47v-0.05h-0.05H79.024z"/>
<path fill="#9FA5AC" stroke="#9FA5AC" stroke-width="0.1" d="M78.57,39.965h-0.05v0.05v4.792c0,0.88,0.378,2.129,1.201,3.164
	c0.838,1.053,2.15,1.898,3.998,1.898c1.83,0,3.124-0.752,3.949-1.78c0.813-1.01,1.155-2.265,1.155-3.282v-4.792v-0.05h-0.05H78.57z
	 M79.527,44.807v-3.833h8.288v3.833c0,0.815-0.282,1.839-0.933,2.649c-0.637,0.793-1.643,1.403-3.164,1.403
	c-1.502,0-2.537-0.673-3.209-1.518C79.822,46.478,79.527,45.448,79.527,44.807z"/>
<rect x="63.885" y="52.052" fill="#DEE0E3" width="16.773" height="16.573"/>
<path fill="#FFFFFF" d="M69.444,58.66c-0.266-0.266-0.266-0.698,0-0.964l2.921-2.924c0.266-0.266,0.697-0.266,0.963,0
	c0.266,0.267,0.266,0.698,0,0.964l-2.921,2.924C70.142,58.926,69.71,58.926,69.444,58.66z"/>
<path fill="#FFFFFF" d="M73.615,57.804c-0.266-0.266-0.266-0.698,0-0.964l1.876-1.878c0.266-0.266,0.697-0.266,0.963,0
	c0.266,0.267,0.266,0.698,0,0.964l-1.875,1.877C74.313,58.07,73.881,58.07,73.615,57.804z"/>
<path fill="#FFFFFF" d="M69.082,62.215c-0.266-0.266-0.266-0.698,0-0.963l1.876-1.877c0.266-0.266,0.697-0.266,0.963,0
	s0.266,0.698,0,0.964l-1.876,1.876C69.779,62.481,69.348,62.481,69.082,62.215z"/>
<path fill="#FFFFFF" d="M69.465,65.196c-0.266-0.266-0.266-0.698,0-0.964l6.026-6.032c0.266-0.266,0.697-0.266,0.963,0
	c0.266,0.267,0.266,0.698,0,0.964l-6.025,6.032C70.163,65.463,69.731,65.463,69.465,65.196z"/>
<path fill="#FFFFFF" d="M73.351,58.733c0,0.367-0.297,0.664-0.664,0.664c-0.366,0-0.663-0.297-0.663-0.664s0.297-0.664,0.663-0.664
	C73.054,58.069,73.351,58.366,73.351,58.733z"/>
<path fill="#FFFFFF" d="M77.956,57.406c0,0.367-0.297,0.664-0.663,0.664c-0.367,0-0.664-0.297-0.664-0.664s0.297-0.664,0.664-0.664
	C77.659,56.742,77.956,57.039,77.956,57.406z"/>
<path fill="#DEE0E3" d="M95.314,52.033H83.271v19.346h12.044V52.033z"/>
<path fill="#FFFFFF" d="M92.852,61.055c0.501,0,0.908,0.407,0.908,0.909v2.028c0,0.502-0.407,0.909-0.908,0.909
	c-0.502,0-0.909-0.407-0.909-0.909v-2.028C91.942,61.462,92.35,61.055,92.852,61.055z"/>
<path fill="#9FA5AC" stroke="#9FA5AC" stroke-width="0.25" d="M62.931,34.137c0.531-1.128,1.653-1.312,2.177-1.267h28.301
	c0.541,0,0.981,0.221,1.3,0.477c0.316,0.252,0.536,0.555,0.648,0.776l0.003,0.005l2.981,6.183v31.901H60.023V40.313L62.931,34.137z
	 M63.752,34.524c0.313-0.665,0.991-0.778,1.287-0.748l0.023,0.002h28.346c0.282,0,0.528,0.114,0.733,0.278
	c0.205,0.165,0.346,0.361,0.404,0.477l2.629,5.451H61.183L63.752,34.524z M60.932,40.893v30.41h36.502v-30.41H60.932z"/>
</svg>
