<?xml version="1.0" encoding="utf-8"?>
<!-- Generator: Adobe Illustrator 16.0.0, SVG Export Plug-In . SVG Version: 6.00 Build 0)  -->
<!DOCTYPE svg PUBLIC "-//W3C//DTD SVG 1.1//EN" "http://www.w3.org/Graphics/SVG/1.1/DTD/svg11.dtd">
<svg version="1.1" id="Layer_1" xmlns="http://www.w3.org/2000/svg" xmlns:xlink="http://www.w3.org/1999/xlink" x="0px" y="0px"
	 width="10.462px" height="7.816px" viewBox="0.65 0.397 10.462 7.816" enable-background="new 0.65 0.397 10.462 7.816"
	 xml:space="preserve">
<path fill="#13D60F" d="M11.091,4.355L7.256,8.191C7.242,8.205,7.223,8.213,7.203,8.213S7.165,8.205,7.151,8.19L6.317,7.354
	C6.315,7.352,6.313,7.35,6.311,7.348C6.287,7.316,6.291,7.272,6.32,7.246C6.321,7.244,6.323,7.23,6.326,7.229L8.541,5H0.724
	C0.683,5,0.5,4.993,0.5,4.952V3.655C0.5,3.614,0.683,4,0.724,4h7.817L6.316,1.567C6.303,1.553,6.295,1.43,6.295,1.41
	s0.008-0.091,0.021-0.104l0.835-0.861C7.166,0.43,7.185,0.41,7.203,0.41c0.02,0,0.038,0,0.053,0.015l3.835,3.83
	c0.015,0.014,0.021,0.031,0.021,0.05S11.104,4.341,11.091,4.355z"/>
</svg>
