<svg width="279" height="168" viewBox="0 0 279 168" fill="none" xmlns="http://www.w3.org/2000/svg">
<rect width="262" height="165" rx="3" transform="translate(17 0.558594)" fill="#EFEFEF"/>
<path d="M79.7406 69.4746H6.98389C1.65369 63.4795 -0.920525 54.9844 0.298103 43.6104C2.99567 18.4331 42.5416 0 98.5338 0C154.526 0 207.56 31.022 207.56 51.2534C207.56 61.6978 189.857 59.6514 168.561 57.189C153.189 55.4116 135.946 53.4185 122.137 55.7495C106.449 58.3979 92.602 64.1377 79.7406 69.4746Z" transform="translate(50.0127 96.084)" fill="#C7E0E2"/>
<path fill-rule="evenodd" clip-rule="evenodd" d="M3.55664 0L7.1123 4.00757L10.6631 0L14.2002 3.98657L17.7373 0L21.2744 3.98633L24.8115 0L28.3672 4.00757L31.9189 0L35.4404 3.96777L38.96 0L42.5156 4.00757H42.5459L46.1006 0L49.6572 4.00757L53.2119 0L56.7686 4.00757L60.3193 0L63.8564 3.98657L67.3936 0L70.9307 3.98657L74.4678 0L78.0244 4.00757L81.5752 0L85.0967 3.96777L88.6162 0L92.1719 4.00757H92.2021L95.7568 0L99.3135 4.00757L99.3125 149.837H0L0.000976562 4.00757L3.55664 0Z" transform="translate(89.3135 18.0063)" fill="white"/>
<path d="M6.57532 8.70222L6.34761 7.6682C6.3347 7.6074 6.30217 7.56186 6.25003 7.53163C6.19365 7.50122 6.13731 7.49701 6.081 7.5187L6.04843 7.53163L5.97029 7.55111C5.93555 7.55968 5.89546 7.56952 5.84995 7.58034C5.80441 7.59118 5.7514 7.60193 5.6906 7.61284C5.63012 7.62369 5.56586 7.63351 5.49882 7.64216C5.43164 7.65066 5.35913 7.65838 5.28102 7.66492C5.20289 7.67132 5.12494 7.6746 5.04682 7.6746C4.49615 7.6746 4.00073 7.52614 3.5607 7.22914C3.12059 6.93205 2.79648 6.5299 2.58839 6.02271H5.10523C5.15302 6.02271 5.19637 6.00649 5.23526 5.97389C5.27442 5.94145 5.29827 5.90138 5.30676 5.85352L5.46285 5.12509C5.47593 5.06024 5.46285 5.00163 5.42394 4.94955C5.38059 4.89748 5.32626 4.87142 5.26132 4.87142H2.27626C2.26326 4.5766 2.26326 4.34899 2.27626 4.18853H5.45005C5.56723 4.18853 5.63652 4.13222 5.65819 4.01948L5.81427 3.27805C5.82719 3.21736 5.81225 3.16105 5.76874 3.10898C5.72985 3.05695 5.67566 3.03082 5.60627 3.03082H2.56245C2.77924 2.54522 3.1044 2.16369 3.53803 1.88618C3.97162 1.60861 4.46157 1.46991 5.00787 1.46991C5.02527 1.46125 5.08917 1.46344 5.19965 1.47642C5.3102 1.48936 5.37319 1.49483 5.38829 1.49264C5.40326 1.4905 5.45987 1.49704 5.55732 1.51212C5.65491 1.52729 5.70372 1.5349 5.70372 1.5349L5.81753 1.55763C5.85013 1.56419 5.87505 1.56952 5.89236 1.57392L5.9184 1.58039C5.97471 1.59781 6.0266 1.59235 6.07449 1.56419C6.12221 1.53592 6.1526 1.49371 6.16563 1.43735L6.44532 0.403269C6.45826 0.346889 6.45169 0.294861 6.42584 0.247183C6.38677 0.195063 6.34335 0.162556 6.29565 0.149594C5.8968 0.0498876 5.47606 0 5.03391 0C4.06256 0 3.19442 0.277571 2.42912 0.832485C1.66383 1.38744 1.13591 2.12027 0.845401 3.03075H0.208093C0.147362 3.03075 0.0975428 3.05023 0.0584983 3.08925C0.0195678 3.12822 -2.78073e-09 3.17811 -2.78073e-09 3.23884V3.98028C-2.78073e-09 4.04096 0.0194995 4.09085 0.0584983 4.12978C0.0975656 4.16885 0.147453 4.18828 0.208093 4.18828H0.643869C0.63077 4.39646 0.628697 4.62396 0.637308 4.87124H0.208093C0.151736 4.87124 0.102964 4.89181 0.0617786 4.93299C0.0206157 4.97416 -2.78073e-09 5.02295 -2.78073e-09 5.07924V5.8142C-2.78073e-09 5.87065 0.0206157 5.91929 0.0617786 5.96061C0.102987 6.00179 0.151736 6.0222 0.208093 6.0222H0.82597C1.09912 6.98041 1.61513 7.74253 2.3739 8.30831C3.13271 8.87429 4.01939 9.1571 5.03391 9.1571C5.11637 9.1571 5.19979 9.15508 5.28437 9.15057C5.36911 9.14622 5.44809 9.13965 5.52183 9.13109C5.5955 9.1225 5.66816 9.11284 5.73971 9.10193C5.8112 9.09102 5.87628 9.08036 5.93475 9.06933C5.9933 9.05858 6.04858 9.04776 6.10057 9.03699C6.15264 9.02601 6.19925 9.01423 6.2405 9.00113C6.28167 8.98828 6.3162 8.97844 6.34449 8.97206C6.37272 8.96553 6.39547 8.9578 6.4127 8.94931L6.44529 8.94275C6.49302 8.92543 6.52988 8.89395 6.55584 8.84835C6.58188 8.80308 6.58826 8.75422 6.57532 8.70222Z" transform="translate(165.138 110.575)" fill="#8E54E9"/>
<rect width="68.6069" height="5" transform="translate(106.388 45.2769)" fill="#EFEFEF"/>
<rect width="68.6069" height="5" transform="translate(106.388 55.2295)" fill="#EFEFEF"/>
<rect width="68.6069" height="5" transform="translate(106.388 65.1826)" fill="#EFEFEF"/>
<rect width="68.6069" height="5" transform="translate(106.388 81.7197)" fill="#EFEFEF"/>
<rect width="68.6069" height="5" transform="translate(106.388 91.6724)" fill="#EFEFEF"/>
<rect width="68.6069" height="5" transform="translate(106.388 102.662)" fill="#EFEFEF"/>
<rect width="53.2877" height="5" transform="translate(106.388 112.615)" fill="#EFEFEF"/>
<g filter="url(#filter0_d)">
<path fill-rule="evenodd" clip-rule="evenodd" d="M95.459 75.3065H0V49.7388C0.0400391 49.5671 0.0605469 49.3826 0.0605469 49.1852V46.4032C0.0605469 46.2058 0.0400391 46.0217 0 45.8507V0H95.459C100.982 0 105.459 4.47717 105.459 10V65.3065C105.459 70.8293 100.982 75.3065 95.459 75.3065ZM1.78418 50.642C2.16016 50.9991 2.66504 51.1776 3.29785 51.1776C3.93066 51.1776 4.43457 50.9991 4.81055 50.642C5.19238 50.2786 5.38379 49.793 5.38379 49.1852V46.4032C5.38379 45.7955 5.19238 45.313 4.81055 44.9559C4.43457 44.5988 3.93066 44.4202 3.29785 44.4202C2.66504 44.4202 2.16016 44.5988 1.78418 44.9559C1.41504 45.313 1.22949 45.7955 1.22949 46.4032V49.1852C1.22949 49.793 1.41504 50.2786 1.78418 50.642ZM4.16211 50.0874C3.94922 50.2942 3.66113 50.3976 3.29785 50.3976C2.94629 50.3976 2.66504 50.2942 2.45117 50.0874C2.23828 49.8744 2.13184 49.5924 2.13184 49.2416V46.3656C2.13184 46.0148 2.23828 45.736 2.45117 45.5292C2.66504 45.3162 2.94629 45.2096 3.29785 45.2096C3.66113 45.2096 3.94922 45.3162 4.16211 45.5292C4.375 45.736 4.48145 46.0148 4.48145 46.3656V49.2416C4.48145 49.5924 4.375 49.8744 4.16211 50.0874ZM14.2656 51.1776C13.6328 51.1776 13.1279 50.9991 12.752 50.642C12.3828 50.2786 12.1973 49.793 12.1973 49.1852V46.4032C12.1973 45.7955 12.3828 45.313 12.752 44.9559C13.1279 44.5988 13.6328 44.4202 14.2656 44.4202C14.8984 44.4202 15.4023 44.5988 15.7783 44.9559C16.1611 45.313 16.3516 45.7955 16.3516 46.4032V49.1852C16.3516 49.793 16.1611 50.2786 15.7783 50.642C15.4023 50.9991 14.8984 51.1776 14.2656 51.1776ZM14.2656 50.3976C14.6289 50.3976 14.917 50.2942 15.1299 50.0874C15.3428 49.8744 15.4492 49.5924 15.4492 49.2416V46.3656C15.4492 46.0148 15.3428 45.736 15.1299 45.5292C14.917 45.3162 14.6289 45.2096 14.2656 45.2096C13.9141 45.2096 13.6328 45.3162 13.4199 45.5292C13.2061 45.736 13.0996 46.0148 13.0996 46.3656V49.2416C13.0996 49.5924 13.2061 49.8744 13.4199 50.0874C13.6328 50.2942 13.9141 50.3976 14.2656 50.3976ZM18.0752 50.642C18.4512 50.9991 18.9561 51.1776 19.5889 51.1776C20.2217 51.1776 20.7256 50.9991 21.1016 50.642C21.4844 50.2786 21.6748 49.793 21.6748 49.1852V46.4032C21.6748 45.7955 21.4844 45.313 21.1016 44.9559C20.7256 44.5988 20.2217 44.4202 19.5889 44.4202C18.9561 44.4202 18.4512 44.5988 18.0752 44.9559C17.7061 45.313 17.5215 45.7955 17.5215 46.4032V49.1852C17.5215 49.793 17.7061 50.2786 18.0752 50.642ZM20.4531 50.0874C20.2402 50.2942 19.9521 50.3976 19.5889 50.3976C19.2383 50.3976 18.9561 50.2942 18.7432 50.0874C18.5303 49.8744 18.4229 49.5924 18.4229 49.2416V46.3656C18.4229 46.0148 18.5303 45.736 18.7432 45.5292C18.9561 45.3162 19.2383 45.2096 19.5889 45.2096C19.9521 45.2096 20.2402 45.3162 20.4531 45.5292C20.666 45.736 20.7725 46.0148 20.7725 46.3656V49.2416C20.7725 49.5924 20.666 49.8744 20.4531 50.0874ZM24.9121 51.1776C24.2793 51.1776 23.7744 50.9991 23.3984 50.642C23.0293 50.2786 22.8447 49.793 22.8447 49.1852V46.4032C22.8447 45.7955 23.0293 45.313 23.3984 44.9559C23.7744 44.5988 24.2793 44.4202 24.9121 44.4202C25.5449 44.4202 26.0488 44.5988 26.4248 44.9559C26.8076 45.313 26.998 45.7955 26.998 46.4032V49.1852C26.998 49.793 26.8076 50.2786 26.4248 50.642C26.0488 50.9991 25.5449 51.1776 24.9121 51.1776ZM24.9121 50.3976C25.2754 50.3976 25.5635 50.2942 25.7764 50.0874C25.9902 49.8744 26.0967 49.5924 26.0967 49.2416V46.3656C26.0967 46.0148 25.9902 45.736 25.7764 45.5292C25.5635 45.3162 25.2754 45.2096 24.9121 45.2096C24.5615 45.2096 24.2793 45.3162 24.0664 45.5292C23.8535 45.736 23.7471 46.0148 23.7471 46.3656V49.2416C23.7471 49.5924 23.8535 49.8744 24.0664 50.0874C24.2793 50.2942 24.5615 50.3976 24.9121 50.3976ZM28.7227 50.642C29.0986 50.9991 29.6025 51.1776 30.2354 51.1776C30.8682 51.1776 31.373 50.9991 31.749 50.642C32.1309 50.2786 32.3223 49.793 32.3223 49.1852V46.4032C32.3223 45.7955 32.1309 45.313 31.749 44.9559C31.373 44.5988 30.8682 44.4202 30.2354 44.4202C29.6025 44.4202 29.0986 44.5988 28.7227 44.9559C28.3525 45.313 28.168 45.7955 28.168 46.4032V49.1852C28.168 49.793 28.3525 50.2786 28.7227 50.642ZM31.0996 50.0874C30.8867 50.2942 30.5986 50.3976 30.2354 50.3976C29.8848 50.3976 29.6025 50.2942 29.3896 50.0874C29.1768 49.8744 29.0703 49.5924 29.0703 49.2416V46.3656C29.0703 46.0148 29.1768 45.736 29.3896 45.5292C29.6025 45.3162 29.8848 45.2096 30.2354 45.2096C30.5986 45.2096 30.8867 45.3162 31.0996 45.5292C31.3135 45.736 31.4199 46.0148 31.4199 46.3656V49.2416C31.4199 49.5924 31.3135 49.8744 31.0996 50.0874ZM41.2031 51.1776C40.5703 51.1776 40.0664 50.9991 39.6904 50.642C39.3203 50.2786 39.1357 49.793 39.1357 49.1852V46.4032C39.1357 45.7955 39.3203 45.313 39.6904 44.9559C40.0664 44.5988 40.5703 44.4202 41.2031 44.4202C41.8359 44.4202 42.3408 44.5988 42.7168 44.9559C43.0986 45.313 43.29 45.7955 43.29 46.4032V49.1852C43.29 49.793 43.0986 50.2786 42.7168 50.642C42.3408 50.9991 41.8359 51.1776 41.2031 51.1776ZM41.2031 50.3976C41.5664 50.3976 41.8545 50.2942 42.0684 50.0874C42.2812 49.8744 42.3877 49.5924 42.3877 49.2416V46.3656C42.3877 46.0148 42.2812 45.736 42.0684 45.5292C41.8545 45.3162 41.5664 45.2096 41.2031 45.2096C40.8525 45.2096 40.5703 45.3162 40.3574 45.5292C40.1445 45.736 40.0381 46.0148 40.0381 46.3656V49.2416C40.0381 49.5924 40.1445 49.8744 40.3574 50.0874C40.5703 50.2942 40.8525 50.3976 41.2031 50.3976ZM45.0137 50.642C45.3896 50.9991 45.8936 51.1776 46.5264 51.1776C47.1592 51.1776 47.6641 50.9991 48.04 50.642C48.4219 50.2786 48.6133 49.793 48.6133 49.1852V46.4032C48.6133 45.7955 48.4219 45.313 48.04 44.9559C47.6641 44.5988 47.1592 44.4202 46.5264 44.4202C45.8936 44.4202 45.3896 44.5988 45.0137 44.9559C44.6436 45.313 44.459 45.7955 44.459 46.4032V49.1852C44.459 49.793 44.6436 50.2786 45.0137 50.642ZM47.3916 50.0874C47.1787 50.2942 46.8896 50.3976 46.5264 50.3976C46.1758 50.3976 45.8936 50.2942 45.6807 50.0874C45.4678 49.8744 45.3613 49.5924 45.3613 49.2416V46.3656C45.3613 46.0148 45.4678 45.736 45.6807 45.5292C45.8936 45.3162 46.1758 45.2096 46.5264 45.2096C46.8896 45.2096 47.1787 45.3162 47.3916 45.5292C47.6045 45.736 47.7109 46.0148 47.7109 46.3656V49.2416C47.7109 49.5924 47.6045 49.8744 47.3916 50.0874ZM51.8496 51.1776C51.2168 51.1776 50.7129 50.9991 50.3369 50.642C49.9668 50.2786 49.7822 49.793 49.7822 49.1852V46.4032C49.7822 45.7955 49.9668 45.313 50.3369 44.9559C50.7129 44.5988 51.2168 44.4202 51.8496 44.4202C52.4824 44.4202 52.9873 44.5988 53.3633 44.9559C53.7451 45.313 53.9365 45.7955 53.9365 46.4032V49.1852C53.9365 49.793 53.7451 50.2786 53.3633 50.642C52.9873 50.9991 52.4824 51.1776 51.8496 51.1776ZM51.8496 50.3976C52.2139 50.3976 52.502 50.2942 52.7148 50.0874C52.9277 49.8744 53.0342 49.5924 53.0342 49.2416V46.3656C53.0342 46.0148 52.9277 45.736 52.7148 45.5292C52.502 45.3162 52.2139 45.2096 51.8496 45.2096C51.499 45.2096 51.2168 45.3162 51.0039 45.5292C50.791 45.736 50.6846 46.0148 50.6846 46.3656V49.2416C50.6846 49.5924 50.791 49.8744 51.0039 50.0874C51.2168 50.2942 51.499 50.3976 51.8496 50.3976ZM55.6602 50.642C56.0361 50.9991 56.541 51.1776 57.1738 51.1776C57.8066 51.1776 58.3105 50.9991 58.6865 50.642C59.0684 50.2786 59.2598 49.793 59.2598 49.1852V46.4032C59.2598 45.7955 59.0684 45.313 58.6865 44.9559C58.3105 44.5988 57.8066 44.4202 57.1738 44.4202C56.541 44.4202 56.0361 44.5988 55.6602 44.9559C55.291 45.313 55.1055 45.7955 55.1055 46.4032V49.1852C55.1055 49.793 55.291 50.2786 55.6602 50.642ZM58.0381 50.0874C57.8252 50.2942 57.5371 50.3976 57.1738 50.3976C56.8223 50.3976 56.541 50.2942 56.3271 50.0874C56.1143 49.8744 56.0078 49.5924 56.0078 49.2416V46.3656C56.0078 46.0148 56.1143 45.736 56.3271 45.5292C56.541 45.3162 56.8223 45.2096 57.1738 45.2096C57.5371 45.2096 57.8252 45.3162 58.0381 45.5292C58.251 45.736 58.3574 46.0148 58.3574 46.3656V49.2416C58.3574 49.5924 58.251 49.8744 58.0381 50.0874ZM68.1416 51.1776C67.5088 51.1776 67.0039 50.9991 66.6279 50.642C66.2588 50.2786 66.0732 49.793 66.0732 49.1852V46.4032C66.0732 45.7955 66.2588 45.313 66.6279 44.9559C67.0039 44.5988 67.5088 44.4202 68.1416 44.4202C68.7744 44.4202 69.2783 44.5988 69.6543 44.9559C70.0371 45.313 70.2275 45.7955 70.2275 46.4032V49.1852C70.2275 49.793 70.0371 50.2786 69.6543 50.642C69.2783 50.9991 68.7744 51.1776 68.1416 51.1776ZM68.1416 50.3976C68.5049 50.3976 68.793 50.2942 69.0059 50.0874C69.2188 49.8744 69.3252 49.5924 69.3252 49.2416V46.3656C69.3252 46.0148 69.2188 45.736 69.0059 45.5292C68.793 45.3162 68.5049 45.2096 68.1416 45.2096C67.79 45.2096 67.5088 45.3162 67.2959 45.5292C67.082 45.736 66.9756 46.0148 66.9756 46.3656V49.2416C66.9756 49.5924 67.082 49.8744 67.2959 50.0874C67.5088 50.2942 67.79 50.3976 68.1416 50.3976ZM71.9512 50.642C72.3271 50.9991 72.832 51.1776 73.4648 51.1776C74.0977 51.1776 74.6016 50.9991 74.9775 50.642C75.3604 50.2786 75.5508 49.793 75.5508 49.1852V46.4032C75.5508 45.7955 75.3604 45.313 74.9775 44.9559C74.6016 44.5988 74.0977 44.4202 73.4648 44.4202C72.832 44.4202 72.3271 44.5988 71.9512 44.9559C71.582 45.313 71.3975 45.7955 71.3975 46.4032V49.1852C71.3975 49.793 71.582 50.2786 71.9512 50.642ZM74.3291 50.0874C74.1162 50.2942 73.8281 50.3976 73.4648 50.3976C73.1133 50.3976 72.832 50.2942 72.6191 50.0874C72.4053 49.8744 72.2988 49.5924 72.2988 49.2416V46.3656C72.2988 46.0148 72.4053 45.736 72.6191 45.5292C72.832 45.3162 73.1133 45.2096 73.4648 45.2096C73.8281 45.2096 74.1162 45.3162 74.3291 45.5292C74.542 45.736 74.6484 46.0148 74.6484 46.3656V49.2416C74.6484 49.5924 74.542 49.8744 74.3291 50.0874ZM78.7881 51.1776C78.1553 51.1776 77.6504 50.9991 77.2744 50.642C76.9053 50.2786 76.7207 49.793 76.7207 49.1852V46.4032C76.7207 45.7955 76.9053 45.313 77.2744 44.9559C77.6504 44.5988 78.1553 44.4202 78.7881 44.4202C79.4209 44.4202 79.9248 44.5988 80.3008 44.9559C80.6836 45.313 80.874 45.7955 80.874 46.4032V49.1852C80.874 49.793 80.6836 50.2786 80.3008 50.642C79.9248 50.9991 79.4209 51.1776 78.7881 51.1776ZM78.7881 50.3976C79.1514 50.3976 79.4395 50.2942 79.6523 50.0874C79.8652 49.8744 79.9727 49.5924 79.9727 49.2416V46.3656C79.9727 46.0148 79.8652 45.736 79.6523 45.5292C79.4395 45.3162 79.1514 45.2096 78.7881 45.2096C78.4375 45.2096 78.1553 45.3162 77.9424 45.5292C77.7295 45.736 77.623 46.0148 77.623 46.3656V49.2416C77.623 49.5924 77.7295 49.8744 77.9424 50.0874C78.1553 50.2942 78.4375 50.3976 78.7881 50.3976ZM82.5986 50.642C82.9736 50.9991 83.4785 51.1776 84.1113 51.1776C84.7441 51.1776 85.249 50.9991 85.624 50.642C86.0068 50.2786 86.1982 49.793 86.1982 49.1852V46.4032C86.1982 45.7955 86.0068 45.313 85.624 44.9559C85.249 44.5988 84.7441 44.4202 84.1113 44.4202C83.4785 44.4202 82.9736 44.5988 82.5986 44.9559C82.2285 45.313 82.0439 45.7955 82.0439 46.4032V49.1852C82.0439 49.793 82.2285 50.2786 82.5986 50.642ZM84.9756 50.0874C84.7627 50.2942 84.4746 50.3976 84.1113 50.3976C83.7607 50.3976 83.4785 50.2942 83.2656 50.0874C83.0527 49.8744 82.9463 49.5924 82.9463 49.2416V46.3656C82.9463 46.0148 83.0527 45.736 83.2656 45.5292C83.4785 45.3162 83.7607 45.2096 84.1113 45.2096C84.4746 45.2096 84.7627 45.3162 84.9756 45.5292C85.1895 45.736 85.2959 46.0148 85.2959 46.3656V49.2416C85.2959 49.5924 85.1895 49.8744 84.9756 50.0874Z" transform="translate(17 52.252)" fill="#8E54E9"/>
</g>
<rect width="105.459" height="17.4842" transform="translate(17 71.3617)" fill="#733DC8"/>
<rect width="30.8526" height="9.59435" transform="translate(72.3652 110.138)" fill="#C6DFE1"/>
<defs>
<filter id="filter0_d" x="0" y="36.252" width="145.459" height="115.307" filterUnits="userSpaceOnUse" color-interpolation-filters="sRGB">
<feFlood flood-opacity="0" result="BackgroundImageFix"/>
<feColorMatrix in="SourceAlpha" type="matrix" values="0 0 0 0 0 0 0 0 0 0 0 0 0 0 0 0 0 0 255 0"/>
<feOffset dx="3" dy="4"/>
<feGaussianBlur stdDeviation="10"/>
<feColorMatrix type="matrix" values="0 0 0 0 0 0 0 0 0 0 0 0 0 0 0 0 0 0 0.1 0"/>
<feBlend mode="normal" in2="BackgroundImageFix" result="effect1_dropShadow"/>
<feBlend mode="normal" in="SourceGraphic" in2="effect1_dropShadow" result="shape"/>
</filter>
</defs>
</svg>
