<svg width="12" height="15" viewBox="0 0 12 15" fill="none" xmlns="http://www.w3.org/2000/svg">
<path d="M4.41739 14.5011H6.937C9.16 14.5011 10.9964 12.8576 10.9964 10.8275V4.1676C10.9964 2.13749 9.16 0.493994 6.937 0.493994H4.41739C2.19439 0.493994 0.358008 2.13749 0.358008 4.1676V10.8275C0.358008 12.8576 2.19439 14.5011 4.41739 14.5011ZM9.71655 4.1676V5.69197H6.31711V1.66862H6.937C8.47542 1.66862 9.71655 2.80279 9.71655 4.1676ZM4.41739 1.66862H5.03728V5.69197H1.63784V4.1676C1.63784 2.80279 2.87898 1.66862 4.41739 1.66862ZM1.63784 6.86659H9.71655V10.8275C9.71655 12.1923 8.47542 13.3265 6.937 13.3265H4.41739C2.87898 13.3265 1.63784 12.1923 1.63784 10.8275V6.86659Z" fill="#34A953" stroke="#34A953" stroke-width="0.2"/>
</svg>
