<?xml version="1.0" encoding="utf-8"?>
<!-- Generator: Adobe Illustrator 16.0.0, SVG Export Plug-In . SVG Version: 6.00 Build 0)  -->
<!DOCTYPE svg PUBLIC "-//W3C//DTD SVG 1.1//EN" "http://www.w3.org/Graphics/SVG/1.1/DTD/svg11.dtd">
<svg version="1.1" id="Layer_1" xmlns="http://www.w3.org/2000/svg" xmlns:xlink="http://www.w3.org/1999/xlink" x="0px" y="0px"
	 width="15.467px" height="20.547px" viewBox="0.426 0.554 15.467 20.547" enable-background="new 0.426 0.554 15.467 20.547"
	 xml:space="preserve">
<path fill="#EB5757" stroke="#EB5757" stroke-width="0.05" d="M6.305,21.076h3.708c3.218,0,5.854-2.391,5.854-5.316V5.896
	c0-2.927-2.637-5.317-5.854-5.317H6.305c-3.218,0-5.854,2.391-5.854,5.317v9.863C0.451,18.686,3.087,21.076,6.305,21.076z
	 M14.229,5.896v2.38H8.979V2.072h1.034C12.334,2.072,14.229,3.795,14.229,5.896z M6.305,2.072H7.34v6.205H2.091v-2.38
	C2.091,3.795,3.985,2.072,6.305,2.072z M2.091,9.77h12.138v5.99c0,2.1-1.895,3.823-4.215,3.823H6.305
	c-2.32,0-4.214-1.724-4.214-3.823V9.77z"/>
</svg>
