<svg width="25" height="21" viewBox="0 0 25 21" fill="none" xmlns="http://www.w3.org/2000/svg">
<path d="M3.3216 11.1076V15.6003C3.3216 16.8323 3.82748 18.0138 4.72794 18.885C5.6284 19.7561 6.84969 20.2455 8.12313 20.2455C9.39658 20.2455 10.6179 19.7561 11.5183 18.885C12.4188 18.0138 12.9247 16.8323 12.9247 15.6003V4.64522C12.9247 3.91493 13.2245 3.21455 13.7583 2.69816C14.2921 2.18177 15.016 1.89167 15.7709 1.89167C16.5257 1.89167 17.2497 2.18177 17.7835 2.69816C18.3172 3.21455 18.6171 3.91493 18.6171 4.64522V9.13793L16.6764 7.25808L15.293 8.59407L19.5948 12.7605L23.8965 8.59407L22.5131 7.25808L20.5724 9.13793V4.64522C20.5724 3.41323 20.0665 2.2317 19.1661 1.36055C18.2656 0.489406 17.0443 4.51008e-08 15.7709 4.51008e-08C14.4974 4.51008e-08 13.2761 0.489406 12.3757 1.36055C11.4752 2.2317 10.9693 3.41323 10.9693 4.64522V15.6074C10.9693 16.3377 10.6695 17.0381 10.1357 17.5545C9.60194 18.0709 8.878 18.361 8.12313 18.361C7.36827 18.361 6.64433 18.0709 6.11056 17.5545C5.57679 17.0381 5.27692 16.3377 5.27692 15.6074V11.1147L7.21758 12.9946L8.60097 11.6586L4.29926 7.48272L1.16546e-09 11.6491L1.38339 12.9851L3.3216 11.1076Z" transform="translate(0.823242 0.604004)" fill="#273138"/>
</svg>
