<svg width="16" height="17" viewBox="0 0 16 17" fill="none" xmlns="http://www.w3.org/2000/svg">
<path d="M1.29382 5.5337L1.29375 5.53374L1.29618 5.53759C1.58928 6.00086 1.97806 6.37027 2.46086 6.64487C2.94548 6.92051 3.47442 7.05815 4.04532 7.05815C4.61622 7.05815 5.14515 6.92051 5.62978 6.64487C6.11312 6.36995 6.49554 5.99979 6.77481 5.53515L6.77482 5.53515L6.77567 5.5337C7.05492 5.05456 7.19449 4.53138 7.19449 3.96657C7.19449 3.40206 7.05505 2.88545 6.77525 2.41962C6.49624 1.94119 6.11382 1.56359 5.62978 1.28828C5.14515 1.01264 4.61622 0.875 4.04532 0.875C3.47442 0.875 2.94548 1.01264 2.46086 1.28828C1.97713 1.56341 1.58818 1.94048 1.29527 2.41792L1.29526 2.41792L1.29468 2.41889C1.01458 2.88491 0.875 3.40177 0.875 3.96657C0.875 4.53138 1.01456 5.05456 1.29382 5.5337ZM3.2782 15.8058L3.28174 15.8127L3.28612 15.8192C3.34986 15.9137 3.46113 15.937 3.55891 15.937H4.2568C4.33575 15.937 4.41167 15.9218 4.47782 15.8837C4.54342 15.8459 4.59145 15.79 4.62241 15.7219L12.6125 1.50167C12.6613 1.4205 12.6972 1.30971 12.6337 1.20848C12.5757 1.10094 12.4666 1.06302 12.3565 1.06302H11.6798C11.532 1.06302 11.4129 1.13904 11.3247 1.26102L11.324 1.26055L11.3171 1.27291L3.3029 15.4983C3.24676 15.5917 3.22496 15.7006 3.2782 15.8058ZM5.37439 5.29826L5.37437 5.29825L5.37278 5.29987C5.01655 5.66482 4.57691 5.84715 4.04532 5.84715C3.51366 5.84715 3.06604 5.6647 2.6951 5.29826C2.32421 4.93188 2.14011 4.49041 2.14011 3.96657C2.14011 3.42793 2.32476 2.9877 2.69347 2.63647L2.69348 2.63648L2.6951 2.63489C3.06604 2.26845 3.51366 2.086 4.04532 2.086C4.57691 2.086 5.01655 2.26833 5.37278 2.63328L5.37277 2.63329L5.37439 2.63489C5.74527 3.00127 5.92938 3.44274 5.92938 3.96657C5.92938 4.49041 5.74527 4.93188 5.37439 5.29826ZM9.24548 14.5797L9.24545 14.5797L9.24693 14.5821C9.53984 15.0595 9.92879 15.4366 10.4125 15.7117C10.8971 15.9874 11.4261 16.125 11.997 16.125C12.5676 16.125 13.0899 15.9875 13.561 15.7113C14.045 15.4359 14.4273 15.0582 14.7062 14.5797C14.9854 14.1005 15.125 13.5773 15.125 13.0125C15.125 12.4613 14.9853 11.9518 14.7058 11.4865C14.4268 11.0081 14.0443 10.6305 13.5603 10.3551C13.0762 10.0798 12.5544 9.94185 11.997 9.94185C11.4261 9.94185 10.8971 10.0795 10.4125 10.3551C9.92879 10.6303 9.53984 11.0073 9.24692 11.4848L9.24633 11.4857C8.96655 11.9512 8.82666 12.461 8.82666 13.0125C8.82666 13.5773 8.96622 14.1005 9.24548 14.5797ZM13.3261 14.3651L13.326 14.3651L13.3244 14.3667C12.9682 14.7317 12.5286 14.914 11.997 14.914C11.4503 14.914 10.9959 14.7309 10.6256 14.3651C10.2554 13.9994 10.0706 13.5512 10.0706 13.0125C10.0706 12.4888 10.2546 12.0552 10.624 11.7033L10.624 11.7033L10.6256 11.7017C10.9959 11.3359 11.4503 11.1529 11.997 11.1529C12.5136 11.1529 12.9544 11.3346 13.3261 11.7017L13.326 11.7018L13.3277 11.7033C13.6971 12.0552 13.881 12.4888 13.881 13.0125C13.881 13.5512 13.6963 13.9994 13.3261 14.3651Z" fill="#3B5998" stroke="#3B5998" stroke-width="0.25"/>
</svg>
