<svg width="13" height="25" viewBox="0 0 13 25" fill="none" xmlns="http://www.w3.org/2000/svg">
<path d="M11.8677 11.4005H7.13566V9.72761C7.13566 9.44083 6.94447 9.24963 6.65768 9.24963C6.37089 9.24963 6.1797 9.44083 6.1797 9.72761V11.4005H1.44771C1.16092 11.4005 0.969727 11.5917 0.969727 11.8785V23.4934C0.969727 23.7802 1.16092 23.9714 1.44771 23.9714H11.8199C12.1066 23.9714 12.2978 23.7802 12.2978 23.4934V11.8785C12.3456 11.5917 12.1066 11.4005 11.8677 11.4005ZM11.3897 23.0154H1.92569V20.3388H11.3419V23.0154H11.3897ZM11.3897 19.3828H1.92569V15.9891H11.3419V19.3828H11.3897ZM11.3897 15.0332H1.92569V12.3565H11.3419V15.0332H11.3897Z" fill="#3B5998" stroke="#3B5998" stroke-width="0.3"/>
<path d="M5.70159 9.1063C5.74938 9.1063 5.79718 9.1063 5.84498 9.1063C6.03617 9.0585 6.17957 8.81951 6.17957 8.62832C6.13177 8.00694 6.27516 7.33777 6.65755 6.81199C6.99213 7.33777 7.18332 7.95915 7.13552 8.62832C7.13552 8.86731 7.23112 9.0585 7.47011 9.1063C7.6613 9.15409 7.90029 9.1063 8.04369 8.86731C9.47762 6.38181 9.09524 3.17935 7.03993 1.17184C6.84874 0.980644 6.56195 0.980644 6.37076 1.17184C4.31545 3.22715 3.88526 6.38181 5.367 8.9151C5.4148 9.0585 5.55819 9.1063 5.70159 9.1063ZM6.65755 2.22339C7.7569 3.51394 8.13928 5.23466 7.8047 6.85979C7.6135 6.42961 7.37451 6.04723 7.03993 5.71264C6.94433 5.61705 6.84874 5.56925 6.70534 5.56925C6.56195 5.56925 6.46635 5.61705 6.37076 5.71264C6.03617 6.04723 5.74938 6.42961 5.55819 6.85979C5.17581 5.23466 5.55819 3.51394 6.65755 2.22339Z" fill="#3B5998" stroke="#3B5998" stroke-width="0.3"/>
</svg>
