<svg width="12" height="14" viewBox="0 0 12 14" fill="none" xmlns="http://www.w3.org/2000/svg">
<path d="M10.0474 3.81335L10.8795 2.97425C11.1006 2.7512 11.1006 2.38963 10.8795 2.16657C10.6583 1.94352 10.2997 1.94352 10.0785 2.16657L9.24647 3.00567C8.40704 2.31251 7.36824 1.85727 6.23087 1.74274V1.14241H6.79729C7.10995 1.14241 7.3637 0.886507 7.3637 0.571203C7.3637 0.255899 7.10995 0 6.79729 0H4.53162C4.21896 0 3.9652 0.255899 3.9652 0.571203C3.9652 0.886507 4.21896 1.14241 4.53162 1.14241H5.09804V1.74274C2.23961 2.03006 0 4.46881 0 7.42564C0 10.5752 2.54095 13.1377 5.66417 13.1377C8.78739 13.1377 11.3283 10.5752 11.3283 7.42564C11.3283 6.05618 10.8472 4.79839 10.0474 3.81335ZM5.66417 11.9953C3.1657 11.9953 1.13283 9.94521 1.13283 7.42564C1.13283 4.90606 3.1657 2.85601 5.66417 2.85601C8.16263 2.85601 10.1955 4.90606 10.1955 7.42564C10.1955 9.94521 8.16263 11.9953 5.66417 11.9953Z" transform="translate(0.539551 0.516907)" fill="#93A1AD"/>
<path d="M2.2833 2.92741H1.13287V0.571203C1.13287 0.255899 0.879107 0 0.566435 0C0.253763 0 0 0.255899 0 0.571203V3.49862C0 3.81392 0.253763 4.06982 0.566435 4.06982H2.2833C2.59597 4.06982 2.84974 3.81392 2.84974 3.49862C2.84974 3.18331 2.59626 2.92741 2.2833 2.92741Z" transform="translate(5.63794 4.44391)" fill="#93A1AD"/>
</svg>
