<svg width="17" height="17" viewBox="0 0 17 17" fill="none" xmlns="http://www.w3.org/2000/svg">
<path d="M7.80912 0C3.47861 0 0 3.47858 0 7.80905C0 12.1395 3.47861 15.6181 7.80912 15.6181C12.1396 15.6181 15.6182 12.1395 15.6182 7.80905C15.6182 3.47858 12.1396 0 7.80912 0ZM12.3171 5.35985L6.63776 11.2521C6.56676 11.3231 6.49577 11.3586 6.38928 11.3586C6.2828 11.3586 6.17631 11.3231 6.14081 11.2521L3.37212 8.27049L3.30113 8.1995C3.23014 8.12851 3.19464 8.02202 3.19464 7.95103C3.19464 7.88004 3.23014 7.77355 3.30113 7.70256L3.79807 7.20562C3.94006 7.06364 4.15303 7.06364 4.29502 7.20562L4.33051 7.24112L6.2828 9.33536C6.35379 9.40635 6.46028 9.40635 6.53127 9.33536L11.2877 4.40146H11.3232C11.4652 4.25948 11.6782 4.25948 11.8202 4.40146L12.3171 4.8984C12.4591 5.00489 12.4591 5.21786 12.3171 5.35985Z" transform="translate(0.854736 0.539062)" fill="#13D60F"/>
</svg>
