<svg width="12" height="16" viewBox="0 0 12 16" fill="none" xmlns="http://www.w3.org/2000/svg">
<path d="M4.95939 14.9071H7.47899C9.70199 14.9071 11.5384 13.2636 11.5384 11.2335V4.57361C11.5384 2.5435 9.70199 0.9 7.47899 0.9H4.95939C2.73639 0.9 0.9 2.5435 0.9 4.57361V11.2335C0.9 13.2636 2.73639 14.9071 4.95939 14.9071ZM10.2585 4.57361V6.09798H6.85911V2.07462H7.47899C9.01741 2.07462 10.2585 3.20879 10.2585 4.57361ZM4.95939 2.07462H5.57927V6.09798H2.17983V4.57361C2.17983 3.20879 3.42097 2.07462 4.95939 2.07462ZM2.17983 7.2726H10.2585V11.2335C10.2585 12.5983 9.01741 13.7325 7.47899 13.7325H4.95939C3.42097 13.7325 2.17983 12.5983 2.17983 11.2335V7.2726Z" fill="#3B5998" stroke="#3B5998" stroke-width="0.2"/>
</svg>
