<svg width="16" height="22" viewBox="0 0 16 22" fill="none" xmlns="http://www.w3.org/2000/svg">
<path d="M5.82892 20.4724H9.53823C12.7556 20.4724 15.3921 18.0819 15.3921 15.1552V5.29227C15.3921 2.3655 12.7556 -0.025 9.53823 -0.025H5.82892C2.61153 -0.025 -0.025 2.3655 -0.025 5.29227V15.1552C-0.025 18.0819 2.61153 20.4724 5.82892 20.4724ZM13.7524 5.29227V7.67285H8.50343V1.46835H9.53823C11.8583 1.46835 13.7524 3.19139 13.7524 5.29227ZM5.82892 1.46835H6.86372V7.67285H1.61471V5.29227C1.61471 3.19139 3.50883 1.46835 5.82892 1.46835ZM1.61471 9.1662H13.7524V15.1552C13.7524 17.256 11.8583 18.9791 9.53823 18.9791H5.82892C3.50883 18.9791 1.61471 17.256 1.61471 15.1552V9.1662Z" transform="translate(0.476074 0.604004)" fill="#273138" stroke="#13D60F" stroke-width="0.05"/>
</svg>
