<svg width="16" height="22" viewBox="0 0 16 22" fill="none" xmlns="http://www.w3.org/2000/svg">
<path d="M11.0233 17.67L11.0234 17.6699C11.6695 17.1184 12.0509 16.3897 12.1683 15.4869C12.1864 15.3972 12.2183 15.3437 12.2569 15.3155C12.2946 15.2879 12.3483 15.2774 12.4262 15.2948L12.4262 15.2949L12.4285 15.2953L14.5971 15.6734C14.6854 15.6913 14.7423 15.7254 14.776 15.7705C14.8095 15.8155 14.8256 15.8789 14.817 15.9671C14.5873 17.4484 13.9185 18.6294 12.8108 19.5131C11.7223 20.3775 10.3361 20.8115 8.64812 20.8115C7.421 20.8115 6.33986 20.5608 5.40331 20.0609C4.46667 19.5609 3.74094 18.8596 3.2251 17.9564C2.7093 17.0339 2.45065 15.966 2.45065 14.7514V13.0057C2.45065 12.9593 2.43909 12.9152 2.40718 12.8831C2.37523 12.851 2.3313 12.8393 2.28495 12.8393H0.289235C0.200605 12.8393 0.143301 12.817 0.107769 12.7813C0.0721819 12.7455 0.05 12.6877 0.05 12.5983V11.6091C0.05 11.5197 0.0721819 11.4619 0.107769 11.4261C0.143301 11.3904 0.200605 11.3681 0.289235 11.3681H2.28495C2.3313 11.3681 2.37523 11.3564 2.40718 11.3243C2.43909 11.2922 2.45065 11.2482 2.45065 11.2018V9.6597C2.45065 9.61327 2.43909 9.56925 2.40718 9.53716C2.37523 9.50501 2.3313 9.49331 2.28495 9.49331H0.289235C0.200605 9.49331 0.143301 9.47107 0.107769 9.43533C0.0721819 9.39953 0.05 9.34171 0.05 9.25236V8.26311C0.05 8.17376 0.0721819 8.11595 0.107769 8.08015C0.143301 8.04441 0.200605 8.02216 0.289235 8.02216H2.28495C2.3313 8.02216 2.37523 8.01046 2.40718 7.97831C2.43909 7.94622 2.45065 7.9022 2.45065 7.85578V6.05186C2.45065 4.85666 2.70929 3.80831 3.225 2.90525L3.22522 2.90485C3.74106 1.98236 4.46657 1.28137 5.4026 0.800966L5.4026 0.800972L5.40331 0.800593C6.33986 0.30069 7.421 0.05 8.64812 0.05C10.3747 0.05 11.78 0.493705 12.8684 1.37721L12.8687 1.37748C13.9753 2.26032 14.6248 3.45937 14.8167 4.97847V5.03352C14.8167 5.08969 14.7992 5.1323 14.7661 5.16557C14.7321 5.19977 14.6778 5.22789 14.5976 5.2461L12.4049 5.53633H12.3503C12.2947 5.53633 12.2525 5.51886 12.2195 5.48562C12.1854 5.45137 12.1574 5.3966 12.1393 5.31573C12.0218 4.43255 11.6403 3.72336 10.9944 3.19151C10.3672 2.63971 9.58388 2.36492 8.64812 2.36492C7.59547 2.36492 6.74308 2.69873 6.09605 3.36918C5.44892 4.02031 5.1273 4.88726 5.1273 5.96457V7.85578C5.1273 7.9022 5.13886 7.94622 5.17076 7.97831C5.20272 8.01046 5.24665 8.02216 5.293 8.02216H11.8875C11.9875 8.02216 12.0394 8.04749 12.064 8.08147C12.0891 8.11619 12.0982 8.177 12.0709 8.27823L11.7535 9.29432C11.7275 9.36334 11.6901 9.41186 11.6428 9.4436C11.595 9.47565 11.533 9.49331 11.4537 9.49331H5.293C5.24665 9.49331 5.20272 9.50501 5.17076 9.53716C5.13886 9.56925 5.1273 9.61327 5.1273 9.6597V11.2018C5.1273 11.2482 5.13886 11.2922 5.17076 11.3243C5.20272 11.3564 5.24665 11.3681 5.293 11.3681H10.9041C11.0041 11.3681 11.056 11.3935 11.0806 11.4274C11.1057 11.4622 11.1148 11.523 11.0875 11.6242L10.7701 12.6403C10.7441 12.7093 10.7067 12.7578 10.6594 12.7896C10.6116 12.8216 10.5496 12.8393 10.4703 12.8393H5.293C5.24665 12.8393 5.20272 12.851 5.17076 12.8831C5.13886 12.9152 5.1273 12.9593 5.1273 13.0057V14.8678C5.1273 15.9453 5.44902 16.8217 6.09579 17.492L6.09632 17.4925C6.74347 18.1435 7.59578 18.4674 8.64812 18.4674C9.60271 18.4674 10.3957 18.2026 11.0233 17.67Z" transform="translate(0.669922 0.983887)" fill="#273138" stroke="white" stroke-width="0.1"/>
</svg>
