<?xml version="1.0" encoding="utf-8"?>
<!-- Generator: Adobe Illustrator 16.0.0, SVG Export Plug-In . SVG Version: 6.00 Build 0)  -->
<!DOCTYPE svg PUBLIC "-//W3C//DTD SVG 1.1//EN" "http://www.w3.org/Graphics/SVG/1.1/DTD/svg11.dtd">
<svg version="1.1" id="Layer_1" xmlns="http://www.w3.org/2000/svg" xmlns:xlink="http://www.w3.org/1999/xlink" x="0px" y="0px"
	 width="47.367px" height="45.979px" viewBox="0.309 0 47.367 45.979" enable-background="new 0.309 0 47.367 45.979"
	 xml:space="preserve">
<path fill="#8E54E9" d="M47.676,0.216L0.309,45.979V0"/>
<path fill="#FFFFFF" d="M13.315,12.009l0.669,4.437c0.083,0.502,0.502,0.92,1.088,0.92c0.502,0,1.004-0.418,1.088-0.92l0.67-4.437
	C16.999,10.921,16.161,10,15.073,10C13.985,10,13.231,10.921,13.315,12.009z"/>
<path fill="#FFFFFF" d="M15.073,20.296c0.555,0,1.004-0.45,1.004-1.005s-0.449-1.004-1.004-1.004c-0.555,0-1.005,0.449-1.005,1.004
	S14.518,20.296,15.073,20.296z"/>
</svg>
