<?xml version="1.0" encoding="utf-8"?>
<!-- Generator: Adobe Illustrator 16.0.0, SVG Export Plug-In . SVG Version: 6.00 Build 0)  -->
<!DOCTYPE svg PUBLIC "-//W3C//DTD SVG 1.1//EN" "http://www.w3.org/Graphics/SVG/1.1/DTD/svg11.dtd">
<svg version="1.1" id="Layer_1" xmlns="http://www.w3.org/2000/svg" xmlns:xlink="http://www.w3.org/1999/xlink" x="0px" y="0px"
	 width="15px" height="15px" viewBox="298.5 388.5 15 15" enable-background="new 298.5 388.5 15 15" xml:space="preserve">
<path fill="#475993" d="M311.479,388.5h-10.958c-1.117,0-2.021,0.905-2.021,2.021v10.957c0,1.116,0.905,2.021,2.021,2.021h5.404
	l0.009-5.36h-1.393c-0.181,0-0.328-0.146-0.329-0.327l-0.006-1.728c-0.001-0.182,0.146-0.33,0.329-0.33h1.39v-1.669
	c0-1.938,1.184-2.993,2.912-2.993h1.418c0.182,0,0.328,0.147,0.328,0.329v1.457c0,0.181-0.146,0.329-0.328,0.329l-0.87,0
	c-0.94,0-1.122,0.446-1.122,1.102v1.445h2.065c0.196,0,0.35,0.172,0.326,0.367l-0.205,1.728c-0.02,0.166-0.159,0.29-0.326,0.29
	h-1.852l-0.009,5.36h3.216c1.116,0,2.021-0.905,2.021-2.021v-10.957C313.5,389.405,312.596,388.5,311.479,388.5z"/>
</svg>
