<?xml version="1.0" encoding="utf-8"?>
<!-- Generator: Adobe Illustrator 16.0.0, SVG Export Plug-In . SVG Version: 6.00 Build 0)  -->
<!DOCTYPE svg PUBLIC "-//W3C//DTD SVG 1.1//EN" "http://www.w3.org/Graphics/SVG/1.1/DTD/svg11.dtd">
<svg version="1.1" id="Layer_1" xmlns="http://www.w3.org/2000/svg" xmlns:xlink="http://www.w3.org/1999/xlink" x="0px" y="0px"
	 width="8.91px" height="14.255px" viewBox="0.199 0.292 8.91 14.255" enable-background="new 0.199 0.292 8.91 14.255"
	 xml:space="preserve">
<path fill="#AFBDD4" d="M9.109,4.747c0-2.461-1.994-4.455-4.456-4.455c-2.458,0-4.455,1.994-4.455,4.455
	c0,2.154,1.533,3.952,3.564,4.365v1.871H1.981v1.782h1.782v1.781h1.782v-1.781h1.781v-1.782H5.545V9.112
	C7.577,8.699,9.109,6.901,9.109,4.747z M4.654,7.42c-1.474,0-2.673-1.199-2.673-2.673c0-1.474,1.199-2.673,2.673-2.673
	c1.474,0,2.672,1.199,2.672,2.673C7.326,6.221,6.128,7.42,4.654,7.42z"/>
</svg>
