<svg width="30" height="30" viewBox="0 0 30 30" fill="none" xmlns="http://www.w3.org/2000/svg">
<path d="M6.49719 9.79931L5.47672 13.6089L1.74692 13.6878C0.632255 11.6203 0 9.2549 0 6.74122C0 4.31052 0.591143 2.01832 1.63898 3.07544e-07H1.63979L4.96035 0.608778L6.41496 3.90942C6.11052 4.79699 5.94458 5.74978 5.94458 6.74122C5.94469 7.81724 6.1396 8.84818 6.49719 9.79931Z" transform="translate(0.580811 8.51953)" fill="#FBBB00"/>
<path d="M14.0799 -2.93565e-07C14.2483 0.886714 14.3361 1.80246 14.3361 2.73836C14.3361 3.7878 14.2257 4.81148 14.0155 5.79891C13.302 9.15904 11.4374 12.0931 8.85454 14.1694L8.85374 14.1686L4.67131 13.9552L4.07937 10.26C5.79324 9.2549 7.13265 7.68193 7.83819 5.79891H-5.31212e-07V-2.93565e-07H7.95254H14.0799Z" transform="translate(15.5608 12.522)" fill="#518EF8"/>
<path d="M22.0873 8.37213L22.0881 8.37294C19.5761 10.3921 16.3851 11.6002 12.9114 11.6002C7.32916 11.6002 2.47582 8.48007 4.45589e-08 3.88846L4.75027 -1.9571e-07C5.98815 3.30373 9.17513 5.65553 12.9114 5.65553C14.5173 5.65553 16.0219 5.2214 17.3129 4.46352L22.0873 8.37213Z" transform="translate(2.32727 18.3198)" fill="#28B446"/>
<path d="M22.3757 3.37462L17.627 7.26228C16.2909 6.4271 14.7115 5.94464 13.0193 5.94464C9.1985 5.94464 5.95191 8.40431 4.77604 11.8265L0.000801655 7.9171H3.14533e-08C2.43958 3.21355 7.35413 0 13.0193 0C16.576 0 19.8371 1.26691 22.3757 3.37462Z" transform="translate(2.21997 0.603027)" fill="#F14336"/>
</svg>
