<svg width="20" height="16" viewBox="0 0 20 16" fill="none" xmlns="http://www.w3.org/2000/svg">
<path d="M5.84685 6.898V2.47208L7.3577 3.98293C7.44658 4.07181 7.571 4.12513 7.69543 4.12513C7.81985 4.12513 7.94427 4.07181 8.03315 3.98293C8.22867 3.78741 8.22867 3.48524 8.03315 3.28972L5.70465 0.961217C5.50912 0.765694 5.20695 0.765694 5.01143 0.961217L2.66516 3.28972C2.46963 3.48524 2.46963 3.78741 2.66516 3.98293C2.86068 4.17846 3.16285 4.17846 3.35837 3.98293L4.86923 2.47208V6.88023C2.7718 7.12908 1.1543 8.90655 1.1543 11.0573C1.1543 13.368 3.03843 15.2522 5.34915 15.2522C7.65988 15.2522 9.54401 13.368 9.54401 11.0573C9.54401 8.90655 7.9265 7.12907 5.84685 6.898ZM5.34915 14.2923C3.57167 14.2923 2.13191 12.8348 2.13191 11.0573C2.13191 9.27983 3.57167 7.84007 5.34915 7.84007C7.12663 7.84007 8.56639 9.27983 8.56639 11.0573C8.56639 12.8348 7.12663 14.2923 5.34915 14.2923Z" fill="#3B5998" stroke="#3B5998" stroke-width="0.5"/>
<path d="M19.0411 4.94278C19.0411 2.63205 17.1569 0.747925 14.8462 0.747925C12.5355 0.747925 10.6514 2.63205 10.6514 4.94278C10.6514 7.09353 12.2689 8.87101 14.3663 9.11986V12.0349H12.6955C12.4288 12.0349 12.2155 12.2482 12.2155 12.5148C12.2155 12.7815 12.4288 12.9948 12.6955 12.9948H14.3663V14.7189C14.3663 14.9855 14.5796 15.1988 14.8462 15.1988C15.1128 15.1988 15.3261 14.9855 15.3261 14.7189V12.9948H16.997C17.2636 12.9948 17.4769 12.7815 17.4769 12.5148C17.4769 12.2482 17.2636 12.0349 16.997 12.0349H15.3261V9.10208C17.4236 8.87101 19.0411 7.09353 19.0411 4.94278ZM14.8462 8.16002C13.0687 8.16002 11.629 6.72026 11.629 4.94278C11.629 3.1653 13.0687 1.72554 14.8462 1.72554C16.6237 1.72554 18.0635 3.1653 18.0635 4.94278C18.0635 6.72026 16.6237 8.16002 14.8462 8.16002Z" fill="#3B5998" stroke="#3B5998" stroke-width="0.5"/>
</svg>
