<svg width="19" height="19" viewBox="0 0 19 19" fill="none" xmlns="http://www.w3.org/2000/svg">
<path d="M9.06326 0C4.05375 0 0 4.05375 0 9.06326C0 14.0728 4.05375 18.1265 9.06326 18.1265C14.0728 18.1265 18.1265 14.0728 18.1265 9.06326C18.1265 4.05375 14.0728 0 9.06326 0ZM9.06326 16.4787C4.97656 16.4787 1.64787 13.15 1.64787 9.06326C1.64787 4.97656 4.97656 1.64787 9.06326 1.64787C13.15 1.64787 16.4787 4.97656 16.4787 9.06326C16.4787 13.15 13.15 16.4787 9.06326 16.4787Z" transform="translate(0 0.388672)" fill="#4679EA"/>
<path d="M0.823933 2.51444e-07C0.362531 2.51444e-07 0 0.362531 0 0.823933V5.00951C0 5.47092 0.362531 5.83345 0.823933 5.83345C1.28534 5.83345 1.64787 5.47092 1.64787 5.00951V0.823933C1.64787 0.362531 1.28534 2.51444e-07 0.823933 2.51444e-07Z" transform="translate(8.23938 7.70508)" fill="#4679EA"/>
<path d="M0.823933 2.51444e-07C0.362531 2.51444e-07 0 0.362531 0 0.823933C0 1.28534 0.362531 1.64787 0.823933 1.64787C1.28534 1.64787 1.64787 1.28534 1.64787 0.823933C1.64787 0.362531 1.28534 2.51444e-07 0.823933 2.51444e-07Z" transform="translate(8.23938 5.39844)" fill="#4679EA"/>
</svg>
