<svg width="32" height="31" viewBox="0 0 32 31" fill="none" xmlns="http://www.w3.org/2000/svg">
<path d="M16.2549 0.511147C15.4112 0.525448 10.3445 5.36713 10.2452 11.2354C10.2219 12.6071 10.3359 13.9141 10.565 15.1136L8.42314 17.4411L8.32845 23.018L12.9118 20.3583C13.7602 21.2668 14.7723 21.781 15.8946 21.7621C17.0167 21.7431 18.0471 21.1943 18.9267 20.2563L23.4225 22.7621L23.517 17.1851L21.4529 14.9289C21.7228 13.7209 21.881 12.4091 21.9044 11.0376C22.0042 5.16951 17.0988 0.496677 16.2549 0.511147ZM18.0124 7.62582C17.9948 8.66347 17.1394 9.51878 16.102 9.5362C15.0643 9.55379 14.2375 8.72698 14.2553 7.6895C14.2729 6.65186 15.1282 5.79654 16.1657 5.77913C17.2031 5.76138 18.0301 6.58835 18.0124 7.62582Z" fill="white"/>
</svg>
