<?xml version="1.0" encoding="utf-8"?>
<!-- Generator: Adobe Illustrator 16.0.0, SVG Export Plug-In . SVG Version: 6.00 Build 0)  -->
<!DOCTYPE svg PUBLIC "-//W3C//DTD SVG 1.1//EN" "http://www.w3.org/Graphics/SVG/1.1/DTD/svg11.dtd">
<svg version="1.1" id="Layer_1" xmlns="http://www.w3.org/2000/svg" xmlns:xlink="http://www.w3.org/1999/xlink" x="0px" y="0px"
	 width="20px" height="20px" viewBox="0.71 0.182 20 20" enable-background="new 0.71 0.182 20 20" xml:space="preserve">
<path fill="#BBBBBB" d="M18.911,9.516c-0.224-4.062-3.472-7.31-7.534-7.533v-1.8h-0.889v1.8c-4.062,0.224-7.31,3.471-7.534,7.533
	H0.71v0.889h2.244c0.224,4.063,3.472,7.31,7.534,7.533v2.244h0.889v-2.244c4.063-0.224,7.311-3.471,7.534-7.533h1.8V9.516H18.911
	L18.911,9.516z M18.021,10.404c-0.221,3.57-3.072,6.423-6.645,6.645v-3.533h-0.889v3.533c-3.571-0.222-6.423-3.074-6.645-6.645
	h3.534V9.516H3.844c0.221-3.571,3.073-6.423,6.645-6.645v3.533h0.889V2.871c3.572,0.222,6.424,3.073,6.645,6.645h-3.533v0.889
	H18.021z"/>
</svg>
