<svg width="11" height="15" viewBox="0 0 11 15" fill="none" xmlns="http://www.w3.org/2000/svg">
<path d="M8.28711 12.1729C7.85986 12.5337 7.31885 12.7139 6.66406 12.7139C5.94238 12.7139 5.36133 12.4937 4.92041 12.0527C4.47949 11.5986 4.25928 11.0039 4.25928 10.269V8.98633C4.25928 8.93311 4.28564 8.90625 4.33936 8.90625H7.92676C8.04688 8.90625 8.12695 8.85303 8.16699 8.74609L8.3877 8.04443C8.42773 7.89746 8.37402 7.82422 8.22705 7.82422H4.33936C4.28564 7.82422 4.25928 7.79736 4.25928 7.74414V6.68164C4.25928 6.62842 4.28564 6.60156 4.33936 6.60156H8.60791C8.72803 6.60156 8.80811 6.54834 8.84863 6.44141L9.06885 5.73975C9.10889 5.59277 9.05566 5.51953 8.90869 5.51953H4.33936C4.28564 5.51953 4.25928 5.49268 4.25928 5.43945V4.13672C4.25928 3.40186 4.47949 2.81396 4.92041 2.37305C5.36133 1.91895 5.94238 1.69189 6.66406 1.69189C7.30518 1.69189 7.83984 1.87891 8.26709 2.25293C8.70801 2.61377 8.96875 3.09473 9.04883 3.6958C9.07568 3.81592 9.13574 3.87598 9.229 3.87598H9.26904L10.7925 3.67578C10.9126 3.64893 10.9727 3.58887 10.9727 3.49512V3.45508C10.8394 2.3999 10.3848 1.56494 9.60986 0.950195C8.84863 0.335449 7.86621 0.0283203 6.66406 0.0283203C5.80908 0.0283203 5.0542 0.202148 4.39941 0.549316C3.74463 0.883301 3.2373 1.37109 2.87646 2.01221C2.51562 2.64014 2.33545 3.36865 2.33545 4.19678V5.43945C2.33545 5.49268 2.30859 5.51953 2.25488 5.51953H0.87207C0.73877 5.51953 0.671875 5.58643 0.671875 5.71973V6.40137C0.671875 6.53467 0.73877 6.60156 0.87207 6.60156H2.25488C2.30859 6.60156 2.33545 6.62842 2.33545 6.68164V7.74414C2.33545 7.79736 2.30859 7.82422 2.25488 7.82422H0.87207C0.73877 7.82422 0.671875 7.89111 0.671875 8.02441V8.70605C0.671875 8.83936 0.73877 8.90625 0.87207 8.90625H2.25488C2.30859 8.90625 2.33545 8.93311 2.33545 8.98633V10.189C2.33545 11.0308 2.51562 11.772 2.87646 12.4136C3.2373 13.0415 3.74463 13.5288 4.39941 13.8765C5.0542 14.2236 5.80908 14.3975 6.66406 14.3975C7.83984 14.3975 8.80811 14.0967 9.56982 13.4956C10.3447 12.8809 10.8125 12.0596 10.9727 11.0308C10.9863 10.897 10.9258 10.8169 10.7925 10.79L9.28955 10.5298C9.16895 10.5029 9.0957 10.5562 9.06885 10.6899C8.98877 11.3047 8.72803 11.7988 8.28711 12.1729Z" fill="#3B5998"/>
</svg>
