<svg width="15" height="11" viewBox="0 0 15 11" fill="none" xmlns="http://www.w3.org/2000/svg">
<path d="M14.457 9.09251C14.457 9.39849 14.3709 9.68214 14.2331 9.9317L9.82627 5.00112L14.1853 1.18737C14.3549 1.45647 14.457 1.77256 14.457 2.11415V9.09251ZM7.47851 5.89637L13.5439 0.589266C13.295 0.453007 13.0148 0.369446 12.7124 0.369446H2.24461C1.94189 0.369446 1.66152 0.453007 1.41363 0.589266L7.47851 5.89637ZM9.16951 5.5753L7.76553 6.80453C7.6834 6.87607 7.58115 6.9118 7.47851 6.9118C7.37582 6.9118 7.27356 6.87607 7.19144 6.80453L5.78714 5.57524L1.3246 10.5688C1.59208 10.7367 1.90556 10.8372 2.24459 10.8372H12.7124C13.0514 10.8372 13.365 10.7367 13.6324 10.5688L9.16951 5.5753ZM0.77177 1.18734C0.60223 1.45644 0.5 1.77254 0.5 2.11415V9.09254C0.5 9.39852 0.585662 9.68216 0.724049 9.93173L5.13033 5.00029L0.77177 1.18734Z" fill="#8E54E9"/>
</svg>
