<?xml version="1.0" encoding="utf-8"?>
<!-- Generator: Adobe Illustrator 16.0.0, SVG Export Plug-In . SVG Version: 6.00 Build 0)  -->
<!DOCTYPE svg PUBLIC "-//W3C//DTD SVG 1.1//EN" "http://www.w3.org/Graphics/SVG/1.1/DTD/svg11.dtd">
<svg version="1.1" id="Layer_1" xmlns="http://www.w3.org/2000/svg" xmlns:xlink="http://www.w3.org/1999/xlink" x="0px" y="0px"
	 width="12.966px" height="12.966px" viewBox="0.213 0.762 12.966 12.966" enable-background="new 0.213 0.762 12.966 12.966"
	 xml:space="preserve">
<path fill="#3B5998" d="M7.128,0.762V2.49h3.1L6.916,5.803c-0.683-0.453-1.5-0.719-2.381-0.719c-2.385,0-4.322,1.935-4.322,4.322
	c0,2.388,1.937,4.322,4.322,4.322c2.387,0,4.323-1.935,4.323-4.322c0-0.88-0.268-1.697-0.72-2.38l3.312-3.313v3.1h1.729v-6.05H7.128
	z M4.535,11.998c-1.43,0-2.593-1.162-2.593-2.593c0-1.43,1.163-2.593,2.593-2.593c1.43,0,2.593,1.164,2.593,2.593
	C7.128,10.836,5.965,11.998,4.535,11.998z"/>
</svg>
