<?xml version="1.0" encoding="utf-8"?>
<!-- Generator: Adobe Illustrator 16.0.0, SVG Export Plug-In . SVG Version: 6.00 Build 0)  -->
<!DOCTYPE svg PUBLIC "-//W3C//DTD SVG 1.1//EN" "http://www.w3.org/Graphics/SVG/1.1/DTD/svg11.dtd">
<svg version="1.1" id="Layer_1" xmlns="http://www.w3.org/2000/svg" xmlns:xlink="http://www.w3.org/1999/xlink" x="0px" y="0px"
	 width="67.367px" height="67.368px" viewBox="-0.001 0.498 67.367 67.368" enable-background="new -0.001 0.498 67.367 67.368"
	 xml:space="preserve">
<path fill="#009634" d="M33.683,67.865c18.603,0,33.684-15.081,33.684-33.684S52.285,0.498,33.683,0.498
	c-18.603,0-33.684,15.081-33.684,33.684S15.08,67.865,33.683,67.865z"/>
<path fill="#F6F8FA" d="M45.104,12.982H22.452c-4.417,0-6.664,2.247-6.664,6.663v43.07c0.546,0.344,1.1,0.675,1.667,0.986V21.478
	h32.481v42.208c0.625-0.346,1.234-0.714,1.834-1.096V19.645C51.77,15.229,49.521,12.982,45.104,12.982z"/>
<path fill="#61A5B1" d="M49.936,63.686V21.478H17.454v42.223c4.813,2.652,10.342,4.164,16.227,4.164
	C39.576,67.865,45.115,66.346,49.936,63.686z"/>
<path d="M37.998,17.979c0,0.43-0.348,0.777-0.776,0.777h-6.886c-0.43,0-0.777-0.347-0.777-0.777c0-0.429,0.348-0.776,0.777-0.776
	h6.885C37.649,17.203,37.998,17.55,37.998,17.979z"/>
<path fill="#FFFFFF" d="M61.625,44.576c0,1.742-1.413,3.154-3.155,3.154H34.548c-1.742,0-3.155-1.412-3.155-3.154V30.644
	c0-1.743,1.413-3.155,3.155-3.155H58.47c1.741,0,3.155,1.412,3.155,3.155V44.576z"/>
<path fill="#FFFFFF" d="M39.123,51.977c-0.248,0.248-0.649,0.248-0.896,0l-3.023-4.271c-0.246-0.247-0.246-0.648,0-0.896h6.941
	c0.248,0.247,0.248,0.648,0,0.896L39.123,51.977z"/>
<path fill="#00CC47" d="M56.797,33.272c0,0.575-0.465,1.041-1.041,1.041H38.68c-0.574,0-1.041-0.466-1.041-1.041
	c0-0.576,0.467-1.042,1.041-1.042h17.076C56.332,32.23,56.797,32.696,56.797,33.272z"/>
<path fill="#00CC47" d="M56.797,37.438c0,0.574-0.465,1.041-1.041,1.041H38.68c-0.574,0-1.041-0.467-1.041-1.041
	c0-0.575,0.467-1.041,1.041-1.041h17.076C56.332,36.396,56.797,36.861,56.797,37.438z"/>
<path fill="#00CC47" d="M56.797,41.602c0,0.575-0.465,1.041-1.041,1.041H38.68c-0.574,0-1.041-0.466-1.041-1.041
	s0.467-1.041,1.041-1.041h17.076C56.332,40.561,56.797,41.026,56.797,41.602z"/>
</svg>
