<svg width="18" height="16" viewBox="0 0 18 16" fill="none" xmlns="http://www.w3.org/2000/svg">
<path d="M8.76097 0.00128269C4.00456 -0.0799791 0.0825453 3.71007 0.00128354 8.46648C-0.0448731 11.1634 1.15715 13.5873 3.07103 15.1992C3.19617 15.09 3.33041 14.9898 3.47961 14.9086L6.04976 13.5067C6.38683 13.3227 6.59681 12.9694 6.59681 12.5851V11.532C6.59681 11.532 5.84238 10.6297 5.55471 9.37596C5.31613 9.22156 5.1562 8.9547 5.1562 8.65078V7.49817C5.1562 7.24463 5.26899 7.01807 5.44419 6.85945V5.19326C5.44419 5.19326 5.10192 2.60036 8.6134 2.60036C12.1249 2.60036 11.7826 5.19326 11.7826 5.19326V6.85945C11.9581 7.01807 12.0706 7.24463 12.0706 7.49817V8.65078C12.0706 9.03824 11.8106 9.36426 11.4576 9.47315C11.2609 10.0846 10.9771 10.6674 10.602 11.1972C10.5075 11.3308 10.419 11.4439 10.3417 11.532V12.6118C10.3417 13.0093 10.5663 13.3731 10.9219 13.5505L13.6741 14.9265C13.8392 15.009 13.9884 15.1134 14.1259 15.2294C15.9819 13.6815 17.181 11.3672 17.2255 8.76097C17.3074 4.00456 13.5177 0.0825444 8.76097 0.00128269Z" fill="#3B5998"/>
</svg>
