<?xml version="1.0" encoding="utf-8"?>
<!-- Generator: Adobe Illustrator 16.0.0, SVG Export Plug-In . SVG Version: 6.00 Build 0)  -->
<!DOCTYPE svg PUBLIC "-//W3C//DTD SVG 1.1//EN" "http://www.w3.org/Graphics/SVG/1.1/DTD/svg11.dtd">
<svg version="1.1" id="Layer_1" xmlns="http://www.w3.org/2000/svg" xmlns:xlink="http://www.w3.org/1999/xlink" x="0px" y="0px"
	 width="20.452px" height="20.452px" viewBox="0.164 0.727 20.452 20.452" enable-background="new 0.164 0.727 20.452 20.452"
	 xml:space="preserve">
<path fill="#688389" d="M10.389,16.845c0.552,0,0.999-0.446,0.999-0.999c0-0.551-0.447-0.998-0.999-0.998
	c-0.551,0-0.999,0.447-0.999,0.998C9.391,16.398,9.838,16.845,10.389,16.845z"/>
<path fill="#688389" d="M10.389,0.727c-5.651,0-10.226,4.574-10.226,10.226s4.574,10.226,10.226,10.226s10.226-4.573,10.226-10.226
	C20.615,5.301,16.041,0.727,10.389,0.727z M10.389,19.58c-4.768,0-8.628-3.858-8.628-8.627c0-4.768,3.859-8.628,8.628-8.628
	s8.628,3.859,8.628,8.628C19.018,15.721,15.158,19.58,10.389,19.58z"/>
<path fill="#688389" d="M10.389,5.86c-1.762,0-3.195,1.434-3.195,3.195c0,0.441,0.357,0.799,0.799,0.799s0.799-0.358,0.799-0.799
	c0-0.881,0.717-1.598,1.598-1.598c0.881,0,1.598,0.717,1.598,1.598c0,0.881-0.717,1.598-1.598,1.598
	c-0.441,0-0.799,0.357-0.799,0.799v1.997c0,0.441,0.358,0.799,0.799,0.799c0.441,0,0.799-0.357,0.799-0.799V12.15
	c1.376-0.355,2.396-1.608,2.396-3.095C13.585,7.294,12.151,5.86,10.389,5.86z"/>
</svg>
