<svg width="36" height="36" viewBox="0 0 36 36" fill="none" xmlns="http://www.w3.org/2000/svg">
<path d="M1.00289e-07 7.42952L0.262628 4.5413C0.288233 4.25964 0.411742 3.99598 0.611725 3.796L4.23059 0.176996C4.46659 -0.0589988 4.8493 -0.0589988 5.0853 0.176996L7.25246 2.34415C7.48845 2.58015 7.48845 2.96286 7.25246 3.19886L3.63345 6.81786C3.43347 7.01785 3.16974 7.14136 2.88815 7.16696L1.00289e-07 7.42952Z" transform="translate(26.6828 1.40039)" fill="#9FA5AC"/>
<path d="M14.5049 29.0098C22.5158 29.0098 29.0098 22.5158 29.0098 14.5049C29.0098 6.49407 22.5158 0 14.5049 0C6.49407 0 0 6.49407 0 14.5049C0 22.5158 6.49407 29.0098 14.5049 29.0098Z" transform="translate(0.0903931 6.4126)" fill="#9FA5AC"/>
<path d="M10.8787 21.7574C16.8869 21.7574 21.7574 16.8869 21.7574 10.8787C21.7574 4.87057 16.8869 0 10.8787 0C4.87057 0 0 4.87057 0 10.8787C0 16.8869 4.87057 21.7574 10.8787 21.7574Z" transform="translate(3.71655 10.0396)" fill="white"/>
<path d="M7.25246 14.5049C11.2579 14.5049 14.5049 11.2579 14.5049 7.25246C14.5049 3.24704 11.2579 0 7.25246 0C3.24704 0 0 3.24704 0 7.25246C0 11.2579 3.24704 14.5049 7.25246 14.5049Z" transform="translate(7.34271 13.665)" fill="#9FA5AC"/>
<path d="M3.62626 7.25252C5.62899 7.25252 7.25252 5.62899 7.25252 3.62626C7.25252 1.62353 5.62899 0 3.62626 0C1.62353 0 0 1.62353 0 3.62626C0 5.62899 1.62353 7.25252 3.62626 7.25252Z" transform="translate(10.969 17.2925)" fill="white"/>
<path d="M0.604331 21.153C0.449671 21.153 0.295011 21.094 0.177048 20.9759C-0.0590158 20.7399 -0.0590158 20.3573 0.177048 20.1213L20.1213 0.177048C20.3573 -0.0590159 20.7399 -0.0590159 20.9759 0.177048C21.212 0.413112 21.212 0.795551 20.9759 1.03161L1.03168 20.9758C0.913652 21.094 0.758991 21.153 0.604331 21.153Z" transform="translate(13.9909 0.369629)" fill="#464655"/>
<path d="M1.88632 0.177048C1.65026 -0.0590159 1.26775 -0.0590159 1.03168 0.177048L-3.34297e-08 1.20873L0.854636 2.0633L1.88632 1.03161C2.12238 0.795551 2.12238 0.41318 1.88632 0.177048Z" transform="translate(33.0804 0.369629)" fill="#9FA5AC"/>
</svg>
