<?xml version="1.0" encoding="utf-8"?>
<!-- Generator: Adobe Illustrator 16.0.0, SVG Export Plug-In . SVG Version: 6.00 Build 0)  -->
<!DOCTYPE svg PUBLIC "-//W3C//DTD SVG 1.1//EN" "http://www.w3.org/Graphics/SVG/1.1/DTD/svg11.dtd">
<svg version="1.1" id="Layer_1" xmlns="http://www.w3.org/2000/svg" xmlns:xlink="http://www.w3.org/1999/xlink" x="0px" y="0px"
	 width="14.259px" height="14.259px" viewBox="0.737 0.882 14.259 14.259" enable-background="new 0.737 0.882 14.259 14.259"
	 xml:space="preserve">
<path fill="#93A1AD" d="M12.908,13.053c1.346-1.348,2.088-3.138,2.088-5.042s-0.742-3.694-2.088-5.041
	c-1.348-1.347-3.138-2.088-5.042-2.088S4.171,1.623,2.825,2.97C1.479,4.316,0.737,6.106,0.737,8.011s0.742,3.694,2.088,5.042
	c1.347,1.346,3.137,2.088,5.042,2.088S11.561,14.398,12.908,13.053z M12.277,3.6c0.878,0.878,1.462,1.972,1.703,3.162
	c-0.188-0.276-0.367-0.379-0.479,0.239c-0.115,1.008-1.041,0.364-1.623,0.722c-0.612-0.413-1.99,0.803-1.756-0.568
	c0.361-0.619,1.949,0.828,1.158-0.481C10.775,5.76,9.434,3.737,9.609,2.688C9.631,1.16,8.047,2.369,7.502,2.876
	c-0.367,1.016-0.125,2.79-1.085,3.288c-1.042,0.045-1.936,0.14-2.339,1.304C3.835,8.301,4.336,9.541,5.229,9.732
	c1.307,0.821,1.774-0.961,3-0.994c0.381,0.398,1.418,0.524,1.504,0.971c-0.805,0.143,1.02,0.676-0.077,0.98
	c-0.605-0.071-0.995-0.628-0.674-1.1c-1.173-0.273-1.21,1.697-2.338,1.076c-0.029-0.983-1.841-0.319-0.627-0.12
	c0.417,0.183-0.68,0.71-0.087,0.614c0.292,0.016,1.272,0.359,1.007,0.591c0.546,0.339,1.004-0.812,1.539,0.026
	c0.386,0.645-0.162,0.764-0.646,0.437c-0.272,0.306,0.481,0.964,1.146,1.249c0.222,0.096,0.433,0.146,0.595,0.133
	c0.336-0.387,0.955-0.454,0.987,0.047c-0.829,0.396-1.744,0.606-2.691,0.606c-1.359,0-2.652-0.432-3.722-1.23
	c0.288-0.132,0.451-0.296,0.174-0.506c-0.215-0.642-1.088-1.502-1.855-1.38c-0.398-0.687-0.66-1.443-0.772-2.235
	c0.642-0.212,0.79-0.633,0.652-0.773c-0.327-0.286-0.528-0.69-0.632-1.132C1.92,5.713,2.521,4.534,3.455,3.6
	C4.633,2.421,6.2,1.772,7.866,1.772C9.533,1.772,11.1,2.421,12.277,3.6z"/>
</svg>
