<?xml version="1.0" encoding="utf-8"?>
<!-- Generator: Adobe Illustrator 16.0.0, SVG Export Plug-In . SVG Version: 6.00 Build 0)  -->
<!DOCTYPE svg PUBLIC "-//W3C//DTD SVG 1.1//EN" "http://www.w3.org/Graphics/SVG/1.1/DTD/svg11.dtd">
<svg version="1.1" id="Layer_1" xmlns="http://www.w3.org/2000/svg" xmlns:xlink="http://www.w3.org/1999/xlink" x="0px" y="0px"
	 width="19.09px" height="19.09px" viewBox="0 0.678 19.09 19.09" enable-background="new 0 0.678 19.09 19.09"
	 xml:space="preserve">
<path fill="#93A1AD" d="M13.635,12.677h-0.872l-0.327-0.327c1.091-1.199,1.745-2.836,1.745-4.582c0-3.927-3.163-7.09-7.09-7.09
	C3.164,0.678,0,3.841,0,7.768c0,3.927,3.164,7.09,7.09,7.09c1.746,0,3.382-0.654,4.582-1.745l0.327,0.327v0.872l5.454,5.455
	l1.637-1.637L13.635,12.677z M7.09,12.677c-2.727,0-4.909-2.182-4.909-4.909S4.363,2.859,7.09,2.859s4.909,2.182,4.909,4.909
	S9.817,12.677,7.09,12.677z"/>
</svg>
