<?xml version="1.0" encoding="utf-8"?>
<!-- Generator: Adobe Illustrator 16.0.0, SVG Export Plug-In . SVG Version: 6.00 Build 0)  -->
<!DOCTYPE svg PUBLIC "-//W3C//DTD SVG 1.1//EN" "http://www.w3.org/Graphics/SVG/1.1/DTD/svg11.dtd">
<svg version="1.1" id="Layer_1" xmlns="http://www.w3.org/2000/svg" xmlns:xlink="http://www.w3.org/1999/xlink" x="0px" y="0px"
	 width="17.821px" height="20.747px" viewBox="0.292 0.716 17.821 20.747" enable-background="new 0.292 0.716 17.821 20.747"
	 xml:space="preserve">
<path fill="#F14336" d="M17.459,5.1l-1.504,1.516l0.142,0.174c1.259,1.55,2.016,3.529,2.016,5.684c0,4.958-3.999,8.988-8.91,8.988
	s-8.911-4.03-8.911-8.988c0-4.653,3.525-8.49,8.02-8.941L8.536,3.51V2.063H7.37c-0.365,0-0.666-0.3-0.666-0.674
	c0-0.374,0.301-0.674,0.666-0.674h3.665c0.365,0,0.665,0.3,0.665,0.674c0,0.374-0.3,0.674-0.665,0.674H9.868V3.51l0.226,0.023
	c1.788,0.18,3.422,0.896,4.742,1.986l0.176,0.146l1.507-1.52c0.26-0.262,0.681-0.262,0.94,0C17.72,4.409,17.72,4.836,17.459,5.1z
	 M9.869,7.74v4.061h2.11c0.366,0,0.667,0.299,0.667,0.674c0,0.373-0.301,0.674-0.667,0.674H9.203c-0.366,0-0.666-0.301-0.666-0.674
	V7.74c0-0.374,0.3-0.674,0.666-0.674S9.869,7.366,9.869,7.74z M1.624,12.475c0,4.211,3.398,7.641,7.579,7.641
	s7.578-3.43,7.578-7.641c0-4.21-3.397-7.64-7.578-7.64S1.624,8.264,1.624,12.475z"/>
</svg>
