<svg width="31" height="31" viewBox="0 0 31 31" fill="none" xmlns="http://www.w3.org/2000/svg">
<path d="M27.1139 7.08328H19.2758V2.61269C19.2758 1.17205 18.1038 0 16.6631 0H2.61269C1.17205 0 0 1.17205 0 2.61269V27.1139C0 28.5545 1.17205 29.7266 2.61269 29.7266H16.6631C18.1038 29.7266 19.2758 28.5545 19.2758 27.1139V22.2492L22.2492 19.2758H27.1139C28.5545 19.2758 29.7266 18.1038 29.7266 16.6631V9.69597C29.7266 8.25533 28.5545 7.08328 27.1139 7.08328ZM1.74179 2.61269C1.74179 2.13247 2.13247 1.74179 2.61269 1.74179H16.6631C17.1433 1.74179 17.534 2.13247 17.534 2.61269V3.48358H1.74179V2.61269ZM17.534 27.1139C17.534 27.5941 17.1433 27.9848 16.6631 27.9848H2.61269C2.13247 27.9848 1.74179 27.5941 1.74179 27.1139V24.5012H17.534V27.1139ZM17.534 22.7594H1.74179V5.22537H17.534V7.08328H16.6631C15.2225 7.08328 14.0504 8.25533 14.0504 9.69597V16.6631C14.0504 18.1038 15.2225 19.2758 16.6631 19.2758H17.534C17.534 19.676 17.534 22.3839 17.534 22.7594ZM27.9848 16.6631C27.9848 17.1433 27.5941 17.534 27.1139 17.534H21.8885C21.6575 17.534 21.436 17.6258 21.2727 17.7891L19.2758 19.786V18.4051C19.2758 17.9241 18.8859 17.534 18.4049 17.534H16.6631C16.1829 17.534 15.7922 17.1433 15.7922 16.6631V9.69597C15.7922 9.21575 16.1829 8.82507 16.6631 8.82507H27.1139C27.5941 8.82507 27.9848 9.21575 27.9848 9.69597V16.6631Z" transform="translate(0.933472 0.45752)" fill="#9FA5AC"/>
</svg>
