<svg width="65" height="68" viewBox="0 0 65 68" fill="none" xmlns="http://www.w3.org/2000/svg">
<path d="M35.3103 44.1379L0 0L17.6552 61.7931L35.3103 44.1379Z" transform="translate(63.7263 6.18726) scale(-1 1)" fill="#8E54E9" fill-opacity="0.28"/>
<path d="M44.1379 39.7241L61.7931 30.8966L0 0L44.1379 39.7241Z" transform="translate(63.7263 6.18726) scale(-1 1)" fill="#8E54E9" fill-opacity="0.28"/>
<path d="M63.3379 31.0069L1.54483 0.110345H1.43448L1.32414 0C1.21379 0 1.10345 0 1.10345 0C0.993103 0 0.993103 0 0.882758 0C0.772414 0 0.772414 0 0.662069 0.110345H0.551724C0.551724 0.110345 0.551724 0.110345 0.441379 0.110345L0.331034 0.22069L0.22069 0.331034V0.441379C0.22069 0.551724 0.110345 0.551724 0.110345 0.662069C0.110345 0.772414 0.110345 0.772414 0.110345 0.882759C2.4664e-08 0.993103 0 1.10345 0 1.10345C0 1.21379 0 1.21379 0 1.32414V1.43448L17.6552 63.2276C17.7655 63.5586 18.0966 63.8897 18.4276 64C18.5379 64 18.6483 64 18.7586 64C19.0897 64 19.3103 63.8897 19.531 63.669L31.7793 51.4207L39.8345 63.5586C39.9448 63.669 39.9448 63.7793 40.0552 63.7793C40.0552 63.7793 40.0552 63.7793 40.1655 63.7793C40.2759 63.7793 40.2759 63.8897 40.3862 63.8897H40.4966C40.6069 63.8897 40.7172 63.8897 40.8276 63.8897C40.8276 63.8897 40.8276 63.8897 40.9379 63.8897C41.0483 63.8897 41.1586 63.8897 41.1586 63.8897C41.1586 63.8897 41.269 63.8897 41.269 63.7793C41.269 63.7793 41.3793 63.7793 41.3793 63.669C41.4897 63.5586 41.4897 63.5586 41.6 63.4483C41.6 63.4483 41.6 63.3379 41.7103 63.3379C41.8207 63.2276 41.8207 63.1172 41.8207 63.0069L46.1241 41.4897L63.3379 32.8828C63.669 32.6621 64 32.331 64 31.8897C64 31.4483 63.7793 31.2276 63.3379 31.0069ZM40.7172 57.8207L37.5172 45.0207C37.5172 44.9103 37.4069 44.8 37.4069 44.6897V44.5793L10.3724 10.9241L44.0276 41.1586L40.7172 57.8207ZM19.3103 60.8L3.64138 6.06896L34.869 45.131L19.3103 60.8ZM35.8621 47.4483L38.2897 57.0483L33.5448 49.8759L35.8621 47.4483ZM45.4621 39.5034L7.94483 5.73793L60.469 32L45.4621 39.5034Z" transform="translate(64.8298 0.670044) scale(-1 1)" fill="#322153"/>
<path d="M2.15459 0.83045C2.04424 0.278726 1.38217 -0.162652 0.830451 0.0580374C0.278727 0.168382 -0.162653 0.83045 0.0580371 1.38217L4.47183 19.0373C4.47183 19.4787 5.02355 19.8098 5.46493 19.8098C5.57528 19.8098 5.68562 19.8098 5.68562 19.8098C6.23735 19.6994 6.67873 19.0373 6.45804 18.4856L2.15459 0.83045Z" transform="translate(64.7776 27.2051) scale(-1 1)" fill="#322153"/>
<path d="M1.52106 0.0865776C0.969336 -0.134112 0.307268 0.0865776 0.086578 0.527957C-0.134112 1.07968 0.0865776 1.74175 0.527957 1.96244L9.35554 6.37623C9.57623 6.59692 9.68658 6.59692 9.90727 6.59692C10.3486 6.59692 10.6797 6.37623 10.9004 5.93485C11.1211 5.38313 10.9004 4.72106 10.459 4.50037L1.52106 0.0865776Z" transform="translate(47.1509 0.693848) scale(-1 1)" fill="#322153"/>
<path d="M4.74483 6.28966C4.96552 6.51035 5.29655 6.62069 5.51724 6.62069C5.73793 6.62069 6.06897 6.51035 6.28966 6.28966C6.73104 5.84828 6.73104 5.18621 6.28966 4.74483L1.87586 0.331034C1.43448 -0.110346 0.772413 -0.110346 0.331034 0.331034C-0.110346 0.772413 -0.110346 1.43448 0.331034 1.87586L4.74483 6.28966Z" transform="translate(16.2781 44.808) scale(-1 1)" fill="#322153"/>
<path d="M0.331034 1.87586L4.74483 6.28966C4.96552 6.51035 5.29655 6.62069 5.51724 6.62069C5.73793 6.62069 6.06897 6.51035 6.28966 6.28966C6.73104 5.84828 6.73104 5.18621 6.28966 4.74483L1.87586 0.331034C1.43448 -0.110346 0.772413 -0.110346 0.331034 0.331034C-0.110346 0.772413 -0.110346 1.43448 0.331034 1.87586Z" transform="translate(16.2781 53.6355) scale(-1 1)" fill="#322153"/>
<path d="M1.87586 0.331034C1.43448 -0.110346 0.772413 -0.110346 0.331034 0.331034C-0.110346 0.772413 -0.110346 1.43448 0.331034 1.87586L9.15862 10.7034C9.37931 10.9241 9.71034 11.0345 9.93103 11.0345C10.1517 11.0345 10.4828 10.9241 10.7034 10.7034C11.1448 10.2621 11.1448 9.6 10.7034 9.15862L1.87586 0.331034Z" transform="translate(11.8643 40.3942) scale(-1 1)" fill="#322153"/>
</svg>
