<?xml version="1.0" encoding="utf-8"?>
<!-- Generator: Adobe Illustrator 16.0.0, SVG Export Plug-In . SVG Version: 6.00 Build 0)  -->
<!DOCTYPE svg PUBLIC "-//W3C//DTD SVG 1.1//EN" "http://www.w3.org/Graphics/SVG/1.1/DTD/svg11.dtd">
<svg version="1.1" id="Layer_1" xmlns="http://www.w3.org/2000/svg" xmlns:xlink="http://www.w3.org/1999/xlink" x="0px" y="0px"
	 width="12px" height="12.496px" viewBox="0.91 0.189 12 12.496" enable-background="new 0.91 0.189 12 12.496"
	 xml:space="preserve">
<path fill="#8E54E9" d="M12.727,11.572L9.769,8.479c0.761-0.909,1.178-2.053,1.178-3.244c0-2.782-2.251-5.045-5.019-5.045
	c-2.767,0-5.018,2.264-5.018,5.045c0,2.783,2.251,5.045,5.018,5.045c1.039,0,2.029-0.315,2.875-0.913l2.98,3.117
	c0.125,0.13,0.293,0.201,0.473,0.201c0.17,0,0.33-0.064,0.453-0.184C12.969,12.251,12.977,11.834,12.727,11.572z M5.928,1.506
	c2.045,0,3.709,1.673,3.709,3.729s-1.664,3.73-3.709,3.73c-2.045,0-3.709-1.674-3.709-3.73S3.882,1.506,5.928,1.506z"/>
</svg>
