<?xml version="1.0" encoding="utf-8"?>
<!-- Generator: Adobe Illustrator 16.0.0, SVG Export Plug-In . SVG Version: 6.00 Build 0)  -->
<!DOCTYPE svg PUBLIC "-//W3C//DTD SVG 1.1//EN" "http://www.w3.org/Graphics/SVG/1.1/DTD/svg11.dtd">
<svg version="1.1" id="Layer_1" xmlns="http://www.w3.org/2000/svg" xmlns:xlink="http://www.w3.org/1999/xlink" x="0px" y="0px"
	 width="18.958px" height="18.958px" viewBox="0.306 0.518 18.958 18.958" enable-background="new 0.306 0.518 18.958 18.958"
	 xml:space="preserve">
<path fill="#00CC47" d="M9.785,19.477c5.235,0,9.479-4.244,9.479-9.479c0-5.235-4.243-9.479-9.479-9.479
	c-5.235,0-9.479,4.244-9.479,9.479C0.306,15.232,4.55,19.477,9.785,19.477z"/>
<path fill="#FFFFFF" d="M14.955,9.136h-4.309V4.828c0-0.476-0.385-0.862-0.861-0.862S8.923,4.352,8.923,4.828v5.17
	c0,0.476,0.385,0.861,0.862,0.861h5.17c0.477,0,0.862-0.386,0.862-0.861S15.432,9.136,14.955,9.136z"/>
</svg>
