<svg width="24" height="24" viewBox="0 0 24 24" fill="none" xmlns="http://www.w3.org/2000/svg">
<path d="M11.5503 23.1006C17.9095 23.1006 23.1006 17.9095 23.1006 11.5503C23.1006 5.19115 17.9095 0 11.5503 0C5.19115 0 0 5.19115 0 11.5503C0 17.9095 5.19115 23.1006 11.5503 23.1006ZM11.5503 2.07646C16.7674 2.07646 21.0241 6.3332 21.0241 11.5503C21.0241 16.7674 16.7674 21.0241 11.5503 21.0241C6.3332 21.0241 2.07646 16.7674 2.07646 11.5503C2.07646 6.3332 6.3332 2.07646 11.5503 2.07646Z" transform="translate(0.612549 0.18396)" fill="#8E54E9"/>
<path d="M5.71026 7.52716V0H3.6338V6.48893H0V8.56539H4.67203L5.71026 7.52716Z" transform="translate(7.49072 4.46661)" fill="#8E54E9"/>
</svg>
