<?xml version="1.0" encoding="utf-8"?>
<!-- Generator: Adobe Illustrator 16.0.0, SVG Export Plug-In . SVG Version: 6.00 Build 0)  -->
<!DOCTYPE svg PUBLIC "-//W3C//DTD SVG 1.1//EN" "http://www.w3.org/Graphics/SVG/1.1/DTD/svg11.dtd">
<svg version="1.1" id="Layer_1" xmlns="http://www.w3.org/2000/svg" xmlns:xlink="http://www.w3.org/1999/xlink" x="0px" y="0px"
	 width="18.321px" height="18.321px" viewBox="0.042 0.304 18.321 18.321" enable-background="new 0.042 0.304 18.321 18.321"
	 xml:space="preserve">
<path fill="#9352FF" d="M9.202,0.304c-5.05,0-9.161,4.11-9.161,9.16c0,2.794,1.257,5.296,3.233,6.978l0.002,0.002
	c0.2,0.172,0.41,0.334,0.623,0.486c0.054,0.039,0.105,0.076,0.162,0.113c1.465,0.997,3.237,1.582,5.141,1.582
	s3.677-0.585,5.14-1.582c0.057-0.037,0.108-0.074,0.162-0.113c0.216-0.152,0.425-0.314,0.625-0.488l0.002-0.002
	c1.977-1.68,3.231-4.184,3.231-6.976C18.362,4.414,14.254,0.304,9.202,0.304z M9.202,17.547c-0.987,0-1.934-0.18-2.811-0.504
	c-0.095-0.037-0.189-0.074-0.284-0.113c-0.608-0.252-1.179-0.577-1.701-0.965c-0.006-0.004-0.013-0.009-0.02-0.016
	c0.285-2.32,2.334-4.127,4.815-4.127c2.48,0,4.532,1.807,4.817,4.127c-0.007,0.004-0.014,0.012-0.021,0.016
	c-0.521,0.388-1.094,0.713-1.701,0.965c-0.095,0.039-0.189,0.076-0.284,0.113C11.137,17.367,10.191,17.547,9.202,17.547z
	 M6.598,8.141c0-1.436,1.168-2.604,2.604-2.604c1.438,0,2.605,1.168,2.605,2.604s-1.168,2.604-2.605,2.604
	C7.767,10.744,6.598,9.576,6.598,8.141z M14.98,15.109c-0.006,0.006-0.016,0.015-0.021,0.021c-0.463-1.834-1.834-3.324-3.619-3.996
	c0.934-0.671,1.545-1.761,1.545-2.994c0-2.03-1.652-3.682-3.683-3.682c-2.031,0-3.682,1.651-3.682,3.682
	c0,1.233,0.612,2.323,1.545,2.994c-1.785,0.672-3.155,2.162-3.621,3.996l-0.021-0.021c-1.425-1.455-2.304-3.451-2.304-5.646
	c0-4.457,3.627-8.083,8.083-8.083c4.457,0,8.083,3.625,8.083,8.083C17.285,11.658,16.405,13.654,14.98,15.109z"/>
</svg>
