<svg width="31" height="31" viewBox="0 0 31 31" fill="none" xmlns="http://www.w3.org/2000/svg">
<path d="M14.7904 0C22.9594 0 29.5809 6.62243 29.5809 14.7905C29.5809 22.9595 22.9594 29.5809 14.7904 29.5809C6.62141 29.5809 0 22.9594 0 14.7905C0 6.62243 6.62152 0 14.7904 0Z" transform="translate(0.775879 0.49707)" fill="#720E9E"/>
<path d="M16.0153 2.42654L16.0311 2.42379L16.521 1.87841L16.4969 1.87659L16.5487 1.79525H9.68502L9.94944 2.73441H11.8223L8.67001 5.65088C8.02665 4.71264 6.51896 2.556 5.46699 0.938242H7.42207V0.272638L7.44888 0.0813349L7.42207 0.0776791V1.85928e-08H5.26796e-08V0.938242H2.32114C3.22242 1.68234 7.12993 6.42645 7.27229 6.87943C7.32956 7.30377 7.411 9.80799 7.24275 9.99655C7.04027 10.2878 4.92618 10.1306 4.55362 10.1583L4.53971 11.0781C5.22004 11.0984 7.26113 11.0772 7.94988 11.0772C9.30688 11.0772 11.6836 11.042 12.0181 11.0688L12.0598 10.198L9.3282 10.1573C9.27093 9.7626 9.20808 7.27128 9.26535 6.99955C9.52327 6.21109 13.7145 2.94785 14.1453 2.82498L14.5512 2.73349H15.8176C15.8175 2.73339 16.0153 2.42654 16.0153 2.42654ZM14.9911 8.93524L16.178 9.02581L17.5618 3.95088C17.3307 3.94255 15.2314 3.7549 14.9587 3.70403L14.9911 8.93524ZM14.7859 9.74879L14.7924 10.9884L15.3932 11.0384L16.0421 11.0837L16.2325 9.87084L15.5484 9.83936C15.5485 9.83936 14.7859 9.74879 14.7859 9.74879Z" transform="translate(6.32324 9.74561)" fill="white"/>
</svg>
