<?xml version="1.0" encoding="utf-8"?>
<!-- Generator: Adobe Illustrator 16.0.0, SVG Export Plug-In . SVG Version: 6.00 Build 0)  -->
<!DOCTYPE svg PUBLIC "-//W3C//DTD SVG 1.1//EN" "http://www.w3.org/Graphics/SVG/1.1/DTD/svg11.dtd">
<svg version="1.1" id="Layer_1" xmlns="http://www.w3.org/2000/svg" xmlns:xlink="http://www.w3.org/1999/xlink" x="0px" y="0px"
	 width="206.963px" height="76.772px" viewBox="0.318 2.794 206.963 76.772" enable-background="new 0.318 2.794 206.963 76.772"
	 xml:space="preserve">
<path fill="#6C82B2" d="M55.632,14.119V2.794h15.205v11.325H55.632z M56.898,12.986h12.671V3.927H56.898V12.986z"/>
<path fill="#6C82B2" d="M60.066,15.252h6.335v1.133h-6.335V15.252z"/>
<path fill="#F5F7FA" d="M43.64,54.412V43.087h15.205v11.325H43.64z M44.907,53.279h12.671v-9.06H44.907V53.279z"/>
<path fill="#F5F7FA" d="M48.075,55.545h6.335v1.133h-6.335V55.545z"/>
<path fill="#BAC5DB" d="M0.318,77.301V65.975h15.205v11.326H0.318z M1.585,76.168h12.671v-9.06H1.585V76.168z"/>
<path fill="#BAC5DB" d="M4.752,78.434h6.335v1.133H4.752V78.434z"/>
<path fill="#E2E6F0" d="M156.453,21.111V9.786h15.205v11.325H156.453z M157.721,19.979h12.67v-9.059h-12.67V19.979z"/>
<path fill="#E2E6F0" d="M160.888,22.244h6.335v1.133h-6.335V22.244z"/>
<path fill="#3B5998" d="M192.077,76.502V65.178h15.204v11.324H192.077z M193.344,75.369h12.671v-9.059h-12.671V75.369z"/>
<path fill="#3B5998" d="M196.512,77.635h6.336v1.133h-6.336V77.635z"/>
</svg>
