<svg width="12" height="11" viewBox="0 0 12 11" fill="none" xmlns="http://www.w3.org/2000/svg">
<path d="M10.5988 0.220889C10.4397 0.0406174 10.1817 -0.0300774 9.94134 0.0335479L9.91306 0.0406174L5.36739 1.9211L0.910082 0.0547564L0.899478 0.0441521L0.825248 0.0229437C0.588421 -0.0406816 0.330385 0.0300132 0.167787 0.210285C-0.0195543 0.418834 -0.0549018 0.722822 0.0864877 0.963184L1.2989 3.07696L4.78416 9.46423C4.89727 9.66218 5.12349 9.79296 5.36032 9.79296C5.58654 9.79296 5.78802 9.67278 5.90467 9.46423L9.45001 3.08756L10.6766 0.973788C10.818 0.733426 10.7861 0.429439 10.5988 0.220889ZM10.2241 0.712218L8.99403 2.82953L6.03899 8.14931L8.0962 1.35908L10.0863 0.535481C10.1322 0.524877 10.1817 0.539016 10.21 0.570828C10.2453 0.60971 10.2524 0.666266 10.2241 0.712218ZM3.57174 2.67046L3.25008 1.60297L4.68518 2.20388L3.57174 2.67046ZM1.75842 2.82246L0.538934 0.701614C0.514191 0.655662 0.517726 0.599106 0.553073 0.560224C0.574282 0.535481 0.609629 0.524877 0.644976 0.524877C0.655581 0.524877 0.666185 0.524877 0.673254 0.528411L2.62089 1.3414L3.08395 2.87548L2.02706 3.32086L1.75842 2.82246ZM3.23947 3.37741L4.70639 8.22707L2.27803 3.78037L3.23947 3.37741ZM3.72727 3.17593L5.43455 2.45838L7.47056 1.61711L5.36385 8.58055L3.72727 3.17593Z" transform="translate(0.43335 0.780518)" fill="white"/>
</svg>
