<?xml version="1.0" encoding="utf-8"?>
<!-- Generator: Adobe Illustrator 16.0.0, SVG Export Plug-In . SVG Version: 6.00 Build 0)  -->
<!DOCTYPE svg PUBLIC "-//W3C//DTD SVG 1.1//EN" "http://www.w3.org/Graphics/SVG/1.1/DTD/svg11.dtd">
<svg version="1.1" id="Layer_1" xmlns="http://www.w3.org/2000/svg" xmlns:xlink="http://www.w3.org/1999/xlink" x="0px" y="0px"
	 width="277.244px" height="252.225px" viewBox="-53.575 0.172 277.244 252.225"
	 enable-background="new -53.575 0.172 277.244 252.225" xml:space="preserve">
<path fill="#8E54E9" fill-opacity="0.05" d="M219.405,5.86c-4.098-4.643-10.743-6.464-16.934-4.824l-0.729,0.182L84.667,49.65
	L-30.135,1.582l-0.273-0.273l-1.912-0.546c-6.1-1.639-12.746,0.182-16.934,4.825c-4.825,5.371-5.735,13.201-2.094,19.391
	l31.227,54.442L69.646,243.93c2.913,5.099,8.739,8.467,14.839,8.467c5.827,0,11.016-3.096,14.02-8.467l91.313-164.236l31.592-54.441
	C225.049,19.061,224.229,11.232,219.405,5.86z M209.756,18.515l-31.683,54.533l-76.109,137.016l52.985-174.888l51.255-21.212
	c1.186-0.273,2.458,0.091,3.188,0.911C210.301,15.875,210.483,17.332,209.756,18.515z M38.418,68.951l-8.285-27.494l36.962,15.477
	L38.418,68.951z M-8.285,72.866l-31.409-54.624c-0.637-1.184-0.546-2.641,0.364-3.643c0.546-0.637,1.457-0.91,2.367-0.91
	c0.273,0,0.546,0,0.729,0.092L13.928,34.72l11.926,39.511l-27.22,11.472L-8.285,72.866z M29.86,87.159l37.782,124.905L5.098,97.538
	L29.86,87.159z M42.424,81.97l43.973-18.48l52.439-21.667L84.575,221.17L42.424,81.97z"/>
</svg>
