<svg width="19" height="27" viewBox="0 0 19 27" fill="none" xmlns="http://www.w3.org/2000/svg">
<g opacity="0.7" filter="url(#filter0_i)">
<path d="M8.42685 -4.42479e-07V10.2436L4.2134 7.83333L-1.26288e-07 10.2436V-4.42479e-07" transform="translate(5.03271 16.5162)" fill="#D9D9D9"/>
<path d="M4.2134 -4.42479e-07H8.42685V1.92818C8.1259 2.10896 7.88511 2.34995 7.76474 2.65128C7.28321 3.61537 6.07936 3.91664 5.17651 3.31409C4.87556 3.13332 4.5144 3.01282 4.21345 3.01282V7.77305L-1.26288e-07 10.1833V1.92818V-4.42479e-07H4.2134Z" transform="translate(5.03271 16.5162)" fill="#D9D9D9"/>
<path d="M10.0017 0.296856C10.9046 -0.245465 12.1085 0.0558071 12.59 0.959675C12.891 1.56222 13.5531 1.98404 14.2755 1.92377C15.3589 1.86349 16.2016 2.76736 16.1415 3.79172C16.0813 4.51482 16.5026 5.17764 17.1046 5.47891C18.0677 5.96095 18.3686 7.16609 17.7667 8.06991C17.4055 8.67245 17.4055 9.39555 17.7667 9.99809C18.3085 10.902 18.0075 12.107 17.1046 12.5891C16.5026 12.8904 16.0813 13.5532 16.1415 14.2763C16.2017 15.3609 15.2988 16.2045 14.2755 16.1442C13.5531 16.084 12.891 16.5058 12.59 17.1083C12.1085 18.0724 10.9046 18.3737 10.0017 17.7711C9.39979 17.4096 8.67744 17.4096 8.07552 17.7711C7.17259 18.3135 5.96876 18.0122 5.48721 17.1083C5.18625 16.5058 4.52412 16.084 3.80177 16.1442C2.71831 16.2045 1.87559 15.3006 1.93575 14.2763C1.99597 13.5532 1.57458 12.8904 0.972661 12.5891C0.00956984 12.107 -0.291389 10.9019 0.31053 9.99809C0.671702 9.39555 0.671702 8.67245 0.31053 8.06991C-0.231229 7.16604 0.0697307 5.96095 0.972661 5.47891C1.57458 5.17764 1.99597 4.51482 1.93575 3.79172C1.87554 2.70713 2.77847 1.86354 3.80177 1.92377C4.52412 1.98404 5.18625 1.56222 5.48721 0.959675C5.96876 0.0558071 7.17264 -0.305688 8.07552 0.296856C8.67744 0.658403 9.39979 0.658403 10.0017 0.296856Z" transform="translate(0.206543 0.854309)" fill="#D9D9D9"/>
<path d="M6.01901 12.0513C9.34322 12.0513 12.038 9.35352 12.038 6.02565C12.038 2.69777 9.34322 0 6.01901 0C2.6948 0 0 2.69777 0 6.02565C0 9.35352 2.6948 12.0513 6.01901 12.0513Z" transform="translate(3.22559 3.86261)" fill="#D9D9D9"/>
<path d="M7.22277 6.79522e-08C3.25024 6.79522e-08 -8.52413e-08 3.25382 -8.52413e-08 7.23073C-8.52413e-08 11.2076 3.25024 14.4615 7.22277 14.4615C11.1953 14.4615 14.4456 11.2076 14.4456 7.23073C14.4456 3.25382 11.1953 6.79522e-08 7.22277 6.79522e-08ZM7.22277 13.2564C3.91233 13.2564 1.20376 10.5448 1.20376 7.23073C1.20376 3.91664 3.91233 1.20509 7.22277 1.20509C10.5332 1.20509 13.2418 3.91664 13.2418 7.23073C13.2418 10.5448 10.5332 13.2564 7.22277 13.2564Z" transform="translate(2.02295 2.65753)" fill="#D9D9D9"/>
</g>
<defs>
<filter id="filter0_i" x="0.206543" y="0.854309" width="18.0772" height="26.9054" filterUnits="userSpaceOnUse" color-interpolation-filters="sRGB">
<feFlood flood-opacity="0" result="BackgroundImageFix"/>
<feBlend mode="normal" in="SourceGraphic" in2="BackgroundImageFix" result="shape"/>
<feColorMatrix in="SourceAlpha" type="matrix" values="0 0 0 0 0 0 0 0 0 0 0 0 0 0 0 0 0 0 255 0" result="hardAlpha"/>
<feOffset dy="1"/>
<feGaussianBlur stdDeviation="0.5"/>
<feComposite in2="hardAlpha" operator="arithmetic" k2="-1" k3="1"/>
<feColorMatrix type="matrix" values="0 0 0 0 0 0 0 0 0 0 0 0 0 0 0 0 0 0 0.25 0"/>
<feBlend mode="normal" in2="shape" result="effect1_innerShadow"/>
</filter>
</defs>
</svg>
