<svg width="19" height="27" viewBox="0 0 19 27" fill="none" xmlns="http://www.w3.org/2000/svg">
<path d="M8.42685 -4.42479e-07V10.2436L4.2134 7.83333L-1.26288e-07 10.2436V-4.42479e-07" transform="translate(4.92773 16.5162)" fill="#88EA87"/>
<path d="M4.2134 -4.42479e-07H8.42685V1.92818C8.1259 2.10896 7.88511 2.34995 7.76474 2.65128C7.28321 3.61537 6.07936 3.91664 5.17651 3.31409C4.87556 3.13332 4.5144 3.01282 4.21345 3.01282V7.77305L-1.26288e-07 10.1833V1.92818V-4.42479e-07H4.2134Z" transform="translate(4.92773 16.5162)" fill="#13D60F"/>
<path d="M10.0017 0.296856C10.9046 -0.245465 12.1085 0.0558071 12.59 0.959675C12.891 1.56222 13.5531 1.98404 14.2755 1.92377C15.3589 1.86349 16.2016 2.76736 16.1415 3.79172C16.0813 4.51482 16.5026 5.17764 17.1046 5.47891C18.0677 5.96095 18.3686 7.16609 17.7667 8.06991C17.4055 8.67245 17.4055 9.39555 17.7667 9.99809C18.3085 10.902 18.0075 12.107 17.1046 12.5891C16.5026 12.8904 16.0813 13.5532 16.1415 14.2763C16.2017 15.3609 15.2988 16.2045 14.2755 16.1442C13.5531 16.084 12.891 16.5058 12.59 17.1083C12.1085 18.0724 10.9046 18.3737 10.0017 17.7711C9.39979 17.4096 8.67744 17.4096 8.07552 17.7711C7.17259 18.3135 5.96876 18.0122 5.48721 17.1083C5.18625 16.5058 4.52412 16.084 3.80177 16.1442C2.71831 16.2045 1.87559 15.3006 1.93575 14.2763C1.99597 13.5532 1.57458 12.8904 0.972661 12.5891C0.00956984 12.107 -0.291389 10.9019 0.31053 9.99809C0.671702 9.39555 0.671702 8.67245 0.31053 8.06991C-0.231229 7.16604 0.0697307 5.96095 0.972661 5.47891C1.57458 5.17764 1.99597 4.51482 1.93575 3.79172C1.87554 2.70713 2.77847 1.86354 3.80177 1.92377C4.52412 1.98404 5.18625 1.56222 5.48721 0.959675C5.96876 0.0558071 7.17264 -0.305688 8.07552 0.296856C8.67744 0.658403 9.39979 0.658403 10.0017 0.296856Z" transform="translate(0.102539 0.854309)" fill="#FFCB5B"/>
<path d="M6.01901 12.0513C9.34322 12.0513 12.038 9.35352 12.038 6.02565C12.038 2.69777 9.34322 0 6.01901 0C2.6948 0 0 2.69777 0 6.02565C0 9.35352 2.6948 12.0513 6.01901 12.0513Z" transform="translate(3.12158 3.86261)" fill="#F19920"/>
<path d="M7.22277 6.79522e-08C3.25024 6.79522e-08 -8.52413e-08 3.25382 -8.52413e-08 7.23073C-8.52413e-08 11.2076 3.25024 14.4615 7.22277 14.4615C11.1953 14.4615 14.4456 11.2076 14.4456 7.23073C14.4456 3.25382 11.1953 6.79522e-08 7.22277 6.79522e-08ZM7.22277 13.2564C3.91233 13.2564 1.20376 10.5448 1.20376 7.23073C1.20376 3.91664 3.91233 1.20509 7.22277 1.20509C10.5332 1.20509 13.2418 3.91664 13.2418 7.23073C13.2418 10.5448 10.5332 13.2564 7.22277 13.2564Z" transform="translate(1.91797 2.65753)" fill="#F6B545"/>
<path d="M12.8807 1.20514C12.1584 1.26541 11.4963 0.843593 11.1954 0.241049C11.1351 0.180774 11.075 0.0602751 11.0148 1.34324e-08L1.16812e-07 12.1718C0.361149 12.5333 0.60188 13.0154 0.541723 13.5577C0.541723 13.9193 0.601932 14.2808 0.782506 14.5821L12.9408 1.20514C12.8807 1.20514 12.8807 1.20514 12.8807 1.20514Z" transform="translate(1.49707 1.57281)" fill="#FFE27A"/>
<path d="M-3.78863e-07 7.65261C0.240791 8.43592 0.6019 9.09874 1.14364 9.76156L9.14918 0.903867C8.48707 0.482097 7.76474 0.180774 6.98226 1.73831e-08L-3.78863e-07 7.65261Z" transform="translate(3.36279 3.98322)" fill="#F6B545"/>
<path d="M1.26382 3.01282L2.04615 2.10896C1.56471 1.50641 1.14342 0.783318 0.902727 9.4817e-08L-1.54672e-07 1.02437C0.361142 1.74746 0.782381 2.41028 1.26382 3.01282Z" transform="translate(2.39941 11.6355)" fill="#FFCB5B"/>
<path d="M-6.56611e-07 1.02437C0.782379 1.20514 1.50461 1.50641 2.16663 1.92823L3.00921 1.02437C2.40739 0.602596 1.68516 0.241049 0.962936 -8.84959e-08L-6.56611e-07 1.02437Z" transform="translate(10.3452 2.95856)" fill="#FFCB5B"/>
<path d="M14.265 3.31409C13.6631 3.01282 13.2417 2.35 13.3019 1.62691C13.3621 0.964091 13.001 0.361547 12.4593 -1.26423e-08L1.89425e-07 13.7384C0.30094 13.9192 0.60188 13.9795 0.963029 13.9795C1.68533 13.9192 2.34742 14.341 2.64836 14.9436C2.76872 15.1846 2.9493 15.4256 3.19008 15.5461L14.265 3.31409Z" transform="translate(2.94092 3.0191)" fill="#FFE27A"/>
<path d="M3.43092 10.3641L9.93165 3.25382C9.69086 1.98846 9.02875 0.843593 8.1259 4.42479e-08L-2.65204e-07 8.79737C0.96306 9.64096 2.16686 10.1833 3.43092 10.3641Z" transform="translate(5.1084 5.54962)" fill="#F6B545"/>
<path d="M4.2134 1.50641C2.88918 1.38591 1.68533 0.843593 0.78248 8.84959e-08L-2.08374e-07 0.843592C0.902901 1.68718 2.04654 2.28973 3.31055 2.53078L4.2134 1.50641Z" transform="translate(4.32568 14.4074)" fill="#FFCB5B"/>
<path d="M0.782329 -1.26423e-07L-8.83842e-08 0.903868C0.902727 1.74746 1.56471 2.89232 1.8054 4.15769L2.76828 3.0731C2.40719 1.86796 1.685 0.843592 0.782329 -1.26423e-07Z" transform="translate(13.2339 4.58575)" fill="#FFCB5B"/>
<path d="M3.81345 5.727C3.86745 5.709 3.93645 5.7 4.02045 5.7H5.43345C5.54745 5.7 5.60445 5.757 5.60445 5.871V11.829C5.60445 11.943 5.54745 12 5.43345 12H4.08345C3.96945 12 3.91245 11.943 3.91245 11.829V7.302C3.91245 7.254 3.88845 7.23 3.84045 7.23L3.12945 7.257C3.01545 7.257 2.95845 7.203 2.95845 7.095V6.132C2.95845 6.03 3.00645 5.964 3.10245 5.934L3.81345 5.727ZM6.39588 12C6.28188 12 6.22488 11.943 6.22488 11.829V5.871C6.22488 5.757 6.28188 5.7 6.39588 5.7H7.74588C7.85988 5.7 7.91688 5.757 7.91688 5.871V7.932C7.91688 7.962 7.92588 7.98 7.94388 7.986C7.96788 7.992 7.98888 7.983 8.00688 7.959L9.52788 5.808C9.57588 5.736 9.64488 5.7 9.73488 5.7H11.2649C11.3549 5.7 11.3999 5.733 11.3999 5.799C11.3999 5.841 11.3879 5.877 11.3639 5.907L9.54588 8.445C9.52188 8.481 9.51888 8.514 9.53688 8.544L11.4449 11.793C11.4629 11.829 11.4719 11.862 11.4719 11.892C11.4719 11.964 11.4239 12 11.3279 12H9.80688C9.71688 12 9.65088 11.961 9.60888 11.883L8.39388 9.723C8.38188 9.699 8.36388 9.687 8.33988 9.687C8.32188 9.687 8.30688 9.699 8.29488 9.723L7.94388 10.254C7.92588 10.29 7.91688 10.32 7.91688 10.344V11.829C7.91688 11.943 7.85988 12 7.74588 12H6.39588Z" transform="translate(1.91748 0.855042)" fill="#FFFCD5" fill-opacity="0.8"/>
</svg>
