<?xml version="1.0" encoding="utf-8"?>
<!-- Generator: Adobe Illustrator 16.0.0, SVG Export Plug-In . SVG Version: 6.00 Build 0)  -->
<!DOCTYPE svg PUBLIC "-//W3C//DTD SVG 1.1//EN" "http://www.w3.org/Graphics/SVG/1.1/DTD/svg11.dtd">
<svg version="1.1" id="Layer_1" xmlns="http://www.w3.org/2000/svg" xmlns:xlink="http://www.w3.org/1999/xlink" x="0px" y="0px"
	 width="262px" height="165px" viewBox="0 17.558 262 165" enable-background="new 0 17.558 262 165" xml:space="preserve">
<path fill="#F5F5F5" fill-opacity="0.45" d="M3,17.558h256c1.656,0,3,1.343,3,3v159c0,1.656-1.344,3-3,3H3c-1.657,0-3-1.344-3-3
	v-159C0,18.901,1.343,17.558,3,17.558z"/>
<path fill="#EFEFEF" d="M213,17.558h-78.227v112H213V17.558z M213,143.559h-78.227v39H213V143.559z M227.047,182.559H259
	c1.657,0,3-1.344,3-3V106.38l-34.953-29.16V182.559z M262,87.672l-34.953-29.16V17.558H259c1.657,0,3,1.343,3,3V87.672z
	 M39.579,129.559v-112H3c-1.657,0-3,1.343-3,3v109H39.579z M53.462,129.559v-112h67.429v112H53.462z M120.891,143.559v39H53.462v-39
	H120.891z M39.579,143.559v39H3c-1.657,0-3-1.344-3-3v-36H39.579z"/>
<rect x="0.003" y="143.719" fill="#C7E0E2" width="39.577" height="38.84"/>
<path fill="#C7E0E2" d="M53.462,17.558v112h67.429v-112H53.462z"/>
<radialGradient id="SVGID_1_" cx="-140.0732" cy="506.4199" r="0.4993" gradientTransform="matrix(1.805105e-015 8.5774 29.4796 -5.252131e-016 -14778.7178 1286.7385)" gradientUnits="userSpaceOnUse">
	<stop  offset="0" style="stop-color:#000000"/>
	<stop  offset="1" style="stop-color:#000000;stop-opacity:0"/>
	<stop  offset="1" style="stop-color:#000000;stop-opacity:0"/>
</radialGradient>
<ellipse fill="url(#SVGID_1_)" fill-opacity="0.3" cx="150.318" cy="85.272" rx="14.74" ry="4.289"/>
<radialGradient id="SVGID_2_" cx="-140.0732" cy="506.4199" r="0.5" gradientTransform="matrix(1.805105e-015 8.5774 29.4796 -5.252131e-016 -14736.6865 1363.6917)" gradientUnits="userSpaceOnUse">
	<stop  offset="0" style="stop-color:#000000"/>
	<stop  offset="1" style="stop-color:#000000;stop-opacity:0"/>
	<stop  offset="1" style="stop-color:#000000;stop-opacity:0"/>
</radialGradient>
<ellipse fill="url(#SVGID_2_)" fill-opacity="0.3" cx="192.359" cy="162.232" rx="14.74" ry="4.289"/>
<radialGradient id="SVGID_3_" cx="-140.0737" cy="506.4199" r="0.5" gradientTransform="matrix(1.805105e-015 8.5774 29.4796 -5.252131e-016 -14862.0303 1338.0198)" gradientUnits="userSpaceOnUse">
	<stop  offset="0" style="stop-color:#000000"/>
	<stop  offset="1" style="stop-color:#000000;stop-opacity:0"/>
	<stop  offset="1" style="stop-color:#000000;stop-opacity:0"/>
</radialGradient>
<ellipse fill="url(#SVGID_3_)" fill-opacity="0.3" cx="67.015" cy="136.558" rx="14.74" ry="4.288"/>
<path fill="#8E54E9" d="M160.527,43.395c-3.021-3.021-6.668-4.532-10.938-4.532s-7.917,1.511-10.938,4.532
	c-3.021,3.021-4.532,6.667-4.532,10.938c0,2.196,0.332,3.999,0.996,5.408l11.029,23.387c0.303,0.664,0.771,1.188,1.404,1.57
	c0.635,0.383,1.314,0.574,2.041,0.574c0.725,0,1.404-0.191,2.039-0.574c0.635-0.382,1.112-0.906,1.436-1.57l10.997-23.387
	c0.665-1.41,0.997-3.212,0.997-5.408C165.059,50.062,163.549,46.417,160.527,43.395z M155.058,59.801
	c-1.511,1.51-3.333,2.266-5.469,2.266s-3.958-0.756-5.469-2.266c-1.511-1.511-2.267-3.333-2.267-5.469
	c0-2.135,0.756-3.958,2.267-5.469c1.511-1.51,3.334-2.266,5.469-2.266c2.136,0,3.958,0.756,5.469,2.266
	c1.511,1.511,2.267,3.334,2.267,5.469C157.324,56.467,156.568,58.29,155.058,59.801z"/>
<path fill="#8E54E9" d="M78.683,94.467c-3.021-3.022-6.667-4.532-10.938-4.532c-4.271,0-7.917,1.511-10.938,4.532
	s-4.532,6.667-4.532,10.938c0,2.196,0.333,3.998,0.997,5.408L64.301,134.2c0.302,0.665,0.771,1.188,1.405,1.57
	c0.634,0.383,1.314,0.575,2.04,0.575c0.725,0,1.405-0.192,2.04-0.575c0.635-0.382,1.113-0.905,1.435-1.57l10.998-23.387
	c0.665-1.41,0.998-3.213,0.998-5.408C83.216,101.135,81.705,97.489,78.683,94.467z M73.214,110.874
	c-1.51,1.511-3.333,2.266-5.468,2.266c-2.136,0-3.958-0.755-5.469-2.266s-2.266-3.333-2.266-5.47c0-2.134,0.755-3.958,2.266-5.468
	c1.511-1.51,3.334-2.266,5.469-2.266s3.958,0.756,5.468,2.266c1.511,1.511,2.266,3.334,2.266,5.468
	C75.48,107.54,74.725,109.363,73.214,110.874z"/>
<path fill="#8E54E9" d="M202.568,120.354c-3.021-3.021-6.668-4.533-10.938-4.533s-7.917,1.512-10.938,4.533
	c-3.021,3.021-4.532,6.667-4.532,10.938c0,2.195,0.332,3.998,0.996,5.408l11.029,23.387c0.303,0.664,0.771,1.188,1.404,1.57
	c0.635,0.383,1.314,0.574,2.041,0.574c0.725,0,1.404-0.191,2.039-0.574c0.635-0.382,1.112-0.906,1.436-1.57l10.997-23.387
	c0.665-1.41,0.997-3.213,0.997-5.408C207.1,127.021,205.59,123.375,202.568,120.354z M197.099,136.76
	c-1.511,1.511-3.333,2.266-5.469,2.266s-3.958-0.755-5.469-2.266s-2.267-3.334-2.267-5.469s0.756-3.959,2.267-5.469
	c1.511-1.511,3.334-2.267,5.469-2.267c2.136,0,3.958,0.756,5.469,2.267c1.511,1.51,2.267,3.334,2.267,5.469
	S198.609,135.248,197.099,136.76z"/>
</svg>
