<svg width="263" height="166" viewBox="0 0 263 166" fill="none" xmlns="http://www.w3.org/2000/svg">
<rect width="262" height="165" rx="3" transform="translate(0.748047 0.55835)" fill="#EFEFEF"/>
<path d="M49.5545 69.4746H4.34011C1.02768 63.4795 -0.572057 54.9844 0.185255 43.6104C1.86165 18.4331 26.4373 0 61.2334 0C96.0295 0 128.987 31.022 128.987 51.2534C128.987 61.6978 117.986 59.6514 104.751 57.189C95.1989 55.4116 84.4831 53.4185 75.9017 55.7495C66.1524 58.3979 57.5471 64.1377 49.5545 69.4746Z" transform="translate(169.167 70.033) rotate(180)" fill="#C7E0E2"/>
<path fill-rule="evenodd" clip-rule="evenodd" d="M208 131H0V3C0 1.34314 1.34277 0 3 0H205C206.657 0 208 1.34314 208 3V131Z" transform="translate(27.748 17.5583)" fill="white"/>
<rect width="174" height="8.66116" transform="translate(45.748 35.9633)" fill="#EFEFEF"/>
<rect width="111" height="8.66116" transform="translate(45.748 50.0377)" fill="#EFEFEF"/>
<rect width="174" height="38.9752" transform="translate(45.748 64.1121)" fill="#EFEFEF"/>
<rect width="174" height="23.8182" transform="translate(45.748 108.5)" fill="#8E54E9"/>
<path d="M14.4721 13.5274L1.1387 0.195248C0.946697 0.00457678 0.661382 -0.052731 0.412004 0.0512603C0.162689 0.153939 -3.35697e-07 0.397919 -3.35697e-07 0.667209V19.127C-3.35697e-07 19.3816 0.145314 19.6149 0.374691 19.7256C0.604006 19.8376 0.877383 19.8096 1.07601 19.6523L4.46135 17.0058L7.41607 22.3227C7.53876 22.5414 7.76539 22.6654 8.00008 22.6654C8.10008 22.6654 8.20276 22.6427 8.29877 22.5947L12.2988 20.5948C12.4615 20.5135 12.5841 20.3696 12.6375 20.1962C12.6909 20.0228 12.6708 19.8349 12.5842 19.6749L9.80015 14.666H14.0002C14.2695 14.666 14.5135 14.5034 14.6162 14.2541C14.7188 14.0047 14.6615 13.7194 14.4721 13.5274Z" transform="translate(185.082 122.893)" fill="#C7E0E2"/>
<path d="M0.666694 0C0.29869 0 -3.35697e-07 0.298662 -3.35697e-07 0.666632V4.6663C-3.35697e-07 5.03427 0.29869 5.33293 0.666694 5.33293C1.0347 5.33293 1.33339 5.03427 1.33339 4.6663V0.666632C1.33332 0.298662 1.0347 0 0.666694 0Z" transform="translate(185.082 113.558)" fill="#C7E0E2"/>
<path d="M4.66673 -4.65354e-07H0.666694C0.29869 -4.65354e-07 1.64034e-07 0.298662 1.64034e-07 0.666632C1.64034e-07 1.0346 0.29869 1.33326 0.666694 1.33326H4.66673C5.03474 1.33326 5.33343 1.0346 5.33343 0.666632C5.33343 0.298662 5.03474 -4.65354e-07 4.66673 -4.65354e-07Z" transform="translate(175.748 122.891)" fill="#C7E0E2"/>
<path d="M4.66673 -4.65354e-07H0.666694C0.29869 -4.65354e-07 1.52589e-07 0.298662 1.52589e-07 0.666632C1.52589e-07 1.0346 0.29869 1.33326 0.666694 1.33326H4.66673C5.03473 1.33326 5.33342 1.0346 5.33342 0.666632C5.33342 0.298662 5.03473 -4.65354e-07 4.66673 -4.65354e-07Z" transform="translate(190.415 122.891)" fill="#C7E0E2"/>
<path d="M3.96704 3.02275L1.1377 0.194984C0.877696 -0.0649946 0.455004 -0.0649946 0.195002 0.194984C-0.0650005 0.454962 -0.0650005 0.877614 0.195002 1.13759L3.02434 3.96535C3.15503 4.09466 3.32566 4.16003 3.49635 4.16003C3.66703 4.16003 3.83766 4.09603 3.96704 3.96535C4.22704 3.70538 4.22704 3.28272 3.96704 3.02275Z" transform="translate(178.481 116.292)" fill="#C7E0E2"/>
<path d="M3.96704 0.194984C3.70704 -0.0649946 3.28434 -0.0649946 3.02434 0.194984L0.195002 3.02275C-0.0650005 3.28272 -0.0650005 3.70538 0.195002 3.96536C0.325691 4.09466 0.496317 4.16003 0.667007 4.16003C0.837696 4.16003 1.00832 4.09472 1.1377 3.96536L3.96704 1.13759C4.22704 0.877614 4.22704 0.454962 3.96704 0.194984Z" transform="translate(178.481 126.664)" fill="#C7E0E2"/>
<path d="M3.96835 0.195968C3.70835 -0.0653227 3.28566 -0.0653227 3.02434 0.195968L0.195002 3.02373C-0.065 3.28371 -0.065 3.70636 0.195002 3.96634C0.325691 4.09564 0.496318 4.16101 0.667007 4.16101C0.837696 4.16101 1.00832 4.09702 1.13901 3.96634L3.96835 1.13858C4.22835 0.878598 4.22835 0.457321 3.96835 0.195968Z" transform="translate(188.853 116.292)" fill="#C7E0E2"/>
</svg>
