<svg width="6" height="19" viewBox="0 0 6 19" fill="none" xmlns="http://www.w3.org/2000/svg">
<path d="M2.77201 4.64372C1.54125 4.64372 0.534258 3.63673 0.534258 2.40597C0.534258 1.1752 1.54125 0.168213 2.77201 0.168213C4.00278 0.168213 5.00977 1.1752 5.00977 2.40597C5.00977 3.63673 4.00278 4.64372 2.77201 4.64372ZM2.77201 6.88147C4.00278 6.88147 5.00977 7.88846 5.00977 9.11923C5.00977 10.35 4.00278 11.357 2.77201 11.357C1.54125 11.357 0.534258 10.35 0.534258 9.11923C0.534258 7.88846 1.54125 6.88147 2.77201 6.88147ZM2.77201 13.5947C4.00278 13.5947 5.00977 14.6017 5.00977 15.8325C5.00977 17.0633 4.00278 18.0702 2.77201 18.0702C1.54125 18.0702 0.534258 17.0633 0.534258 15.8325C0.534258 14.6017 1.54125 13.5947 2.77201 13.5947Z" fill="#6E6E6E"/>
</svg>
