<svg width="14" height="16" viewBox="0 0 14 16" fill="none" xmlns="http://www.w3.org/2000/svg">
<path d="M11.4038 4.24342L12.3482 3.30969C12.5993 3.06148 12.5993 2.65913 12.3482 2.41092C12.0972 2.16271 11.6902 2.16271 11.4392 2.41092L10.4948 3.34465C9.54204 2.57332 8.36298 2.06673 7.07207 1.93929V1.27125H7.71495C8.06983 1.27125 8.35784 0.986487 8.35784 0.635623C8.35784 0.284759 8.06983 0 7.71495 0H5.14341C4.78854 0 4.50052 0.284759 4.50052 0.635623C4.50052 0.986487 4.78854 1.27125 5.14341 1.27125H5.7863V1.93929C2.54197 2.259 0 4.9728 0 8.2631C0 11.7679 2.88399 14.6193 6.42886 14.6193C9.97373 14.6193 12.8577 11.7679 12.8577 8.2631C12.8577 6.73919 12.3116 5.33955 11.4038 4.24342ZM6.42886 13.3481C3.59309 13.3481 1.28577 11.0668 1.28577 8.2631C1.28577 5.45937 3.59309 3.17812 6.42886 3.17812C9.26463 3.17812 11.5719 5.45937 11.5719 8.2631C11.5719 11.0668 9.26463 13.3481 6.42886 13.3481Z" transform="translate(0.396484 0.826965)" fill="#6E6E6E"/>
<path d="M2.59156 3.25757H1.28581V0.635623C1.28581 0.284759 0.997791 0 0.642907 0C0.288022 0 0 0.284759 0 0.635623V3.89319C0 4.24406 0.288022 4.52881 0.642907 4.52881H2.59156C2.94644 4.52881 3.23446 4.24406 3.23446 3.89319C3.23446 3.54233 2.94676 3.25757 2.59156 3.25757Z" transform="translate(6.18311 5.19757)" fill="#6E6E6E"/>
</svg>
