<?xml version="1.0" encoding="utf-8"?>
<!-- Generator: Adobe Illustrator 16.0.0, SVG Export Plug-In . SVG Version: 6.00 Build 0)  -->
<!DOCTYPE svg PUBLIC "-//W3C//DTD SVG 1.1//EN" "http://www.w3.org/Graphics/SVG/1.1/DTD/svg11.dtd">
<svg version="1.1" id="Layer_1" xmlns="http://www.w3.org/2000/svg" xmlns:xlink="http://www.w3.org/1999/xlink" x="0px" y="0px"
	 width="6.417px" height="12.236px" viewBox="100.927 3.233 6.417 12.236" enable-background="new 100.927 3.233 6.417 12.236"
	 xml:space="preserve">
<path fill="#93A1AD" d="M104.01,3.299l-3.056,4.431c-0.032,0.047-0.036,0.108-0.01,0.158s0.079,0.082,0.136,0.082h6.111
	c0.057,0,0.109-0.031,0.135-0.082c0.012-0.022,0.018-0.047,0.018-0.071c0-0.03-0.009-0.061-0.027-0.087l-3.055-4.431
	c-0.029-0.042-0.076-0.066-0.127-0.066C104.085,3.233,104.038,3.258,104.01,3.299z"/>
<path fill="#93A1AD" d="M104.01,3.299l-3.056,4.431c-0.032,0.047-0.036,0.108-0.01,0.158s0.079,0.082,0.136,0.082h6.111
	c0.057,0,0.109-0.031,0.135-0.082c0.012-0.022,0.018-0.047,0.018-0.071c0-0.03-0.009-0.061-0.027-0.087l-3.055-4.431
	c-0.029-0.042-0.076-0.066-0.127-0.066C104.085,3.233,104.038,3.258,104.01,3.299z"/>
<path fill="#93A1AD" d="M104.01,3.299l-3.056,4.431c-0.032,0.047-0.036,0.108-0.01,0.158s0.079,0.082,0.136,0.082h6.111
	c0.057,0,0.109-0.031,0.135-0.082c0.012-0.022,0.018-0.047,0.018-0.071c0-0.03-0.009-0.061-0.027-0.087l-3.055-4.431
	c-0.029-0.042-0.076-0.066-0.127-0.066C104.085,3.233,104.038,3.258,104.01,3.299z"/>
<path fill="#93A1AD" d="M104.01,3.299l-3.056,4.431c-0.032,0.047-0.036,0.108-0.01,0.158s0.079,0.082,0.136,0.082h6.111
	c0.057,0,0.109-0.031,0.135-0.082c0.012-0.022,0.018-0.047,0.018-0.071c0-0.03-0.009-0.061-0.027-0.087l-3.055-4.431
	c-0.029-0.042-0.076-0.066-0.127-0.066C104.085,3.233,104.038,3.258,104.01,3.299z"/>
<path fill="#93A1AD" d="M104.262,15.404l3.055-4.432c0.033-0.047,0.036-0.107,0.01-0.158c-0.025-0.05-0.078-0.081-0.135-0.081
	h-6.111c-0.057,0-0.109,0.031-0.136,0.081c-0.012,0.023-0.017,0.047-0.017,0.072c0,0.029,0.008,0.061,0.026,0.086l3.056,4.432
	c0.029,0.041,0.076,0.065,0.126,0.065S104.232,15.445,104.262,15.404z"/>
<path fill="#93A1AD" d="M104.262,15.404l3.055-4.432c0.033-0.047,0.036-0.107,0.01-0.158c-0.025-0.05-0.078-0.081-0.135-0.081
	h-6.111c-0.057,0-0.109,0.031-0.136,0.081c-0.012,0.023-0.017,0.047-0.017,0.072c0,0.029,0.008,0.061,0.026,0.086l3.056,4.432
	c0.029,0.041,0.076,0.065,0.126,0.065S104.232,15.445,104.262,15.404z"/>
<path fill="#93A1AD" d="M104.262,15.404l3.055-4.432c0.033-0.047,0.036-0.107,0.01-0.158c-0.025-0.05-0.078-0.081-0.135-0.081
	h-6.111c-0.057,0-0.109,0.031-0.136,0.081c-0.012,0.023-0.017,0.047-0.017,0.072c0,0.029,0.008,0.061,0.026,0.086l3.056,4.432
	c0.029,0.041,0.076,0.065,0.126,0.065S104.232,15.445,104.262,15.404z"/>
<path fill="#93A1AD" d="M104.262,15.404l3.055-4.432c0.033-0.047,0.036-0.107,0.01-0.158c-0.025-0.05-0.078-0.081-0.135-0.081
	h-6.111c-0.057,0-0.109,0.031-0.136,0.081c-0.012,0.023-0.017,0.047-0.017,0.072c0,0.029,0.008,0.061,0.026,0.086l3.056,4.432
	c0.029,0.041,0.076,0.065,0.126,0.065S104.232,15.445,104.262,15.404z"/>
</svg>
