<?xml version="1.0" encoding="utf-8"?>
<!-- Generator: Adobe Illustrator 16.0.0, SVG Export Plug-In . SVG Version: 6.00 Build 0)  -->
<!DOCTYPE svg PUBLIC "-//W3C//DTD SVG 1.1//EN" "http://www.w3.org/Graphics/SVG/1.1/DTD/svg11.dtd">
<svg version="1.1" id="Layer_1" xmlns="http://www.w3.org/2000/svg" xmlns:xlink="http://www.w3.org/1999/xlink" x="0px" y="0px"
	 width="208.673px" height="80.618px" viewBox="0.548 0.076 208.673 80.618" enable-background="new 0.548 0.076 208.673 80.618"
	 xml:space="preserve">
<g opacity="0.75">
	<path fill="#FFFFFF" d="M61.707,13.582l-2.57,1.402c-0.151,0.082-0.286,0.183-0.412,0.293c1.498,1.264,3.433,2.026,5.546,2.026
		c2.098,0,4.02-0.751,5.514-1.997c-0.138-0.116-0.287-0.221-0.453-0.304l-2.752-1.375c-0.356-0.178-0.58-0.542-0.58-0.939v-1.08
		c0.077-0.088,0.166-0.201,0.26-0.335c0.375-0.53,0.659-1.113,0.855-1.724c0.353-0.109,0.613-0.435,0.613-0.822V7.574
		c0-0.253-0.113-0.48-0.288-0.639V5.27c0,0,0.342-2.593-3.169-2.593S61.101,5.27,61.101,5.27v1.666
		c-0.175,0.159-0.288,0.385-0.288,0.639v1.153c0,0.303,0.159,0.571,0.398,0.725c0.288,1.254,1.042,2.156,1.042,2.156v1.053
		C62.253,13.045,62.043,13.398,61.707,13.582z"/>
	<path fill="#3B5998" d="M64.417,0.077c-4.756-0.082-8.678,3.708-8.76,8.465c-0.046,2.697,1.156,5.121,3.07,6.733
		c0.125-0.109,0.259-0.209,0.409-0.291l2.57-1.402c0.337-0.184,0.547-0.538,0.547-0.922v-1.053c0,0-0.754-0.902-1.042-2.156
		c-0.239-0.154-0.399-0.421-0.399-0.725V7.574c0-0.253,0.113-0.48,0.288-0.639V5.269c0,0-0.342-2.593,3.169-2.593
		c3.511,0,3.169,2.593,3.169,2.593v1.666c0.176,0.159,0.288,0.385,0.288,0.639v1.153c0,0.387-0.26,0.713-0.613,0.822
		c-0.197,0.611-0.48,1.194-0.856,1.724c-0.094,0.133-0.183,0.247-0.26,0.334v1.08c0,0.397,0.225,0.761,0.581,0.938l2.752,1.376
		c0.165,0.083,0.314,0.187,0.452,0.303c1.856-1.548,3.055-3.862,3.1-6.468C72.964,4.08,69.174,0.158,64.417,0.077z"/>
</g>
<g opacity="0.15">
	<path fill="#FFFFFF" d="M162.857,20.198l-2.57,1.402c-0.15,0.083-0.286,0.184-0.412,0.294c1.498,1.263,3.433,2.025,5.547,2.025
		c2.098,0,4.02-0.751,5.514-1.997c-0.138-0.116-0.287-0.221-0.453-0.304l-2.752-1.376c-0.355-0.178-0.58-0.541-0.58-0.938v-1.08
		c0.076-0.088,0.165-0.201,0.26-0.334c0.375-0.53,0.659-1.113,0.855-1.724c0.354-0.109,0.613-0.435,0.613-0.822V14.19
		c0-0.253-0.113-0.48-0.288-0.639v-1.666c0,0,0.343-2.593-3.169-2.593s-3.17,2.593-3.17,2.593v1.666
		c-0.176,0.159-0.287,0.385-0.287,0.639v1.153c0,0.304,0.159,0.571,0.398,0.725c0.287,1.253,1.041,2.156,1.041,2.156v1.053
		C163.404,19.661,163.195,20.014,162.857,20.198z"/>
	<path fill="#3B5998" d="M165.568,6.693c-4.757-0.082-8.679,3.708-8.76,8.465c-0.047,2.697,1.156,5.121,3.069,6.733
		c0.125-0.109,0.259-0.209,0.409-0.291l2.57-1.402c0.336-0.184,0.547-0.538,0.547-0.922v-1.053c0,0-0.755-0.902-1.043-2.156
		c-0.238-0.154-0.398-0.421-0.398-0.725v-1.153c0-0.253,0.113-0.48,0.288-0.639v-1.666c0,0-0.343-2.593,3.169-2.593
		s3.17,2.593,3.17,2.593v1.666c0.176,0.159,0.287,0.385,0.287,0.639v1.153c0,0.387-0.26,0.713-0.612,0.822
		c-0.196,0.611-0.48,1.194-0.855,1.724c-0.095,0.134-0.183,0.247-0.261,0.335v1.08c0,0.397,0.225,0.761,0.58,0.938l2.752,1.376
		c0.166,0.082,0.314,0.187,0.453,0.303c1.855-1.548,3.055-3.862,3.1-6.469C174.114,10.696,170.324,6.774,165.568,6.693z"/>
</g>
<path fill="#FFFFFF" d="M198.045,75.995l-2.57,1.402c-0.15,0.082-0.287,0.183-0.412,0.293c1.498,1.264,3.432,2.026,5.546,2.026
	c2.098,0,4.02-0.752,5.515-1.998c-0.139-0.115-0.288-0.221-0.453-0.303l-2.753-1.376c-0.355-0.179-0.58-0.542-0.58-0.938v-1.08
	c0.077-0.088,0.165-0.201,0.261-0.335c0.375-0.53,0.658-1.112,0.855-1.724c0.353-0.109,0.613-0.436,0.613-0.822v-1.153
	c0-0.253-0.113-0.479-0.289-0.639v-1.666c0,0,0.343-2.593-3.169-2.593c-3.511,0-3.169,2.593-3.169,2.593v1.666
	c-0.176,0.159-0.288,0.386-0.288,0.639v1.153c0,0.303,0.159,0.57,0.398,0.725c0.288,1.254,1.042,2.156,1.042,2.156v1.053
	C198.592,75.458,198.382,75.812,198.045,75.995z"/>
<path fill="#3B5998" d="M200.756,62.49c-4.756-0.082-8.678,3.709-8.76,8.465c-0.046,2.697,1.156,5.121,3.07,6.732
	c0.125-0.109,0.259-0.209,0.408-0.29l2.57-1.401c0.337-0.185,0.547-0.538,0.547-0.922v-1.054c0,0-0.754-0.901-1.042-2.155
	c-0.239-0.154-0.398-0.422-0.398-0.726v-1.153c0-0.253,0.112-0.479,0.288-0.639v-1.666c0,0-0.343-2.593,3.169-2.593
	s3.169,2.593,3.169,2.593v1.666c0.176,0.159,0.288,0.386,0.288,0.639v1.153c0,0.388-0.26,0.714-0.612,0.822
	c-0.197,0.611-0.48,1.194-0.855,1.724c-0.096,0.134-0.184,0.247-0.261,0.335v1.08c0,0.397,0.225,0.761,0.58,0.938l2.752,1.376
	c0.165,0.083,0.314,0.187,0.452,0.304c1.855-1.549,3.055-3.863,3.1-6.469C209.303,66.493,205.513,62.571,200.756,62.49z"/>
<g opacity="0.35">
	<path fill="#FFFFFF" d="M6.599,76.973l-2.57,1.402c-0.151,0.082-0.286,0.184-0.412,0.293c1.498,1.264,3.433,2.025,5.546,2.025
		c2.098,0,4.02-0.75,5.514-1.996c-0.138-0.117-0.287-0.222-0.453-0.305l-2.752-1.375c-0.356-0.178-0.581-0.541-0.581-0.939v-1.08
		c0.078-0.088,0.166-0.201,0.261-0.334c0.375-0.529,0.659-1.113,0.855-1.725c0.353-0.108,0.613-0.435,0.613-0.822v-1.152
		c0-0.254-0.113-0.48-0.288-0.639V68.66c0,0,0.342-2.594-3.169-2.594c-3.512,0-3.169,2.594-3.169,2.594v1.666
		c-0.175,0.158-0.288,0.385-0.288,0.639v1.152c0,0.304,0.159,0.571,0.398,0.726c0.288,1.253,1.042,2.155,1.042,2.155v1.054
		C7.146,76.436,6.936,76.789,6.599,76.973z"/>
	<path fill="#3B5998" d="M9.31,63.468c-4.756-0.081-8.678,3.708-8.76,8.465c-0.046,2.697,1.156,5.121,3.07,6.733
		c0.125-0.109,0.259-0.21,0.409-0.291l2.57-1.402c0.337-0.184,0.547-0.537,0.547-0.922v-1.053c0,0-0.754-0.902-1.042-2.156
		c-0.239-0.154-0.399-0.421-0.399-0.725v-1.152c0-0.254,0.113-0.48,0.288-0.639V68.66c0,0-0.342-2.594,3.169-2.594
		c3.511,0,3.169,2.594,3.169,2.594v1.666c0.176,0.158,0.288,0.385,0.288,0.639v1.152c0,0.387-0.26,0.713-0.613,0.822
		c-0.197,0.611-0.48,1.194-0.856,1.725c-0.094,0.133-0.183,0.246-0.26,0.334v1.08c0,0.397,0.225,0.762,0.581,0.938l2.752,1.376
		c0.165,0.082,0.314,0.188,0.452,0.303c1.856-1.547,3.055-3.861,3.1-6.468C17.856,67.471,14.066,63.549,9.31,63.468z"/>
</g>
<g opacity="0.05">
	<path fill="#FFFFFF" d="M49.921,54.678l-2.57,1.401c-0.151,0.082-0.286,0.183-0.413,0.294c1.499,1.264,3.433,2.025,5.546,2.025
		c2.098,0,4.02-0.751,5.514-1.997c-0.138-0.116-0.288-0.222-0.453-0.304l-2.752-1.376c-0.355-0.178-0.58-0.541-0.58-0.938v-1.08
		c0.078-0.088,0.166-0.201,0.26-0.335c0.375-0.53,0.659-1.112,0.856-1.724c0.353-0.109,0.613-0.436,0.613-0.822V48.67
		c0-0.254-0.113-0.48-0.288-0.639v-1.667c0,0,0.342-2.593-3.169-2.593c-3.512,0-3.169,2.593-3.169,2.593v1.667
		c-0.175,0.158-0.288,0.385-0.288,0.639v1.152c0,0.303,0.16,0.57,0.398,0.725c0.288,1.254,1.042,2.156,1.042,2.156v1.053
		C50.468,54.14,50.258,54.493,49.921,54.678z"/>
	<path fill="#3B5998" d="M52.632,41.172c-4.756-0.081-8.679,3.709-8.76,8.465c-0.046,2.697,1.156,5.121,3.07,6.733
		c0.125-0.109,0.259-0.21,0.408-0.291l2.57-1.401c0.337-0.185,0.547-0.537,0.547-0.922v-1.053c0,0-0.754-0.902-1.042-2.156
		c-0.238-0.154-0.398-0.422-0.398-0.726v-1.152c0-0.253,0.113-0.479,0.288-0.639v-1.667c0,0-0.342-2.592,3.169-2.592
		c3.512,0,3.169,2.592,3.169,2.592v1.667c0.175,0.159,0.288,0.386,0.288,0.639v1.152c0,0.388-0.26,0.714-0.613,0.823
		c-0.196,0.611-0.48,1.193-0.855,1.724c-0.094,0.134-0.183,0.247-0.26,0.335v1.08c0,0.396,0.225,0.761,0.58,0.938l2.752,1.377
		c0.165,0.082,0.314,0.187,0.452,0.303c1.856-1.549,3.055-3.862,3.1-6.469C61.178,45.176,57.388,41.253,52.632,41.172z"/>
</g>
</svg>
