<svg width="12" height="15" viewBox="0 0 12 15" fill="none" xmlns="http://www.w3.org/2000/svg">
<path d="M4.9711 14.5635H7.49071C9.71371 14.5635 11.5501 12.92 11.5501 10.8899V4.22998C11.5501 2.19987 9.71371 0.556372 7.49071 0.556372H4.9711C2.7481 0.556372 0.911719 2.19987 0.911719 4.22998V10.8899C0.911719 12.92 2.7481 14.5635 4.9711 14.5635ZM10.2703 4.22998V5.75435H6.87082V1.73099H7.49071C9.02913 1.73099 10.2703 2.86516 10.2703 4.22998ZM4.9711 1.73099H5.59099V5.75435H2.19155V4.22998C2.19155 2.86516 3.43269 1.73099 4.9711 1.73099ZM2.19155 6.92897H10.2703V10.8899C10.2703 12.2547 9.02913 13.3889 7.49071 13.3889H4.9711C3.43269 13.3889 2.19155 12.2547 2.19155 10.8899V6.92897Z" fill="#8E54E9" stroke="#8E54E9" stroke-width="0.2"/>
</svg>
