<?xml version="1.0" encoding="utf-8"?>
<!-- Generator: Adobe Illustrator 16.0.0, SVG Export Plug-In . SVG Version: 6.00 Build 0)  -->
<!DOCTYPE svg PUBLIC "-//W3C//DTD SVG 1.1//EN" "http://www.w3.org/Graphics/SVG/1.1/DTD/svg11.dtd">
<svg version="1.1" id="Layer_1" xmlns="http://www.w3.org/2000/svg" xmlns:xlink="http://www.w3.org/1999/xlink" x="0px" y="0px"
	 width="24px" height="24px" viewBox="0 0.063 24 24" enable-background="new 0 0.063 24 24" xml:space="preserve">
<path fill="#8E54E9" d="M12,24.063c-6.617,0-12-5.384-12-12s5.383-12,12-12s12,5.383,12,12C24.001,18.68,18.617,24.063,12,24.063z
	 M12,1.434c-5.861,0-10.629,4.769-10.629,10.629c0,5.861,4.768,10.628,10.629,10.628c5.86,0,10.629-4.768,10.629-10.628
	C22.629,6.203,17.86,1.434,12,1.434z"/>
<path fill="#8E54E9" d="M16.731,12.748H7.269c-0.379,0-0.686-0.306-0.686-0.686c0-0.378,0.307-0.686,0.686-0.686h9.463
	c0.379,0,0.686,0.308,0.686,0.686C17.417,12.442,17.111,12.748,16.731,12.748z"/>
<path fill="#8E54E9" d="M12,17.48c-0.378,0-0.686-0.308-0.686-0.686V7.332c0-0.378,0.308-0.686,0.686-0.686
	c0.379,0,0.686,0.308,0.686,0.686v9.463C12.686,17.174,12.379,17.48,12,17.48z"/>
</svg>
