<svg width="30" height="31" viewBox="0 0 30 31" fill="none" xmlns="http://www.w3.org/2000/svg">
<path d="M14.5632 29.1263C6.55343 29.1263 -1.15738e-08 22.5729 -1.15738e-08 14.5632C-1.15738e-08 6.55343 6.55343 -2.31475e-08 14.5632 -2.31475e-08C22.5729 -2.31475e-08 29.1263 6.55343 29.1263 14.5632C29.1263 22.5729 22.5729 29.1263 14.5632 29.1263Z" transform="translate(0.046875 0.917358)" fill="#DBAB56"/>
<path d="M13.6408 27.2817C21.1745 27.2817 27.2817 21.1745 27.2817 13.6408C27.2817 6.10721 21.1745 0 13.6408 0C6.10721 0 0 6.10721 0 13.6408C0 21.1745 6.10721 27.2817 13.6408 27.2817Z" transform="translate(0.969116 0.96582)" fill="#EFB30C"/>
<path d="M1.60195 15.2913C1.60195 7.76702 7.71848 1.65049 15.2428 1.65049C18.5923 1.65049 21.6506 2.86409 24.0292 4.85439C21.5535 1.89321 17.8156 -1.15738e-08 13.6408 -1.15738e-08C6.11653 -1.15738e-08 -2.31475e-08 6.11653 -2.31475e-08 13.6408C-2.31475e-08 17.8156 1.89321 21.5535 4.85439 24.0778C2.81555 21.6991 1.60195 18.6409 1.60195 15.2913Z" transform="translate(0.969116 0.96582)" fill="#E5A300"/>
<path d="M19.3205 -9.25901e-08C24.6603 5.33983 24.6603 13.9806 19.3205 19.3205C13.9806 24.6603 5.33983 24.6603 0 19.3205" transform="translate(4.95007 4.99512)" fill="#E5A300"/>
<path d="M14.5632 29.1263C6.55343 29.1263 -1.15738e-08 22.5729 -1.15738e-08 14.5632C-1.15738e-08 6.55343 6.55343 0 14.5632 0C22.5729 0 29.1263 6.55343 29.1263 14.5632C29.1263 22.5729 22.5729 29.1263 14.5632 29.1263ZM14.5632 1.84467C7.5243 1.84467 1.84467 7.57285 1.84467 14.5632C1.84467 21.602 7.57285 27.2817 14.5632 27.2817C21.5535 27.2817 27.2817 21.5535 27.2817 14.5632C27.2817 7.57285 21.602 1.84467 14.5632 1.84467Z" transform="translate(0.0491943 0.0435791)" fill="#F7D27F"/>
<path d="M20.0001 13.1554C20.0001 9.46606 18.6409 6.11653 16.4078 3.59225C13.835 1.35923 10.4855 4.62951e-08 6.79615 4.62951e-08C4.32041 4.62951e-08 2.03884 0.631071 3.70361e-07 1.69904C1.65049 0.87379 3.49516 0.436895 5.43692 0.436895C9.27188 0.436895 12.767 2.18448 15.0972 4.90293C17.8156 7.23304 19.5146 10.6797 19.5146 14.5632C19.5146 16.5049 19.0778 18.3496 18.3011 20.0001C19.369 17.9612 20.0001 15.6311 20.0001 13.1554Z" transform="translate(9.17322 1.45142)" fill="#EFC273"/>
<path d="M2.31475e-08 6.89324C2.31475e-08 10.5826 1.35923 13.9321 3.59225 16.4564C6.16507 18.6894 9.5146 20.0486 13.1554 20.0486C15.6311 20.0486 17.9127 19.4176 19.9515 18.3496C18.301 19.1263 16.4564 19.5632 14.5146 19.5632C10.6797 19.5632 7.1845 17.8156 4.85439 15.0972C2.13593 12.767 0.388351 9.32043 0.388351 5.43692C0.388351 3.49516 0.825246 1.65049 1.60195 3.70361e-07C0.631071 2.08739 2.31475e-08 4.4175 2.31475e-08 6.89324Z" transform="translate(1.40601 9.12134)" fill="#EAC06C"/>
<path d="M1.65049 0.825246C1.65049 1.26214 1.26214 1.9903 0.825246 1.9903C0.388351 1.9903 3.70361e-07 1.26214 3.70361e-07 0.825246C3.70361e-07 0.388351 0.388351 -1.8518e-07 0.825246 -1.8518e-07C1.26214 -1.8518e-07 1.65049 0.388351 1.65049 0.825246Z" transform="translate(13.7849 4.60669)" fill="#E5A300"/>
<path d="M0.825246 1.65049C1.28102 1.65049 1.65049 1.28102 1.65049 0.825247C1.65049 0.369476 1.28102 0 0.825246 0C0.369475 0 0 0.369476 0 0.825247C0 1.28102 0.369475 1.65049 0.825246 1.65049Z" transform="translate(13.7849 4.60669)" fill="#F7D27F"/>
<path d="M1.16505 -1.8518e-07C1.50486 0.339807 1.50486 0.825246 1.16505 1.16505C0.825245 1.50486 0.339808 1.50486 3.70361e-07 1.16505" transform="translate(14.0275 4.84949)" fill="#EFC273"/>
<path d="M0.194176 1.01942C0.194176 1.06797 0.145632 1.11651 0.0970876 1.11651C0.0485437 1.11651 3.70361e-07 1.06797 3.70361e-07 1.01942V0.0970878C3.70361e-07 0.0485439 0.0485437 -5.78688e-09 0.0970876 -5.78688e-09C0.145632 -5.78688e-09 0.194176 0.0485439 0.194176 0.0970878V1.01942Z" transform="translate(14.5131 0.383423)" fill="#FFE0A1"/>
<path d="M0.194176 1.01942C0.194176 1.06797 0.145632 1.11651 0.0970876 1.11651C0.0485437 1.11651 3.70361e-07 1.06797 3.70361e-07 1.01942V0.0970874C3.70361e-07 0.0485435 0.0485437 -7.40721e-07 0.0970876 -7.40721e-07C0.145632 -7.40721e-07 0.194176 0.0485435 0.194176 0.0970874V1.01942Z" transform="translate(14.5131 27.7622)" fill="#FFE0A1"/>
<path d="M0.182039 0.861654C0.133495 0.910198 0.0849518 0.910198 0.0364079 0.861654C-0.012136 0.81311 -0.012136 0.764566 0.0364079 0.716022L0.716023 0.036408C0.764567 -0.0121359 0.813111 -0.0121359 0.861655 0.036408C0.910198 0.0849519 0.910198 0.133496 0.861655 0.18204L0.182039 0.861654Z" transform="translate(23.8457 4.52185)" fill="#FFE0A1"/>
<path d="M0.18204 0.861654C0.133496 0.910198 0.0849517 0.910198 0.0364078 0.861654C-0.0121361 0.81311 -0.0121361 0.764566 0.0364078 0.716022L0.716023 0.0364072C0.764567 -0.0121367 0.81311 -0.0121367 0.861654 0.0364072C0.910198 0.0849511 0.910198 0.133496 0.861654 0.18204L0.18204 0.861654Z" transform="translate(4.52527 23.8424)" fill="#FFE0A1"/>
<path d="M0.0970871 0.194175C0.0485432 0.194175 7.40721e-07 0.145632 7.40721e-07 0.097088C7.40721e-07 0.0485441 0.0485432 -1.8518e-07 0.0970871 -1.8518e-07H1.01942C1.06797 -1.8518e-07 1.11651 0.0485441 1.11651 0.097088C1.11651 0.145632 1.06797 0.194175 1.01942 0.194175H0.0970871Z" transform="translate(27.7173 14.5583)" fill="#FFE0A1"/>
<path d="M0.0970878 0.214283C0.0485439 0.214283 1.15738e-08 0.165739 1.15738e-08 0.117196C1.15738e-08 0.0686516 0.0485439 0.0201074 0.0970878 0.0201074H1.01942C1.06797 -0.0284365 1.11651 0.0201075 1.11651 0.0686514C1.11651 0.117195 1.06797 0.16574 1.01942 0.16574H0.0970878V0.214283Z" transform="translate(0.386841 14.5381)" fill="#FFE0A1"/>
<path d="M0.0364079 0.18204C-0.012136 0.133496 -0.012136 0.0849522 0.0364079 0.0364083C0.0849518 -0.0121356 0.133495 -0.0121356 0.182039 0.0364083L0.861655 0.716022C0.910198 0.764566 0.910198 0.813111 0.861655 0.861655C0.813111 0.910199 0.764567 0.910199 0.716023 0.861655L0.0364079 0.18204Z" transform="translate(23.8457 23.891)" fill="#FFE0A1"/>
<path d="M0.0364081 0.18204C-0.0121358 0.133496 -0.0121358 0.0849519 0.0364081 0.036408C0.084952 -0.0121359 0.133496 -0.0121359 0.182039 0.036408L0.861654 0.716022C0.910198 0.764566 0.910198 0.81311 0.861654 0.861654C0.81311 0.910198 0.764566 0.910198 0.716022 0.861654L0.0364081 0.18204Z" transform="translate(4.47681 4.52185)" fill="#FFE0A1"/>
<path d="M0.699722 0.893898C0.748266 0.942442 0.699722 1.03953 0.651178 1.03953C0.602634 1.08807 0.505547 1.03953 0.505547 0.990985L0.0201077 0.165739C-0.0284362 0.117195 0.0201079 0.0201075 0.0686518 0.0201075C0.117196 -0.0284364 0.214283 0.0201074 0.214283 0.0686513L0.699722 0.893898Z" transform="translate(7.40552 2.25659)" fill="#FFE0A1"/>
<path d="M0.699722 0.893898C0.748266 0.942442 0.699721 1.03953 0.651177 1.03953C0.602633 1.08807 0.505546 1.03953 0.505546 0.990986L0.0201072 0.16574C-0.0284367 0.117196 0.0201083 0.0201083 0.0686522 0.0201083C0.117196 -0.0284356 0.214283 0.0201075 0.214283 0.0686514L0.699722 0.893898Z" transform="translate(21.0951 25.9462)" fill="#FFE0A1"/>
<path d="M0.24272 1.06797C0.24272 1.11651 0.145632 1.16505 0.0970885 1.16505C0.0485446 1.16505 3.70361e-07 1.06797 3.70361e-07 1.01942L0.24272 0.0970878C0.24272 0.0485439 0.339807 1.15738e-08 0.388351 1.15738e-08C0.436895 1.15738e-08 0.485439 0.0970878 0.485439 0.145632L0.24272 1.06797Z" transform="translate(17.9113 0.820435)" fill="#FFE0A1"/>
<path d="M0.24272 1.06797C0.24272 1.11651 0.145631 1.16505 0.0970874 1.16505C0.0485435 1.16505 1.8518e-07 1.06797 1.8518e-07 1.01942L0.24272 0.0970882C0.24272 0.0485443 0.339807 0 0.388351 0C0.436895 0 0.485439 0.0970874 0.485439 0.145631L0.24272 1.06797Z" transform="translate(10.8239 27.2283)" fill="#FFE0A1"/>
<path d="M0.165738 0.699722C0.117195 0.748266 0.0201072 0.699722 0.0201072 0.651178C-0.0284367 0.602634 0.0201083 0.505547 0.0686522 0.505547L0.893897 0.0201074C0.942441 -0.0284364 1.03953 0.0201076 1.03953 0.0686515C1.08807 0.117195 1.03953 0.214283 0.990985 0.214283L0.165738 0.699722Z" transform="translate(25.9496 7.40222)" fill="#FFE0A1"/>
<path d="M0.165739 0.699722C0.117195 0.748266 0.0201075 0.699722 0.0201075 0.651178C-0.0284364 0.602635 0.0201075 0.505547 0.0686514 0.505547L0.893898 0.0201083C0.942442 -0.0284356 1.03953 0.0201075 1.03953 0.0686514C1.08807 0.117195 1.03953 0.214283 0.990985 0.214283L0.165739 0.699722Z" transform="translate(2.26001 21.0916)" fill="#FFE0A1"/>
<path d="M0.0970871 0.242719C0.0485432 0.242719 7.40721e-07 0.145632 7.40721e-07 0.0970878C7.40721e-07 0.0485439 0.0970882 -3.70361e-07 0.145632 -3.70361e-07L1.06797 0.242719C1.11651 0.242719 1.16505 0.339807 1.16505 0.38835C1.16505 0.436894 1.06797 0.485439 1.01942 0.485439L0.0970871 0.242719Z" transform="translate(27.2314 17.9078)" fill="#FFE0A1"/>
<path d="M0.0970878 0.24272C0.0485439 0.24272 0 0.145632 0 0.0970876C0 0.0485437 0.0970878 3.70361e-07 0.145632 3.70361e-07L1.06797 0.24272C1.11651 0.24272 1.16505 0.339807 1.16505 0.388351C1.16505 0.436895 1.06797 0.485439 1.01942 0.485439L0.0970878 0.24272Z" transform="translate(0.82373 10.8204)" fill="#FFE0A1"/>
<path d="M0.990985 0.505547C1.03953 0.554091 1.08807 0.602634 1.03953 0.651178C0.990985 0.699722 0.942442 0.748266 0.893898 0.699722L0.0686514 0.214283C0.0201075 0.165739 -0.0284364 0.117195 0.0201075 0.0686515C0.0686514 0.0201076 0.117195 -0.0284364 0.165739 0.0201074L0.990985 0.505547Z" transform="translate(2.26001 7.40222)" fill="#FFE0A1"/>
<path d="M0.990985 0.505547C1.03953 0.554091 1.08807 0.602635 1.03953 0.651178C0.990986 0.699722 0.942441 0.748266 0.893897 0.699722L0.0686522 0.214283C0.0201083 0.165739 -0.0284367 0.117195 0.0201072 0.0686514C0.0686511 0.0201075 0.117195 -0.0284356 0.165738 0.0201083L0.990985 0.505547Z" transform="translate(25.9496 21.0916)" fill="#FFE0A1"/>
<path d="M0.485439 1.01942C0.485439 1.06797 0.485439 1.16505 0.388351 1.16505C0.339807 1.16505 0.24272 1.16505 0.24272 1.06797L1.8518e-07 0.145632C1.8518e-07 0.0970878 -3.68914e-07 1.15738e-08 0.0970874 1.15738e-08C0.145631 1.15738e-08 0.24272 -2.17008e-08 0.24272 0.0970878L0.485439 1.01942Z" transform="translate(10.8239 0.820435)" fill="#FFE0A1"/>
<path d="M0.485439 1.01942C0.485439 1.06797 0.485439 1.16505 0.388351 1.16505C0.339807 1.16505 0.24272 1.16505 0.24272 1.06797L3.70361e-07 0.145631C3.70361e-07 0.0970874 7.37828e-07 0 0.0970885 0C0.145632 0 0.24272 3.68914e-07 0.24272 0.0970882L0.485439 1.01942Z" transform="translate(17.9113 27.2283)" fill="#FFE0A1"/>
<path d="M0.214283 0.990985C0.16574 1.03953 0.117196 1.08807 0.0686522 1.03953C0.0201083 0.990985 -0.0284367 0.942442 0.0201072 0.893898L0.505546 0.0686513C0.55409 0.0201074 0.602633 -0.0284364 0.651177 0.0201075C0.699721 0.0686514 0.748266 0.117195 0.699722 0.165739L0.214283 0.990985Z" transform="translate(21.0951 2.25659)" fill="#FFE0A1"/>
<path d="M0.214283 0.990986C0.165739 1.03953 0.117196 1.08807 0.0686518 1.03953C0.0201079 0.990985 -0.0284362 0.942442 0.0201077 0.893898L0.505547 0.0686514C0.554091 0.0201075 0.602634 -0.0284356 0.651178 0.0201083C0.699722 0.0686522 0.748266 0.117196 0.699722 0.16574L0.214283 0.990986Z" transform="translate(7.40552 25.9462)" fill="#FFE0A1"/>
<path d="M0.145632 0.485439C0.0970882 0.485439 7.40721e-07 0.485439 7.40721e-07 0.388351C7.40721e-07 0.339807 -7.45061e-07 0.24272 0.0970871 0.24272L1.01942 3.70361e-07C1.06797 3.70361e-07 1.16505 -1.88074e-07 1.16505 0.0970876C1.16505 0.145632 1.16505 0.24272 1.06797 0.24272L0.145632 0.485439Z" transform="translate(27.2314 10.8204)" fill="#FFE0A1"/>
<path d="M0.145632 0.485439C0.0970878 0.485439 0 0.485438 0 0.38835C0 0.339807 2.17008e-08 0.242719 0.0970878 0.242719L1.01942 -3.70361e-07C1.06797 -3.70361e-07 1.16505 0 1.16505 0.0970878C1.16505 0.145632 1.16505 0.242719 1.06797 0.242719L0.145632 0.485439Z" transform="translate(0.82373 17.9078)" fill="#FFE0A1"/>
<path d="M4.78204 3.70361e-07H3.47136C3.32573 3.70361e-07 3.1801 0.0485437 3.03446 0.0970876L0.51018 1.45632C0.121829 1.65049 -0.0723465 2.08739 0.0247413 2.52428L0.316005 3.73788C0.364549 4.02914 0.558725 4.27186 0.849988 4.36895C1.09271 4.46604 1.43251 4.46604 1.67523 4.32041L2.35485 3.9806V12.5243C2.35485 13.0583 2.79174 13.4467 3.27718 13.4467H4.78204C5.31603 13.4467 5.70438 13.0098 5.70438 12.5243V0.922334C5.70438 0.436895 5.26748 3.70361e-07 4.78204 3.70361e-07Z" transform="translate(10.9934 8.87866)" fill="#FFE0A1"/>
<path d="M3.70361e-07 3.39807V8.83499C3.70361e-07 9.36897 0.436895 9.75732 0.922334 9.75732H2.4272C2.96118 9.75732 3.34953 9.32043 3.34953 8.83499V3.70361e-07L3.70361e-07 3.39807Z" transform="translate(13.2997 12.5194)" fill="#F7D27F"/>
</svg>
