<svg width="31" height="32" viewBox="0 0 31 32" fill="none" xmlns="http://www.w3.org/2000/svg">
<path d="M14.7696 29.5392C6.64632 29.5392 -1.17378e-08 22.8929 -1.17378e-08 14.7696C-1.17378e-08 6.64632 6.64632 -2.34756e-08 14.7696 -2.34756e-08C22.8929 -2.34756e-08 29.5392 6.64632 29.5392 14.7696C29.5392 22.8929 22.8929 29.5392 14.7696 29.5392Z" transform="translate(0.889038 1.61707)" fill="#D89E77"/>
<path d="M13.8342 27.6684C21.4746 27.6684 27.6684 21.4746 27.6684 13.8342C27.6684 6.19378 21.4746 0 13.8342 0C6.19378 0 0 6.19378 0 13.8342C0 21.4746 6.19378 27.6684 13.8342 27.6684Z" transform="translate(1.82458 1.66626)" fill="#D88B56"/>
<path d="M1.62466 15.5081C1.62466 7.87712 7.82789 1.67389 15.4588 1.67389C18.8559 1.67389 21.9575 2.90469 24.3698 4.9232C21.859 1.92005 18.0681 -1.17378e-08 13.8342 -1.17378e-08C6.20323 -1.17378e-08 -2.34756e-08 6.20323 -2.34756e-08 13.8342C-2.34756e-08 18.0681 1.92005 21.859 4.9232 24.4191C2.85546 22.0067 1.62466 18.9051 1.62466 15.5081Z" transform="translate(1.82458 1.66626)" fill="#CC7E48"/>
<path d="M19.5943 -9.39026e-08C25.0098 5.41552 25.0098 14.1788 19.5943 19.5943C14.1788 25.0098 5.41552 25.0098 0 19.5943" transform="translate(5.86145 5.75256)" fill="#CC7E48"/>
<path d="M14.7696 29.5392C6.64632 29.5392 -1.17378e-08 22.8929 -1.17378e-08 14.7696C-1.17378e-08 6.64632 6.64632 0 14.7696 0C22.8929 0 29.5392 6.64632 29.5392 14.7696C29.5392 22.8929 22.8929 29.5392 14.7696 29.5392ZM14.7696 1.87082C7.63096 1.87082 1.87082 7.68019 1.87082 14.7696C1.87082 21.9082 7.68019 27.6684 14.7696 27.6684C21.859 27.6684 27.6684 21.859 27.6684 14.7696C27.6684 7.68019 21.9082 1.87082 14.7696 1.87082Z" transform="translate(0.889038 0.730835)" fill="#F7C6A4"/>
<path d="M20.2836 13.3419C20.2836 9.60024 18.9051 6.20323 16.6404 3.64317C14.0311 1.3785 10.6341 4.69513e-08 6.89248 4.69513e-08C4.38165 4.69513e-08 2.06774 0.640016 3.7561e-07 1.72312C1.67389 0.886176 3.5447 0.443088 5.51398 0.443088C9.40331 0.443088 12.948 2.21544 15.3111 4.97243C18.0681 7.33557 19.7913 10.831 19.7913 14.7696C19.7913 16.7389 19.3482 18.6097 18.5605 20.2836C19.6436 18.2158 20.2836 15.8527 20.2836 13.3419Z" transform="translate(10.1447 2.15857)" fill="#E8B18B"/>
<path d="M2.34756e-08 6.99094C2.34756e-08 10.7326 1.3785 14.1296 3.64317 16.6896C6.25246 18.9543 9.64947 20.3328 13.3419 20.3328C15.8527 20.3328 18.1666 19.6928 20.2343 18.6097C18.5605 19.3974 16.6896 19.8405 14.7204 19.8405C10.831 19.8405 7.28633 18.0681 4.9232 15.3111C2.16621 12.948 0.393856 9.45254 0.393856 5.51398C0.393856 3.5447 0.836944 1.67389 1.62466 3.7561e-07C0.640016 2.11698 2.34756e-08 4.48011 2.34756e-08 6.99094Z" transform="translate(2.26758 9.93726)" fill="#E8B18B"/>
<path d="M0.196928 1.03387C0.196928 1.0831 0.147696 1.13234 0.0984638 1.13234C0.0492318 1.13234 3.7561e-07 1.0831 3.7561e-07 1.03387V0.098464C3.7561e-07 0.049232 0.0492318 -5.86891e-09 0.0984638 -5.86891e-09C0.147696 -5.86891e-09 0.196928 0.049232 0.196928 0.098464V1.03387Z" transform="translate(15.5602 1.07544)" fill="#FFDCC5"/>
<path d="M0.196928 1.03387C0.196928 1.0831 0.147696 1.13234 0.0984638 1.13234C0.0492318 1.13234 3.7561e-07 1.0831 3.7561e-07 1.03387V0.0984636C3.7561e-07 0.0492316 0.0492318 -7.51221e-07 0.0984638 -7.51221e-07C0.147696 -7.51221e-07 0.196928 0.0492316 0.196928 0.0984636V1.03387Z" transform="translate(15.5602 28.8423)" fill="#FFDCC5"/>
<path d="M0.18462 0.873868C0.135388 0.9231 0.086156 0.9231 0.036924 0.873868C-0.012308 0.824636 -0.012308 0.775404 0.036924 0.726172L0.726173 0.0369241C0.775405 -0.0123079 0.824636 -0.0123079 0.873868 0.0369241C0.9231 0.0861561 0.9231 0.135388 0.873868 0.18462L0.18462 0.873868Z" transform="translate(25.025 5.27246)" fill="#FFDCC5"/>
<path d="M0.18462 0.873867C0.135388 0.923099 0.0861559 0.923099 0.0369239 0.873867C-0.0123081 0.824635 -0.0123081 0.775404 0.0369239 0.726172L0.726172 0.0369232C0.775404 -0.0123087 0.824636 -0.0123087 0.873868 0.0369232C0.9231 0.0861552 0.9231 0.135389 0.873868 0.184621L0.18462 0.873867Z" transform="translate(5.43066 24.8668)" fill="#FFDCC5"/>
<path d="M0.0984632 0.196928C0.0492312 0.196928 7.51221e-07 0.147696 7.51221e-07 0.0984642C7.51221e-07 0.0492322 0.0492312 -1.87805e-07 0.0984632 -1.87805e-07H1.03387C1.0831 -1.87805e-07 1.13234 0.0492322 1.13234 0.0984642C1.13234 0.147696 1.0831 0.196928 1.03387 0.196928H0.0984632Z" transform="translate(28.9513 15.4512)" fill="#FFDCC5"/>
<path d="M0.098464 0.21732C0.049232 0.21732 1.17378e-08 0.168089 1.17378e-08 0.118857C1.17378e-08 0.0696247 0.049232 0.0203924 0.098464 0.0203924H1.03387C1.0831 -0.0288396 1.13234 0.0203926 1.13234 0.0696245C1.13234 0.118857 1.0831 0.168089 1.03387 0.168089H0.098464V0.21732Z" transform="translate(1.23364 15.4308)" fill="#FFDCC5"/>
<path d="M0.036924 0.18462C-0.012308 0.135388 -0.012308 0.0861564 0.036924 0.0369244C0.086156 -0.0123076 0.135388 -0.0123076 0.18462 0.0369244L0.873868 0.726171C0.9231 0.775403 0.9231 0.824637 0.873868 0.873869C0.824636 0.9231 0.775405 0.9231 0.726173 0.873869L0.036924 0.18462Z" transform="translate(25.025 24.916)" fill="#FFDCC5"/>
<path d="M0.0369242 0.18462C-0.0123078 0.135388 -0.0123078 0.0861561 0.0369242 0.0369241C0.0861562 -0.0123079 0.135388 -0.0123079 0.18462 0.0369241L0.873868 0.726172C0.9231 0.775404 0.9231 0.824636 0.873868 0.873868C0.824636 0.9231 0.775404 0.9231 0.726172 0.873868L0.0369242 0.18462Z" transform="translate(5.38147 5.27246)" fill="#FFDCC5"/>
<path d="M0.70964 0.906568C0.758872 0.9558 0.70964 1.05426 0.660408 1.05426C0.611176 1.1035 0.512713 1.05426 0.512713 1.00503L0.0203927 0.168089C-0.0288392 0.118857 0.0203929 0.0203925 0.0696249 0.0203925C0.118857 -0.0288395 0.217321 0.0203925 0.217321 0.0696245L0.70964 0.906568Z" transform="translate(8.35193 2.9751)" fill="#FFDCC5"/>
<path d="M0.709641 0.906569C0.758873 0.955801 0.70964 1.05426 0.660408 1.05426C0.611176 1.1035 0.512712 1.05427 0.512712 1.00503L0.0203922 0.168089C-0.0288398 0.118857 0.0203933 0.0203933 0.0696253 0.0203933C0.118857 -0.0288387 0.217321 0.0203926 0.217321 0.0696245L0.709641 0.906569Z" transform="translate(22.2354 27.0002)" fill="#FFDCC5"/>
<path d="M0.24616 1.0831C0.24616 1.13234 0.147697 1.18157 0.0984647 1.18157C0.0492327 1.18157 3.7561e-07 1.0831 3.7561e-07 1.03387L0.24616 0.0984639C0.24616 0.049232 0.344624 1.17378e-08 0.393856 1.17378e-08C0.443088 1.17378e-08 0.49232 0.098464 0.49232 0.147696L0.24616 1.0831Z" transform="translate(19.0065 1.51855)" fill="#FFDCC5"/>
<path d="M0.24616 1.0831C0.24616 1.13234 0.147696 1.18157 0.0984636 1.18157C0.0492316 1.18157 1.87805e-07 1.0831 1.87805e-07 1.03387L0.24616 0.0984643C0.24616 0.0492324 0.344624 0 0.393856 0C0.443088 0 0.49232 0.0984636 0.49232 0.147696L0.24616 1.0831Z" transform="translate(11.8185 28.3007)" fill="#FFDCC5"/>
<path d="M0.168088 0.709641C0.118856 0.758873 0.0203922 0.70964 0.0203922 0.660408C-0.0288398 0.611176 0.0203933 0.512713 0.0696253 0.512713L0.906568 0.0203925C0.9558 -0.0288395 1.05427 0.0203926 1.05427 0.0696246C1.1035 0.118857 1.05426 0.217321 1.00503 0.217321L0.168088 0.709641Z" transform="translate(27.1586 8.19373)" fill="#FFDCC5"/>
<path d="M0.168089 0.70964C0.118857 0.758872 0.0203926 0.709641 0.0203926 0.660409C-0.0288394 0.611177 0.0203925 0.512713 0.0696245 0.512713L0.906568 0.0203933C0.9558 -0.0288387 1.05426 0.0203926 1.05426 0.0696246C1.1035 0.118857 1.05426 0.21732 1.00503 0.21732L0.168089 0.70964Z" transform="translate(3.13342 22.0771)" fill="#FFDCC5"/>
<path d="M0.0984632 0.24616C0.0492312 0.24616 7.5122e-07 0.147696 7.5122e-07 0.098464C7.5122e-07 0.049232 0.0984643 -3.7561e-07 0.147696 -3.7561e-07L1.0831 0.24616C1.13233 0.24616 1.18157 0.344623 1.18157 0.393855C1.18157 0.443087 1.0831 0.492319 1.03387 0.492319L0.0984632 0.24616Z" transform="translate(28.459 18.8481)" fill="#FFDCC5"/>
<path d="M0.098464 0.24616C0.049232 0.24616 0 0.147696 0 0.0984638C0 0.0492318 0.0984639 3.7561e-07 0.147696 3.7561e-07L1.0831 0.24616C1.13234 0.24616 1.18157 0.344624 1.18157 0.393856C1.18157 0.443088 1.0831 0.49232 1.03387 0.49232L0.098464 0.24616Z" transform="translate(1.67676 11.6603)" fill="#FFDCC5"/>
<path d="M1.00503 0.512713C1.05426 0.561945 1.1035 0.611176 1.05426 0.660408C1.00503 0.70964 0.9558 0.758873 0.906568 0.709641L0.0696245 0.217321C0.0203925 0.168089 -0.0288394 0.118857 0.0203926 0.0696246C0.0696245 0.0203926 0.118857 -0.0288395 0.168089 0.0203925L1.00503 0.512713Z" transform="translate(3.13342 8.19373)" fill="#FFDCC5"/>
<path d="M1.00503 0.512713C1.05426 0.561945 1.1035 0.611177 1.05427 0.660409C1.00503 0.709641 0.9558 0.758872 0.906568 0.70964L0.0696253 0.21732C0.0203933 0.168088 -0.0288398 0.118857 0.0203922 0.0696246C0.0696242 0.0203926 0.118856 -0.0288387 0.168088 0.0203933L1.00503 0.512713Z" transform="translate(27.1586 22.0771)" fill="#FFDCC5"/>
<path d="M0.49232 1.03387C0.49232 1.0831 0.49232 1.18157 0.393856 1.18157C0.344624 1.18157 0.24616 1.18157 0.24616 1.0831L1.87805e-07 0.147696C1.87805e-07 0.098464 -3.74143e-07 1.17378e-08 0.0984636 1.17378e-08C0.147696 1.17378e-08 0.24616 -2.20084e-08 0.24616 0.0984639L0.49232 1.03387Z" transform="translate(11.8185 1.51855)" fill="#FFDCC5"/>
<path d="M0.49232 1.03387C0.49232 1.0831 0.49232 1.18157 0.393856 1.18157C0.344624 1.18157 0.24616 1.18157 0.24616 1.0831L3.7561e-07 0.147696C3.7561e-07 0.0984636 7.48286e-07 0 0.0984647 0C0.147697 0 0.24616 3.74143e-07 0.24616 0.0984643L0.49232 1.03387Z" transform="translate(19.0065 28.3007)" fill="#FFDCC5"/>
<path d="M0.217321 1.00503C0.168089 1.05426 0.118857 1.1035 0.0696253 1.05426C0.0203933 1.00503 -0.0288398 0.9558 0.0203922 0.906568L0.512712 0.0696245C0.561944 0.0203925 0.611176 -0.0288395 0.660408 0.0203925C0.70964 0.0696245 0.758873 0.118857 0.709641 0.168089L0.217321 1.00503Z" transform="translate(22.2354 2.9751)" fill="#FFDCC5"/>
<path d="M0.217321 1.00503C0.168089 1.05427 0.118857 1.1035 0.0696249 1.05426C0.0203929 1.00503 -0.0288392 0.955801 0.0203927 0.906569L0.512713 0.0696245C0.561945 0.0203926 0.611176 -0.0288387 0.660408 0.0203933C0.70964 0.0696253 0.758872 0.118857 0.70964 0.168089L0.217321 1.00503Z" transform="translate(8.35193 27.0002)" fill="#FFDCC5"/>
<path d="M0.147696 0.49232C0.0984643 0.49232 7.5122e-07 0.49232 7.5122e-07 0.393856C7.5122e-07 0.344624 -7.55622e-07 0.24616 0.0984632 0.24616L1.03387 3.7561e-07C1.0831 3.7561e-07 1.18157 -1.9074e-07 1.18157 0.0984638C1.18157 0.147696 1.18157 0.24616 1.0831 0.24616L0.147696 0.49232Z" transform="translate(28.459 11.6603)" fill="#FFDCC5"/>
<path d="M0.147696 0.492319C0.0984639 0.492319 0 0.492319 0 0.393855C0 0.344623 2.20084e-08 0.24616 0.098464 0.24616L1.03387 -3.7561e-07C1.0831 -3.7561e-07 1.18157 0 1.18157 0.098464C1.18157 0.147696 1.18157 0.24616 1.0831 0.24616L0.147696 0.492319Z" transform="translate(1.67676 18.8481)" fill="#FFDCC5"/>
<path d="M7.7856 6.40016C8.52408 5.71091 8.91794 4.7755 8.91794 3.74163C8.91794 1.92005 7.58867 -3.7561e-07 4.63476 -3.7561e-07C3.05933 -3.7561e-07 1.68084 0.590784 0.991588 1.0831C0.646964 1.32926 0.499268 1.77235 0.646964 2.16621L1.04082 3.29854C1.13928 3.59393 1.38544 3.79086 1.6316 3.88933C1.927 3.98779 2.22239 3.93856 2.46855 3.74163C2.8624 3.44624 3.60088 3.15085 4.2409 3.15085C5.324 3.15085 5.324 3.74163 5.324 3.98779C5.324 4.82473 4.0932 5.02166 3.65012 5.02166H2.76394C2.22239 5.02166 1.82853 5.46475 1.82853 5.95707V7.13864C1.82853 7.68019 2.27162 8.07405 2.76394 8.07405H3.65012C4.14244 8.07405 5.71786 8.17251 5.71786 9.50177C5.71786 9.64947 5.71786 10.0433 5.37324 10.3879C5.02861 10.7326 4.43783 10.831 3.99474 10.831C3.1578 10.831 2.27162 10.4864 1.927 10.2403C1.68084 10.0926 1.38544 10.0433 1.09005 10.1418C0.79466 10.2403 0.597732 10.4372 0.499268 10.7326L0.0561801 11.9634C-0.0915158 12.3572 0.0561807 12.8495 0.450037 13.0957C1.13928 13.5388 2.46855 14.0311 3.99474 14.0311C7.58867 14.0311 9.21333 11.7172 9.21333 9.55101C9.36103 8.27097 8.77024 7.13864 7.7856 6.40016Z" transform="translate(10.6793 9.49414)" fill="#FFDCC5"/>
<path d="M2.76394 5.71091H3.65012C4.14244 5.71091 5.71786 5.80937 5.71786 7.13864C5.71786 7.28633 5.71786 7.68019 5.37324 8.02481C5.02861 8.36944 4.43783 8.4679 3.99474 8.4679C3.1578 8.4679 2.27162 8.12328 1.927 7.87712C1.68084 7.72942 1.38544 7.68019 1.09005 7.77865C0.794661 7.87712 0.597732 8.07405 0.499268 8.36944L0.0561805 9.60024C-0.0915155 9.99409 0.0561801 10.4864 0.450036 10.7326C1.13928 11.1757 2.46855 11.668 3.99474 11.668C7.58868 11.668 9.21333 9.35408 9.21333 7.18787C9.21333 5.90784 8.62255 4.7755 7.63791 4.03702C8.37639 3.34777 8.77024 2.41237 8.77024 1.3785C8.77024 0.886176 8.67178 0.443088 8.47485 3.7561e-07L2.76394 5.71091Z" transform="translate(10.7778 11.9065)" fill="#F7C6A4"/>
<path d="M1.67389 0.836944C1.67389 1.28003 1.28003 2.01851 0.836944 2.01851C0.393856 2.01851 -1.87805e-07 1.28003 -1.87805e-07 0.836944C-1.87805e-07 0.393856 0.393856 -1.87805e-07 0.836944 -1.87805e-07C1.28003 -1.87805e-07 1.67389 0.393856 1.67389 0.836944Z" transform="translate(12.2124 5.35864)" fill="#CC7E48"/>
<path d="M0.836944 1.67389C1.29918 1.67389 1.67389 1.29918 1.67389 0.836944C1.67389 0.374713 1.29918 0 0.836944 0C0.374713 0 0 0.374713 0 0.836944C0 1.29918 0.374713 1.67389 0.836944 1.67389Z" transform="translate(12.2124 5.35864)" fill="#F7C6A4"/>
<path d="M1.18157 -1.87805e-07C1.52619 0.344624 1.52619 0.836944 1.18157 1.18157C0.836943 1.52619 0.344624 1.52619 -1.87805e-07 1.18157" transform="translate(12.4586 5.60486)" fill="#E8B18B"/>
<path d="M1.67389 0.836944C1.67389 1.28003 1.28003 2.01851 0.836944 2.01851C0.393856 2.01851 3.7561e-07 1.28003 3.7561e-07 0.836944C3.7561e-07 0.393856 0.393856 -1.87805e-07 0.836944 -1.87805e-07C1.28003 -1.87805e-07 1.67389 0.393856 1.67389 0.836944Z" transform="translate(14.8218 5.35864)" fill="#CC7E48"/>
<path d="M0.836944 1.67389C1.29917 1.67389 1.67389 1.29918 1.67389 0.836944C1.67389 0.374713 1.29917 0 0.836944 0C0.374712 0 0 0.374713 0 0.836944C0 1.29918 0.374712 1.67389 0.836944 1.67389Z" transform="translate(14.8218 5.35864)" fill="#F7C6A4"/>
<path d="M1.18157 -1.87805e-07C1.52619 0.344624 1.52619 0.836944 1.18157 1.18157C0.836943 1.52619 0.344624 1.52619 3.7561e-07 1.18157" transform="translate(15.0679 5.60486)" fill="#E8B18B"/>
<path d="M1.67389 0.836944C1.67389 1.28003 1.28003 2.01851 0.836944 2.01851C0.393856 2.01851 0 1.28003 0 0.836944C0 0.393856 0.393856 -1.87805e-07 0.836944 -1.87805e-07C1.28003 -1.87805e-07 1.67389 0.393856 1.67389 0.836944Z" transform="translate(17.431 5.35864)" fill="#CC7E48"/>
<path d="M0.836944 1.67389C1.29918 1.67389 1.67389 1.29918 1.67389 0.836944C1.67389 0.374713 1.29918 0 0.836944 0C0.374713 0 0 0.374713 0 0.836944C0 1.29918 0.374713 1.67389 0.836944 1.67389Z" transform="translate(17.431 5.35864)" fill="#F7C6A4"/>
<path d="M1.18157 -1.87805e-07C1.52619 0.344624 1.52619 0.836944 1.18157 1.18157C0.836945 1.52619 0.344624 1.52619 0 1.18157" transform="translate(17.6772 5.60486)" fill="#E8B18B"/>
</svg>
