<svg width="30" height="31" viewBox="0 0 30 31" fill="none" xmlns="http://www.w3.org/2000/svg">
<path d="M14.5174 29.0347C6.53281 29.0347 -1.15374e-08 22.5019 -1.15374e-08 14.5174C-1.15374e-08 6.53281 6.53281 -2.30747e-08 14.5174 -2.30747e-08C22.5019 -2.30747e-08 29.0347 6.53281 29.0347 14.5174C29.0347 22.5019 22.5019 29.0347 14.5174 29.0347Z" transform="translate(0.189575 1.46521)" fill="#90AEAF"/>
<path d="M13.5979 27.1959C21.1079 27.1959 27.1959 21.1079 27.1959 13.5979C27.1959 6.088 21.1079 0 13.5979 0C6.088 0 0 6.088 0 13.5979C0 21.1079 6.088 27.1959 13.5979 27.1959Z" transform="translate(1.10889 1.51355)" fill="#7D979E"/>
<path d="M1.59691 15.2432C1.59691 7.74259 7.6942 1.6453 15.1948 1.6453C18.5338 1.6453 21.5825 2.85508 23.9536 4.83912C21.4857 1.88726 17.7596 -1.15374e-08 13.5979 -1.15374e-08C6.09729 -1.15374e-08 -2.30747e-08 6.09729 -2.30747e-08 13.5979C-2.30747e-08 17.7596 1.88726 21.4857 4.83912 24.002C2.80669 21.6309 1.59691 18.5822 1.59691 15.2432Z" transform="translate(1.10889 1.51355)" fill="#688389"/>
<path d="M19.2597 -9.22989e-08C24.5827 5.32303 24.5827 13.9367 19.2597 19.2597C13.9367 24.5827 5.32303 24.5827 0 19.2597" transform="translate(5.07703 5.53003)" fill="#688389"/>
<path d="M14.5174 29.0347C6.53281 29.0347 -1.15374e-08 22.5019 -1.15374e-08 14.5174C-1.15374e-08 6.53281 6.53281 0 14.5174 0C22.5019 0 29.0347 6.53281 29.0347 14.5174C29.0347 22.5019 22.5019 29.0347 14.5174 29.0347ZM14.5174 1.83887C7.50064 1.83887 1.83887 7.54903 1.83887 14.5174C1.83887 21.5341 7.54903 27.1959 14.5174 27.1959C21.4857 27.1959 27.1959 21.4857 27.1959 14.5174C27.1959 7.54903 21.5341 1.83887 14.5174 1.83887Z" transform="translate(0.189575 0.594116)" fill="#B6CBCE"/>
<path d="M19.9372 13.114C19.9372 9.43628 18.5822 6.09729 16.3562 3.58095C13.7915 1.35495 10.4525 4.61494e-08 6.77477 4.61494e-08C4.30682 4.61494e-08 2.03243 0.629086 3.69196e-07 1.69369C1.6453 0.871042 3.48417 0.435521 5.41981 0.435521C9.24272 0.435521 12.7269 2.1776 15.0497 4.88751C17.7596 7.21029 19.4533 10.6461 19.4533 14.5174C19.4533 16.453 19.0177 18.2919 18.2435 19.9372C19.3081 17.9047 19.9372 15.582 19.9372 13.114Z" transform="translate(9.28711 1.99744)" fill="#A3BFC1"/>
<path d="M2.30747e-08 6.87155C2.30747e-08 10.5493 1.35495 13.8883 3.58095 16.4046C6.14568 18.6306 9.48467 19.9856 13.114 19.9856C15.582 19.9856 17.8564 19.3565 19.8888 18.2919C18.2435 19.0661 16.4046 19.5017 14.469 19.5017C10.6461 19.5017 7.1619 17.7596 4.83912 15.0497C2.12921 12.7269 0.38713 9.29111 0.38713 5.41981C0.38713 3.48417 0.82265 1.6453 1.59691 3.69196e-07C0.629086 2.08082 2.30747e-08 4.4036 2.30747e-08 6.87155Z" transform="translate(1.54443 9.64319)" fill="#A3BFC1"/>
<path d="M0.193565 1.01622C0.193565 1.06461 0.145173 1.113 0.0967822 1.113C0.048391 1.113 3.69196e-07 1.06461 3.69196e-07 1.01622V0.0967824C3.69196e-07 0.0483912 0.048391 -5.76868e-09 0.0967822 -5.76868e-09C0.145173 -5.76868e-09 0.193565 0.0483912 0.193565 0.0967824V1.01622Z" transform="translate(14.61 0.932861)" fill="#C7E0E2"/>
<path d="M0.193565 1.01622C0.193565 1.06461 0.145173 1.113 0.0967822 1.113C0.048391 1.113 3.69196e-07 1.06461 3.69196e-07 1.01622V0.096782C3.69196e-07 0.0483908 0.048391 -7.38391e-07 0.0967822 -7.38391e-07C0.145173 -7.38391e-07 0.193565 0.0483908 0.193565 0.096782V1.01622Z" transform="translate(14.61 28.2255)" fill="#C7E0E2"/>
<path d="M0.181467 0.858944C0.133075 0.907335 0.0846846 0.907335 0.0362934 0.858944C-0.0120978 0.810553 -0.0120978 0.762161 0.0362934 0.71377L0.713771 0.0362935C0.762162 -0.0120977 0.810553 -0.0120977 0.858944 0.0362935C0.907335 0.0846847 0.907335 0.133076 0.858944 0.181467L0.181467 0.858944Z" transform="translate(23.9135 5.05823)" fill="#C7E0E2"/>
<path d="M0.181467 0.858943C0.133076 0.907335 0.0846845 0.907335 0.0362933 0.858943C-0.0120979 0.810552 -0.0120979 0.762161 0.0362933 0.71377L0.71377 0.0362927C0.762162 -0.0120985 0.810552 -0.0120985 0.858944 0.0362927C0.907335 0.0846839 0.907335 0.133077 0.858944 0.181468L0.181467 0.858943Z" transform="translate(4.65356 24.3179)" fill="#C7E0E2"/>
<path d="M0.0967817 0.193564C0.0483905 0.193564 7.38391e-07 0.145174 7.38391e-07 0.0967826C7.38391e-07 0.0483914 0.0483905 -1.84598e-07 0.0967817 -1.84598e-07H1.01622C1.06461 -1.84598e-07 1.113 0.0483914 1.113 0.0967826C1.113 0.145174 1.06461 0.193564 1.01622 0.193564H0.0967817Z" transform="translate(27.7725 15.0631)" fill="#C7E0E2"/>
<path d="M0.0967824 0.213609C0.0483912 0.213609 1.15374e-08 0.165218 1.15374e-08 0.116827C1.15374e-08 0.0684357 0.0483912 0.0200441 0.0967824 0.0200441H1.01622C1.06461 -0.0283471 1.113 0.0200443 1.113 0.0684355C1.113 0.116827 1.06461 0.165218 1.01622 0.165218H0.0967824V0.213609Z" transform="translate(0.52832 15.0431)" fill="#C7E0E2"/>
<path d="M0.0362934 0.181467C-0.0120978 0.133076 -0.0120978 0.084685 0.0362934 0.0362938C0.0846846 -0.0120974 0.133075 -0.0120974 0.181467 0.0362938L0.858944 0.713769C0.907335 0.762161 0.907335 0.810553 0.858944 0.858945C0.810553 0.907336 0.762162 0.907336 0.713771 0.858945L0.0362934 0.181467Z" transform="translate(23.9135 24.3662)" fill="#C7E0E2"/>
<path d="M0.0362936 0.181467C-0.0120976 0.133076 -0.0120976 0.0846847 0.0362936 0.0362935C0.0846848 -0.0120977 0.133076 -0.0120977 0.181467 0.0362935L0.858944 0.71377C0.907335 0.762161 0.907335 0.810553 0.858944 0.858944C0.810553 0.907335 0.762161 0.907335 0.71377 0.858944L0.0362936 0.181467Z" transform="translate(4.60522 5.05823)" fill="#C7E0E2"/>
<path d="M0.697521 0.891086C0.745912 0.939477 0.697521 1.03626 0.64913 1.03626C0.600739 1.08465 0.503956 1.03626 0.503956 0.987868L0.0200445 0.165218C-0.0283467 0.116827 0.0200447 0.0200442 0.0684359 0.0200442C0.116827 -0.028347 0.213609 0.0200442 0.213609 0.0684354L0.697521 0.891086Z" transform="translate(7.52502 2.80005)" fill="#C7E0E2"/>
<path d="M0.697521 0.891086C0.745913 0.939477 0.69752 1.03626 0.649129 1.03626C0.600738 1.08465 0.503956 1.03626 0.503956 0.987869L0.0200439 0.165218C-0.0283473 0.116827 0.020045 0.020045 0.0684362 0.020045C0.116827 -0.0283462 0.213609 0.0200443 0.213609 0.0684355L0.697521 0.891086Z" transform="translate(21.1711 26.4149)" fill="#C7E0E2"/>
<path d="M0.241956 1.06461C0.241956 1.113 0.145174 1.16139 0.0967831 1.16139C0.0483919 1.16139 3.69196e-07 1.06461 3.69196e-07 1.01622L0.241956 0.0967824C0.241956 0.0483912 0.338738 1.15374e-08 0.38713 1.15374e-08C0.435521 1.15374e-08 0.483912 0.0967824 0.483912 0.145174L0.241956 1.06461Z" transform="translate(17.9976 1.36841)" fill="#C7E0E2"/>
<path d="M0.241956 1.06461C0.241956 1.113 0.145173 1.16139 0.096782 1.16139C0.0483908 1.16139 1.84598e-07 1.06461 1.84598e-07 1.01621L0.241956 0.0967828C0.241956 0.0483916 0.338738 0 0.387129 0C0.435521 0 0.483912 0.096782 0.483912 0.145173L0.241956 1.06461Z" transform="translate(10.9325 27.6931)" fill="#C7E0E2"/>
<path d="M0.165217 0.697521C0.116826 0.745912 0.0200439 0.697521 0.0200439 0.64913C-0.0283473 0.600739 0.020045 0.503957 0.0684362 0.503957L0.891085 0.0200442C0.939476 -0.028347 1.03626 0.0200444 1.03626 0.0684356C1.08465 0.116827 1.03626 0.213609 0.987868 0.213609L0.165217 0.697521Z" transform="translate(26.0104 7.92944)" fill="#C7E0E2"/>
<path d="M0.165218 0.697521C0.116827 0.745912 0.0200443 0.697521 0.0200443 0.64913C-0.0283469 0.600739 0.0200442 0.503957 0.0684354 0.503957L0.891086 0.020045C0.939477 -0.0283462 1.03626 0.0200443 1.03626 0.0684355C1.08465 0.116827 1.03626 0.213609 0.987868 0.213609L0.165218 0.697521Z" transform="translate(2.39539 21.5758)" fill="#C7E0E2"/>
<path d="M0.0967817 0.241956C0.0483905 0.241956 7.38391e-07 0.145174 7.38391e-07 0.0967824C7.38391e-07 0.0483912 0.0967828 -3.69196e-07 0.145174 -3.69196e-07L1.06461 0.241956C1.113 0.241956 1.16139 0.338738 1.16139 0.387129C1.16139 0.43552 1.06461 0.483912 1.01622 0.483912L0.0967817 0.241956Z" transform="translate(27.2886 18.4021)" fill="#C7E0E2"/>
<path d="M0.0967824 0.241956C0.0483912 0.241956 0 0.145173 0 0.0967822C0 0.048391 0.0967824 3.69196e-07 0.145174 3.69196e-07L1.06461 0.241956C1.113 0.241956 1.16139 0.338738 1.16139 0.38713C1.16139 0.435521 1.06461 0.483912 1.01622 0.483912L0.0967824 0.241956Z" transform="translate(0.963745 11.3369)" fill="#C7E0E2"/>
<path d="M0.987868 0.503957C1.03626 0.552348 1.08465 0.600739 1.03626 0.64913C0.987868 0.697521 0.939477 0.745912 0.891086 0.697521L0.0684354 0.213609C0.0200442 0.165218 -0.0283469 0.116827 0.0200443 0.0684356C0.0684355 0.0200444 0.116827 -0.028347 0.165218 0.0200442L0.987868 0.503957Z" transform="translate(2.39539 7.92944)" fill="#C7E0E2"/>
<path d="M0.987868 0.503957C1.03626 0.552348 1.08465 0.600739 1.03626 0.64913C0.987869 0.697521 0.939476 0.745912 0.891085 0.697521L0.0684362 0.213609C0.020045 0.165218 -0.0283473 0.116827 0.0200439 0.0684355C0.0684351 0.0200443 0.116826 -0.0283462 0.165217 0.020045L0.987868 0.503957Z" transform="translate(26.0104 21.5758)" fill="#C7E0E2"/>
<path d="M0.483912 1.01622C0.483912 1.06461 0.483912 1.16139 0.387129 1.16139C0.338738 1.16139 0.241956 1.16139 0.241956 1.06461L1.84598e-07 0.145174C1.84598e-07 0.0967824 -3.67753e-07 1.15374e-08 0.096782 1.15374e-08C0.145173 1.15374e-08 0.241956 -2.16326e-08 0.241956 0.0967824L0.483912 1.01622Z" transform="translate(10.9325 1.36841)" fill="#C7E0E2"/>
<path d="M0.483912 1.01621C0.483912 1.06461 0.483912 1.16139 0.38713 1.16139C0.338738 1.16139 0.241956 1.16139 0.241956 1.06461L3.69196e-07 0.145173C3.69196e-07 0.096782 7.35507e-07 0 0.0967831 0C0.145174 0 0.241956 3.67753e-07 0.241956 0.0967828L0.483912 1.01621Z" transform="translate(17.9976 27.6931)" fill="#C7E0E2"/>
<path d="M0.213609 0.987868C0.165218 1.03626 0.116827 1.08465 0.0684362 1.03626C0.020045 0.987868 -0.0283473 0.939477 0.0200439 0.891086L0.503956 0.0684354C0.552347 0.0200442 0.600738 -0.028347 0.649129 0.0200442C0.69752 0.0684354 0.745913 0.116827 0.697521 0.165218L0.213609 0.987868Z" transform="translate(21.1711 2.80005)" fill="#C7E0E2"/>
<path d="M0.213609 0.987869C0.165218 1.03626 0.116827 1.08465 0.0684359 1.03626C0.0200447 0.987868 -0.0283467 0.939477 0.0200445 0.891086L0.503956 0.0684355C0.552348 0.0200443 0.600739 -0.0283462 0.64913 0.020045C0.697521 0.0684362 0.745912 0.116827 0.697521 0.165218L0.213609 0.987869Z" transform="translate(7.52502 26.4149)" fill="#C7E0E2"/>
<path d="M0.145174 0.483912C0.0967828 0.483912 7.38391e-07 0.483912 7.38391e-07 0.38713C7.38391e-07 0.338738 -7.42718e-07 0.241956 0.0967817 0.241956L1.01622 3.69196e-07C1.06461 3.69196e-07 1.16139 -1.87482e-07 1.16139 0.0967822C1.16139 0.145173 1.16139 0.241956 1.06461 0.241956L0.145174 0.483912Z" transform="translate(27.2886 11.3369)" fill="#C7E0E2"/>
<path d="M0.145174 0.483912C0.0967824 0.483912 0 0.483911 0 0.387129C0 0.338738 2.16326e-08 0.241956 0.0967824 0.241956L1.01622 -3.69196e-07C1.06461 -3.69196e-07 1.16139 0 1.16139 0.0967824C1.16139 0.145174 1.16139 0.241956 1.06461 0.241956L0.145174 0.483912Z" transform="translate(0.963745 18.4021)" fill="#C7E0E2"/>
<path d="M8.2749 10.4525H5.41981C7.45224 8.42007 8.95237 6.5812 8.95237 4.30682C8.95237 2.226 7.54903 -3.69196e-07 4.50038 -3.69196e-07C3.04865 -3.69196e-07 1.69369 0.483912 0.629086 1.40335C0.290347 1.69369 0.193565 2.12921 0.38713 2.51634L0.871042 3.62934C0.967824 3.8713 1.20978 4.11325 1.50013 4.16164C1.79047 4.21003 2.08082 4.16164 2.32278 3.96808C2.66152 3.67773 3.33899 3.19382 4.16164 3.19382C5.12947 3.19382 5.5166 3.58095 5.5166 4.50038C5.5166 5.85534 4.30682 7.21029 1.50013 9.87181L0.290347 11.0816C0.0967822 11.2752 -3.69196e-07 11.5171 -3.69196e-07 11.7591V12.7269C-3.69196e-07 13.2592 0.435521 13.6463 0.919433 13.6463H8.2749C8.8072 13.6463 9.19433 13.2108 9.19433 12.7269V11.4203C9.19433 10.8396 8.75881 10.4525 8.2749 10.4525Z" transform="translate(10.0614 9.20776)" fill="#C7E0E2"/>
<path d="M1.50013 7.59742L0.290347 8.8072C0.096782 9.00076 3.69196e-07 9.24272 3.69196e-07 9.48468V10.4525C3.69196e-07 10.9848 0.435521 11.3719 0.919433 11.3719H8.27489C8.8072 11.3719 9.19433 10.9364 9.19433 10.4525V9.14594C9.19433 8.61363 8.75881 8.22651 8.27489 8.22651H5.41982C7.45225 6.19407 8.95237 4.35521 8.95237 2.08082C8.95237 1.35495 8.75881 0.629085 8.42007 -1.84598e-07L5.37142 3.04865C5.03268 4.11325 3.8229 5.41981 1.50013 7.59742Z" transform="translate(10.0129 11.4337)" fill="#B6CBCE"/>
<path d="M1.6453 0.822651C1.6453 1.25817 1.25817 1.98404 0.82265 1.98404C0.387129 1.98404 3.69196e-07 1.25817 3.69196e-07 0.822651C3.69196e-07 0.38713 0.387129 -1.84598e-07 0.82265 -1.84598e-07C1.25817 -1.84598e-07 1.6453 0.38713 1.6453 0.822651Z" transform="translate(12.1906 5.14294)" fill="#688389"/>
<path d="M0.82265 1.6453C1.27699 1.6453 1.6453 1.27699 1.6453 0.822651C1.6453 0.368313 1.27699 0 0.82265 0C0.368313 0 0 0.368313 0 0.822651C0 1.27699 0.368313 1.6453 0.82265 1.6453Z" transform="translate(12.1906 5.14294)" fill="#B6CBCE"/>
<path d="M1.16139 -1.84598e-07C1.50013 0.338738 1.50013 0.82265 1.16139 1.16139C0.82265 1.50013 0.338739 1.50013 3.69196e-07 1.16139" transform="translate(12.4326 5.38489)" fill="#A3BFC1"/>
<path d="M1.6453 0.822651C1.6453 1.25817 1.25817 1.98404 0.822651 1.98404C0.38713 1.98404 3.69196e-07 1.25817 3.69196e-07 0.822651C3.69196e-07 0.38713 0.38713 -1.84598e-07 0.822651 -1.84598e-07C1.25817 -1.84598e-07 1.6453 0.38713 1.6453 0.822651Z" transform="translate(15.578 5.14294)" fill="#688389"/>
<path d="M0.822651 1.6453C1.27699 1.6453 1.6453 1.27699 1.6453 0.822651C1.6453 0.368313 1.27699 0 0.822651 0C0.368314 0 0 0.368313 0 0.822651C0 1.27699 0.368314 1.6453 0.822651 1.6453Z" transform="translate(15.578 5.14294)" fill="#B6CBCE"/>
<path d="M1.16139 -1.84598e-07C1.50013 0.338738 1.50013 0.82265 1.16139 1.16139C0.82265 1.50013 0.338739 1.50013 3.69196e-07 1.16139" transform="translate(15.8199 5.38489)" fill="#A3BFC1"/>
</svg>
