<svg width="32" height="31" viewBox="0 0 32 31" fill="none" xmlns="http://www.w3.org/2000/svg">
<path d="M3.15863 22.724H14.3869L23.9476 30.5689V22.724H27.3999C29.142 22.724 30.5586 21.2823 30.5586 19.5095V3.21458C30.5586 1.44174 29.142 0 27.3999 0H3.15863C1.41661 0 0 1.44174 0 3.21458V19.5094C0 21.2822 1.41661 22.724 3.15863 22.724ZM22.6979 12.1132C21.4688 11.6991 20.9941 11.0305 21.0062 10.3245C21.0062 9.21753 21.9556 8.37823 23.4272 8.37823C24.1211 8.37823 24.7412 8.53582 25.1068 8.71861L24.7785 9.99621C24.5108 9.84978 23.9998 9.65489 23.4888 9.65489C23.0383 9.65489 22.7828 9.83768 22.7828 10.1417C22.7828 10.4215 23.014 10.5679 23.7443 10.8234C24.8755 11.2123 25.3502 11.7849 25.3623 12.6606C25.3623 13.7676 24.4867 14.5826 22.7828 14.5826C22.0041 14.5826 21.3102 14.4129 20.8608 14.1695L21.1891 12.8434C21.5295 13.0504 22.2354 13.2939 22.7829 13.2939C23.3424 13.2939 23.5737 13.099 23.5737 12.7949C23.5736 12.49 23.3908 12.3445 22.6979 12.1132ZM12.2484 8.51163L12.3333 9.31457H12.3697C12.6252 8.93782 13.1484 8.37829 14.1705 8.37829C14.937 8.37829 15.5451 8.76719 15.8006 9.38735H15.8249C16.044 9.08332 16.3117 8.83991 16.5914 8.67022C16.9207 8.47533 17.2852 8.37835 17.7236 8.37835C18.8669 8.37835 19.7314 9.18129 19.7314 10.9569V14.4616H17.9307V11.2255C17.9307 10.361 17.65 9.86213 17.0541 9.86213C16.6288 9.86213 16.3238 10.154 16.2026 10.5075C16.1541 10.6408 16.1299 10.8358 16.1299 10.9821V14.4616H14.3291V11.1276C14.3291 10.3731 14.0614 9.86213 13.4767 9.86213C13.0029 9.86213 12.7222 10.2277 12.6131 10.5317C12.5525 10.6772 12.5404 10.8479 12.5404 10.9943V14.4616H10.7397V10.4096C10.7397 9.66824 10.7154 9.03499 10.6911 8.51181H12.2484V8.51163ZM6.957 12.1132C5.72786 11.6991 5.25321 11.0305 5.26531 10.3245C5.26531 9.21753 6.21468 8.37823 7.68629 8.37823C8.38016 8.37823 9.00125 8.53582 9.36583 8.71861L9.03754 9.99621C8.76988 9.84978 8.25886 9.65489 7.74779 9.65489C7.29733 9.65489 7.04182 9.83768 7.04182 10.1417C7.04182 10.4215 7.27307 10.5679 8.00329 10.8234C9.13452 11.2123 9.60918 11.7849 9.62134 12.6606C9.62134 13.7676 8.74568 14.5826 7.04182 14.5826C6.26314 14.5826 5.56927 14.4129 5.11981 14.1695L5.4481 12.8434C5.78848 13.0504 6.49445 13.2939 7.04188 13.2939C7.60142 13.2939 7.83273 13.099 7.83273 12.7949C7.83273 12.49 7.64994 12.3445 6.957 12.1132Z" transform="translate(0.626099 0.160156)" fill="#00CC47"/>
</svg>
