<?xml version="1.0" encoding="utf-8"?>
<!-- Generator: Adobe Illustrator 16.0.0, SVG Export Plug-In . SVG Version: 6.00 Build 0)  -->
<!DOCTYPE svg PUBLIC "-//W3C//DTD SVG 1.1//EN" "http://www.w3.org/Graphics/SVG/1.1/DTD/svg11.dtd">
<svg version="1.1" id="Layer_1" xmlns="http://www.w3.org/2000/svg" xmlns:xlink="http://www.w3.org/1999/xlink" x="0px" y="0px"
	 width="262px" height="165px" viewBox="0 0.559 262 165" enable-background="new 0 0.559 262 165" xml:space="preserve">
<path fill="#EFEFEF" d="M3,0.559h256c1.656,0,3,1.343,3,3v159c0,1.656-1.344,3-3,3H3c-1.657,0-3-1.344-3-3v-159
	C0,1.902,1.343,0.559,3,0.559z"/>
<path fill="#C7E0E2" d="M201.756,97.641H133.93c-11.988,4.126-24.897,8.564-39.522,10.611c-12.873,1.803-28.947,0.262-43.277-1.113
	c-19.853-1.903-36.355-3.485-36.355,4.59c0,15.642,49.439,39.626,101.637,39.626s89.063-14.251,91.578-33.718
	C209.127,108.844,206.726,102.275,201.756,97.641z"/>
<path fill="#DEDEDE" d="M79.272,53.632c0-2.762,2.239-5,5-5h150.75c2.763,0,5,2.238,5,5v111.926H79.272V53.632z"/>
<path fill="#FFFFFF" d="M74.123,45.482c0-2.761,2.239-5,5-5h150.75c2.762,0,5,2.239,5,5v120.076H74.123V45.482z"/>
<rect x="101.672" y="65.002" fill="#EFEFEF" width="106.316" height="5"/>
<rect x="101.672" y="74.955" fill="#EFEFEF" width="106.316" height="5"/>
<rect x="101.672" y="84.908" fill="#EFEFEF" width="106.316" height="5"/>
<rect x="101.672" y="101.445" fill="#EFEFEF" width="106.316" height="5"/>
<rect x="101.672" y="111.398" fill="#EFEFEF" width="93.691" height="5"/>
<path fill="none" stroke="#8E54E9" stroke-width="2" stroke-linecap="round" d="M102.791,152.453c7.553,0,10.196-12.84,16.616-12.84
	s7.175,12.84,13.217,12.84c6.042,0,8.686-18.882,16.616-18.882c7.93,0,15.482,11.706,31.343,11.706
	c12.688,0,23.665-11.832,27.567-17.748"/>
<line fill="none" stroke="#B2C8CA" stroke-width="1.2" stroke-dasharray="5,3" x1="148.245" y1="137.15" x2="148.245" y2="165.559"/>
<circle fill="#FFFFFF" stroke="#8E54E9" stroke-width="2" cx="148.309" cy="134.25" r="3.102"/>
<path fill="#FFFFFF" stroke="#EFEFEF" stroke-width="4" d="M24.978,28.142h59.523c2.762,0,5,2.239,5,5v37.364c0,2.762-2.238,5-5,5
	H24.978c-2.761,0-5-2.238-5-5V33.142C19.978,30.381,22.216,28.142,24.978,28.142z"/>
<path fill="#C7E0E2" d="M35.099,64.396v-7.313c0-0.819,0.664-1.484,1.483-1.484l0,0c0.82,0,1.484,0.665,1.484,1.484v7.313
	c0,0.82-0.664,1.484-1.484,1.484l0,0C35.763,65.88,35.099,65.216,35.099,64.396z"/>
<path fill="#C7E0E2" d="M40.464,64.396v-10.7c0-0.819,0.664-1.483,1.484-1.483l0,0c0.819,0,1.483,0.664,1.483,1.483v10.7
	c0,0.82-0.664,1.484-1.483,1.484l0,0C41.128,65.88,40.464,65.216,40.464,64.396z"/>
<path fill="#C7E0E2" d="M45.727,64.396V49.799c0-0.819,0.664-1.483,1.484-1.483l0,0c0.819,0,1.483,0.664,1.483,1.483v14.598
	c0,0.82-0.664,1.484-1.483,1.484l0,0C46.391,65.88,45.727,65.216,45.727,64.396z"/>
<path fill="#C7E0E2" d="M51.092,64.396v-2.58c0-0.819,0.664-1.483,1.483-1.483l0,0c0.82,0,1.484,0.664,1.484,1.483v2.58
	c0,0.82-0.664,1.484-1.484,1.484l0,0C51.756,65.88,51.092,65.216,51.092,64.396z"/>
<path fill="#C7E0E2" d="M56.354,64.396v-5.178c0-0.819,0.664-1.484,1.483-1.484h0c0.819,0,1.483,0.665,1.483,1.484v5.178
	c0,0.82-0.664,1.484-1.483,1.484h0C57.019,65.88,56.354,65.216,56.354,64.396z"/>
<path fill="#8E54E9" d="M61.617,64.396V45.252c0-0.82,0.664-1.484,1.483-1.484h0c0.819,0,1.483,0.664,1.483,1.484v19.145
	c0,0.82-0.664,1.484-1.483,1.484h0C62.281,65.88,61.617,65.216,61.617,64.396z"/>
<path fill="#C7E0E2" d="M66.15,64.396V49.799c0-0.819,0.664-1.483,1.483-1.483h0c0.819,0,1.483,0.664,1.483,1.483v14.598
	c0,0.82-0.664,1.484-1.483,1.484h0C66.814,65.88,66.15,65.216,66.15,64.396z"/>
<path fill="#C7E0E2" d="M71.413,64.396v-10.7c0-0.819,0.664-1.483,1.483-1.483h0c0.819,0,1.483,0.664,1.483,1.483v10.7
	c0,0.82-0.664,1.484-1.483,1.484h0C72.077,65.88,71.413,65.216,71.413,64.396z"/>
</svg>
