<?xml version="1.0" encoding="utf-8"?>
<!-- Generator: Adobe Illustrator 16.0.0, SVG Export Plug-In . SVG Version: 6.00 Build 0)  -->
<!DOCTYPE svg PUBLIC "-//W3C//DTD SVG 1.1//EN" "http://www.w3.org/Graphics/SVG/1.1/DTD/svg11.dtd">
<svg version="1.1" id="Layer_1" xmlns="http://www.w3.org/2000/svg" xmlns:xlink="http://www.w3.org/1999/xlink" x="0px" y="0px"
	 width="137.416px" height="30.592px" viewBox="0.838 0.704 137.416 30.592" enable-background="new 0.838 0.704 137.416 30.592"
	 xml:space="preserve">
<path fill="#8E54E9" stroke="#8E54E9" stroke-width="0.5" stroke-miterlimit="10" d="M33.656,1.633
	c-0.489-0.554-1.282-0.771-2.021-0.576l-0.087,0.022L17.581,6.857L3.884,1.123L3.852,1.09L3.624,1.024
	C2.896,0.829,2.103,1.046,1.604,1.601c-0.576,0.641-0.684,1.575-0.25,2.313l3.725,6.495l10.709,19.627
	c0.348,0.608,1.043,1.01,1.771,1.01c0.695,0,1.314-0.369,1.673-1.01l10.894-19.595l3.769-6.495
	C34.33,3.208,34.232,2.274,33.656,1.633z M32.505,3.143l-3.78,6.506l-9.08,16.346L25.966,5.13L32.081,2.6
	c0.141-0.033,0.293,0.011,0.38,0.108C32.57,2.828,32.592,3.001,32.505,3.143z M12.063,9.16l-0.988-3.28l4.41,1.846L12.063,9.16z
	 M6.491,9.627L2.744,3.11C2.668,2.969,2.679,2.795,2.788,2.676C2.853,2.6,2.961,2.567,3.07,2.567c0.033,0,0.065,0,0.087,0.011
	l5.985,2.498l1.423,4.714l-3.248,1.368L6.491,9.627z M11.042,11.332l4.507,14.902L8.088,12.57L11.042,11.332z M12.541,10.713
	l5.246-2.205l6.256-2.585L17.57,27.32L12.541,10.713z"/>
<path fill="#273138" d="M50.692,25.448h-3.489L41.94,12.539h3.833l3.204,8.657l3.07-8.657h3.68L50.692,25.448z"/>
<path fill="#273138" d="M58.739,6.151c1.202,0,2.155,0.973,2.155,2.174c0,1.163-0.953,2.116-2.155,2.116
	c-1.182,0-2.155-0.972-2.155-2.116C56.604,7.124,57.576,6.151,58.739,6.151z M57.023,25.448V12.539h3.489v12.909H57.023z"/>
<path fill="#273138" d="M65.298,21.196c0.076,1.029,0.839,1.964,2.365,1.964c1.163,0,1.697-0.61,1.697-1.277
	c0-0.572-0.4-1.049-1.392-1.259l-1.697-0.4c-2.498-0.553-3.623-2.04-3.623-3.852c0-2.308,2.04-4.214,4.824-4.214
	c3.68,0,4.9,2.327,5.053,3.718l-2.917,0.648c-0.115-0.763-0.648-1.735-2.117-1.735c-0.915,0-1.659,0.553-1.659,1.278
	c0,0.629,0.477,1.03,1.182,1.164l1.831,0.4c2.536,0.533,3.833,2.078,3.833,3.966c0,2.098-1.621,4.252-5.015,4.252
	c-3.89,0-5.225-2.517-5.377-3.985L65.298,21.196z"/>
<path fill="#273138" d="M76.415,6.151c1.202,0,2.155,0.973,2.155,2.174c0,1.163-0.953,2.116-2.155,2.116
	c-1.182,0-2.154-0.972-2.154-2.116C74.261,7.124,75.233,6.151,76.415,6.151z M74.68,25.448V12.539h3.489v12.909H74.68z"/>
<path fill="#8E54E9" d="M88.962,16.01c-0.4-0.076-0.744-0.096-1.048-0.096c-1.792,0-3.337,0.858-3.337,3.643v5.892h-3.489V12.539
	h3.375v1.907c0.782-1.697,2.574-2.021,3.68-2.021c0.286,0,0.553,0.019,0.82,0.057V16.01z"/>
<path fill="#8E54E9" d="M102.043,21.749c-0.648,2.231-2.708,4.1-5.873,4.1c-3.547,0-6.655-2.536-6.655-6.902
	c0-4.119,3.051-6.789,6.35-6.789c3.985,0,6.369,2.536,6.369,6.693c0,0.496-0.057,1.03-0.057,1.067h-9.229
	c0.076,1.697,1.525,2.938,3.261,2.938c1.621,0,2.517-0.82,2.937-1.965L102.043,21.749z M98.782,17.535
	c-0.057-1.278-0.896-2.536-2.879-2.536c-1.812,0-2.803,1.373-2.879,2.536H98.782z"/>
<path fill="#8E54E9" d="M108.469,12.539h2.593v3.108h-2.593v5.396c0,1.125,0.534,1.487,1.525,1.487c0.419,0,0.896-0.058,1.068-0.115
	v2.88c-0.305,0.134-0.954,0.324-1.964,0.324c-2.517,0-4.1-1.487-4.1-3.985v-5.987h-2.327v-3.089h0.648
	c1.373,0,2.002-0.896,2.002-2.04V8.707h3.146V12.539z"/>
<path fill="#8E54E9" d="M122.103,23.694c-0.553,1.239-1.888,2.116-3.623,2.116c-3.794,0-6.312-2.955-6.312-6.864
	c0-3.776,2.46-6.77,6.216-6.77c2.307,0,3.375,1.24,3.699,1.964v-1.602h3.375v10.564c0,1.144,0.076,2.04,0.095,2.326h-3.337
	c-0.057-0.286-0.133-0.973-0.133-1.602v-0.134H122.103z M118.899,22.798c1.812,0,3.166-1.487,3.166-3.852s-1.335-3.757-3.166-3.757
	c-1.869,0-3.222,1.393-3.222,3.757C115.677,21.272,117.011,22.798,118.899,22.798z"/>
<path fill="#8E54E9" d="M130.093,6.151c1.201,0,2.155,0.973,2.155,2.174c0,1.163-0.954,2.116-2.155,2.116
	c-1.183,0-2.155-0.972-2.155-2.116C127.938,7.124,128.91,6.151,130.093,6.151z M128.357,25.448V12.539h3.49v12.909H128.357z"/>
<path fill="#8E54E9" d="M134.764,25.448V6.457h3.49v18.992H134.764z"/>
</svg>
